<?xml version="1.0" standalone="no"?>
<!DOCTYPE svg PUBLIC "-//W3C//DTD SVG 1.1//EN" "http://www.w3.org/Graphics/SVG/1.1/DTD/svg11.dtd" >
<svg>
<metadata>
Created by FontForge 20090914 at Fri Feb 24 04:24:41 2012
 By root
Slayer the buffy font based on Herculanum http://members.xoom.com/buffysaver
</metadata>
<defs>
<font id="Slayer" horiz-adv-x="1139" >
  <font-face 
    font-family="Slayer"
    font-weight="400"
    font-stretch="normal"
    units-per-em="2048"
    panose-1="2 0 0 0 0 0 0 0 0 0"
    ascent="1638"
    descent="-410"
    x-height="1605"
    cap-height="1805"
    bbox="-336 -440 3125 1987"
    underline-thickness="150"
    underline-position="-142"
    unicode-range="U+0020-U+F005"
  />
<missing-glyph horiz-adv-x="1536" 
d="M256 0v1280h1024v-1280h-1024zM288 32h960v1216h-960v-1216z" />
    <glyph glyph-name=".notdef" horiz-adv-x="1536" 
d="M256 0v1280h1024v-1280h-1024zM288 32h960v1216h-960v-1216z" />
    <glyph glyph-name=".null" horiz-adv-x="0" 
 />
    <glyph glyph-name="nonmarkingreturn" horiz-adv-x="569" 
 />
    <glyph glyph-name="space" unicode=" " horiz-adv-x="1500" 
d="M-60 -437l-10 -3l5 4v3z" />
    <glyph glyph-name="space" unicode="&#xa0;" horiz-adv-x="1500" 
d="M-60 -437l-10 -3l5 4v3z" />
    <glyph glyph-name="exclam" unicode="!" horiz-adv-x="569" 
 />
    <glyph glyph-name="quotedbl" unicode="&#x22;" horiz-adv-x="727" 
 />
    <glyph glyph-name="numbersign" unicode="#" 
 />
    <glyph glyph-name="dollar" unicode="$" 
d="M578 1826q-46 0 -84 -19l-15 -38l-8 -42l-4 -16l-15 -65l-4 -30l-8 -27q-7 -12 -34 -27q-31 -12 -50 -23l-15 -4l-23 -11q-23 -8 -42 -19l-92 -39l-8 -7l-53 -23l-8 -12l-23 -19q-15 -19 -31 -31l-38 -107l-4 -23v-306l8 -15q42 -81 96 -127l68 -34l12 -8l42 -19
q23 -12 27 -15q11 -4 15 -8l23 -8l8 -7l19 -8l31 -12l34 -15q38 -8 61 -19v-567q0 -34 -4 -61l-15 4l-50 4q-61 11 -95 11l-19 12q-39 15 -62 30l-95 46h-12l-57 12l-54 7v-46q4 -7 4 -26l7 -39q8 -92 31 -149l54 -11l15 -4l15 -4l16 -4l149 -34q8 -4 27 -4l27 -8h15
q57 -11 96 -11l7 -12v-199h88l4 19l8 54q4 11 8 30l3 23l4 27q4 15 4 38l12 58l26 8l42 3q46 8 77 8l23 4l23 8l15 3l173 73q7 12 15 15l38 69q12 27 23 42q15 39 31 62q15 46 38 76v192l-4 15l-34 107l-12 12q-19 19 -30 27l-19 19l-4 7l-35 35l-19 11q-11 4 -15 8l-27 15
l-84 31l-12 8l-80 30q-19 12 -31 16l-57 34v77q-8 42 -4 72v12l-4 27v103l-4 12v99l-4 42v88q-7 58 0 100l12 -4l54 -8q34 -4 57 -11l11 -12l39 -38q7 -11 27 -27q30 -27 46 -50h88l65 66q0 11 4 15l3 46l4 27q8 49 8 84l-19 8q-39 3 -65 11l-16 4l-42 8l-15 3l-96 19
q-31 4 -54 12h-11q-23 8 -42 8q-35 11 -61 15v249h-31zM467 1355v-367q4 -54 -4 -88l-19 7q-34 4 -57 12l-19 15l-20 23l-53 54q-42 34 -65 61v168l107 111h11l31 4l77 16q11 -8 11 -16zM911 390v-206l-30 -31l-31 -31l-50 -50l-15 -3l-15 -4l-104 -31q-42 -19 -76 -19
l4 509q187 -27 317 -134z" />
    <glyph glyph-name="percent" unicode="%" horiz-adv-x="2351" 
d="M410 1780l-112 -68l-16 -12l-56 -36q-36 -16 -60 -40l-136 -136l-40 -124v-228q0 -164 116 -256q132 -128 292 -56l32 12l32 12l24 12q112 52 144 72l56 56l16 28l8 8q16 40 32 64l4 20v20q4 8 6 18l6 30l4 24l12 68l4 16l8 40l4 28q8 52 20 88l284 12l20 4h56l20 4h44
l20 4h40l28 4q60 12 100 12l-4 -8l-28 -96l-8 -12l-16 -36l-16 -24l-24 -28l-36 -52l-4 -8q-32 -48 -56 -72l-12 -20l-4 -12l-12 -20q-16 -32 -28 -48q-12 -28 -24 -44l-44 -76l-8 -8l-8 -16q-16 -20 -28 -48l-28 -44q-24 -24 -36 -52q-20 -24 -28 -48q-8 -12 -14 -22
l-18 -30l-132 -204l-12 -16q-36 -48 -48 -84l-8 -12l-52 -52q-28 -24 -44 -48q-24 -56 -48 -88l-128 -128q-28 -72 -76 -120l-8 -8v-140q12 -8 16 -16h192q8 12 16 16q40 36 56 76l4 8l24 72l4 20l8 12l80 156q4 12 8 16q16 40 32 64l12 16q8 24 20 40l16 24q4 12 8 16
l12 20l20 36l56 96l44 48l92 124l12 16l12 16l16 16l16 28q8 24 36 60l88 148l12 24q12 32 40 68l16 16q12 24 28 40l12 24l12 12l24 36l8 8l16 20q12 20 16 32q12 20 16 32l100 168q28 40 40 72l132 132l12 32v16l4 8l4 20q0 36 8 64l-80 20l-148 4q-24 -32 -52 -44h-700
l-60 32q-24 12 -40 28l-68 68h-188zM538 1600q4 -8 16 -20l16 -12l36 -40v-268l-52 -92l-20 -20l-60 -56q-12 -20 -24 -28l-36 -4h-36l-16 -4h-28l-152 -16l4 16l4 32l4 104l4 16l8 144l12 24l32 64l16 12l20 20l72 76q32 28 48 52h132zM1398 420q-96 -268 20 -504l12 -8
l24 -12l24 -12l8 -8l72 -44l8 -8l80 -44h136l12 8q24 8 40 20l12 4l44 24l12 4q20 12 32 16l28 16l80 92q20 20 28 36q160 176 128 396q-44 168 -148 272l-20 4l-28 8l-28 8l-100 24h-188zM1822 492l52 -52q12 -8 16 -16l92 -92v-216l-60 -60l-12 -8l-44 -48h-268
q-4 20 -20 28v436q12 20 24 28h220z" />
    <glyph glyph-name="ampersand" unicode="&#x26;" horiz-adv-x="2538" 
d="M124 1481v-208q0 -8 3.5 -15.5t7.5 -23.5l31 -100q19 -12 27 -27q39 -31 58 -54v-128l-39 -38l-88 -89q-8 -23 -20 -35l-4 -12q-11 -19 -23 -34l-42 -66l-8 -8l-27 -50v-282l12 -15l46 -93l12 -23l54 -112l27 -27l19 -16l62 -42q154 -128 340 -104h150l31 11q46 20 81 27
l20 12l42 27q31 15 46 31l97 58q23 15 39 34l77 78q23 61 62 104h123l8 -8q19 -23 69 -54q20 -11 31 -15l43 -27l11 -12q24 -11 35 -23l19 -12l47 -27q23 -11 38 -23l27 -15l8 -8l23 -15q12 -8 21.5 -16t36.5 -19l108 -70l8 -7l54 -31h104q128 108 159 247l4 31l-112 7
l-16 4h-38l-16 4l-112 4l-23 12q-66 30 -104 73l-128 66l-11 3l-27 16l-12 4q-19 11 -31 15l-54 31l-15 12q-35 31 -66 46l-19 12l-8 7q-23 12 -39 27v85q0 24 8 62v16q12 38 15 65l4 12l4 23l8 46q8 35 8 66q0 12 4 15l3 82q0 23 4 38l8 128h-305v-132q54 4 89 -4v-243
q4 -54 -4 -89l-27 4l-27 8h-12l-31 4l-27 4l-27 15q-35 19 -58 27l-15 19q-31 24 -47 39l-7 8l-62 46q-50 27 -77 62q-50 8 -85 23l4 12q11 38 15 65l16 16q7 11 27 31q30 27 46 50q4 11 19 39l27 38l12 19l42 70l4 12l16 23q7 23 19 34l4 12l23 43v173q-93 186 -301 232
h-201q-251 -104 -355 -317zM728 1582q36 -44 68 -68v-180l-24 -44q-12 -32 -28 -52q-8 -4 -24 -24l-24 -24q-36 -32 -56 -56l-176 -4q-32 40 -56 60l-56 56v224q28 24 44 44l12 12q36 32 56 56h264zM508 782l20 -20l16 -8q20 -20 36 -28l20 -16l48 -32l20 -20q32 -24 48 -40
t52 -36q24 -12 40 -24l92 -60q32 -16 52 -32l64 -64v-172l-24 -20q-8 -12 -12 -16l-40 -40q-28 -32 -52 -48l-32 -36q-52 -20 -84 -44h-136q-176 -20 -276 108l-12 12l-44 40q-20 56 -44 88v264l32 56q44 116 128 188h88z" />
    <glyph glyph-name="quotesingle" unicode="'" horiz-adv-x="391" 
 />
    <glyph glyph-name="parenleft" unicode="(" horiz-adv-x="879" 
d="M608 1805h-11q-42 -7 -70 -7l-8 -7q-24 -21 -42 -42l-11 -11l-42 -39l-46 -88l-71 -67l-3 -11l-35 -71l-25 -28l-25 -35l-3 -7l-64 -85q-4 -11 -7 -14l-57 -113q-3 -11 -7 -15l-28 -56q0 -7 -11 -25l-21 -60l-10 -28l-11 -25v-350l4 -17l3 -18l4 -21l7 -22v-14l7 -24v-11
q10 -28 10 -53l32 -60q18 -25 28 -35q18 -22 29 -39l46 -78l10 -14l18 -25l11 -18q14 -31 28 -49l113 -113q35 -89 106 -145l32 -32q77 -42 159 -32l17 25q15 46 15 74l-11 4l-64 14l-56 60l-50 88l-21 25l-35 50q-25 46 -53 70l-21 50q-15 24 -22 46l-3 10q-7 29 -18 46
l-10 39q-11 21 -15 39l-28 81v548l32 92q3 7 7 25l11 21l14 25l3 10l50 92q21 32 42 50l7 17q18 28 25 50l39 67l10 18l15 21l10 14l53 92l18 14l53 53q39 95 -14 81q-21 -7 -39 -7z" />
    <glyph glyph-name="parenright" unicode=")" horiz-adv-x="943" 
d="M-4 1807v-11l15 -72l14 -18l22 -18l46 -47q22 -50 40 -79l7 -7l11 -14l50 -76l8 -7q10 -18 25 -36q14 -15 29 -47q14 -22 32 -65q22 -32 29 -61l22 -47l3 -14l7 -11l8 -25l10 -29l8 -11q3 -22 14 -36l11 -33v-558l-7 -18q-8 -29 -18 -50l-4 -15l-4 -18l-21 -65l-4 -7
l-18 -65q-7 -7 -10.5 -16t-7.5 -12q-11 -22 -22 -36l-79 -134q-36 -29 -72 -72l-43 -43q-29 -25 -43 -43l-40 -40v-86l15 -15h79q72 0 122 15q18 39 22 79l65 65q18 18 25 29l25 25l11 21l36 54q4 11 7 15l18 29l11 18l14 18l22 43l11 11q3 7 8.5 14l16.5 22l47 68l7 7
l11 18l18 18q11 18 14 29l15 25l3 15l47 155v400l-11 28l-36 101l-14 22q-14 36 -29 58l-18 39l-11 18q-7 11 -18 33l-11 18l-10 21l-47 87l-7 7q-15 32 -40 72l-22 40l-79 82l-3 11q-22 33 -29 58l-11 14l-22 22l-7 11l-18 18l-4 7l-14 18l-22 32q-10 18 -18 22
q-10 25 -25 40h-104q-33 -11 -58 -15z" />
    <glyph glyph-name="asterisk" unicode="*" horiz-adv-x="797" 
d="M539 1516l-16 -4l-28 -8l-20 -4l-80 -20v-304q4 -56 -4 -92l-40 12l-60 20l-16 4l-40 16l-16 4l-44 16l-16 4l-12 8l-20 4l-124 40l4 -68l4 -12q0 -20 4 -32l4 -64l28 -24q40 -16 64 -32l44 -16q36 -8 64 -24l-4 -24l-8 -28v-12l-4 -32l-4 -28l-16 -16l-164 -120l-4 -32
v-32l-4 -12v-28q-4 -16 -4 -44q-8 -40 -4 -72h16l60 12l56 8l76 76q8 12 16 16l128 128h132l124 -144l4 -8l16 -20l12 -16q32 -48 60 -72h28q88 -4 156 20l-8 24l-12 64l-36 36l-4 8q-32 48 -48 88l-136 136v84l40 32l44 20l12 8l100 48l116 116v20l16 156l-20 -4l-72 -16
l-80 -44q-100 -88 -216 -108l-4 20v368l-24 4z" />
    <glyph glyph-name="plus" horiz-adv-x="1196" 
 />
    <glyph glyph-name="comma" unicode="," horiz-adv-x="708" 
d="M198 296l-41 -11l-3 -23v-18l-8 -81q0 -30 -3 -52v-37l-4 -7q4 -37 -4 -67l-3 -18q-11 -23 -15 -41l-4 -7q-15 -34 -18 -60l-19 -48q-26 -85 -29 -147q-8 -30 -8 -45v-40h26q56 14 92 14l12 8q25 33 51 51q4 15 11.5 26t14.5 30q19 33 37 74q19 33 37 81q11 19 15 30
l26 59l7 11q0 7 8 22q11 30 22 44l3 15q11 22 15 37q19 30 22 52l23 44q7 67 -12 111h-221z" />
    <glyph glyph-name="hyphen" unicode="-" horiz-adv-x="930" 
d="M43 845v-16l-4 -28l-4 -28q-8 -60 -8 -100h88l16 4h44l16 4l128 8l28 4q32 0 56 4l52 4l16 4q40 8 68 8l16 4l28 4q16 0 40 4l32 4l28 4q32 40 20 120l-24 12h-616z" />
    <glyph glyph-name="hyphen" unicode="&#xad;" horiz-adv-x="930" 
d="M43 845v-16l-4 -28l-4 -28q-8 -60 -8 -100h88l16 4h44l16 4l128 8l28 4q32 0 56 4l52 4l16 4q40 8 68 8l16 4l28 4q16 0 40 4l32 4l28 4q32 40 20 120l-24 12h-616z" />
    <glyph glyph-name="period" unicode="." horiz-adv-x="408" 
d="M26 145q-15 -49 -15 -87l75 -18q150 -86 270 18v176q-90 68 -188 53z" />
    <glyph glyph-name="slash" unicode="/" horiz-adv-x="1128" 
d="M770 1785l-3 -7q-10 -33 -20 -49l-3 -14l-7 -9l-23 -57q-10 -16 -13 -29l-33 -73q-4 -13 -13 -30q-10 -33 -20 -49l-4 -7l-19 -59q-17 -27 -25 -45t-12 -31q-10 -17 -13 -27l-33 -76q-3 -10 -7 -13l-3 -10l-10 -23l-10 -23l-26 -63q-4 -10 -7 -13l-23 -63l-10 -20
l-23 -59l-7 -10l-6 -17q-20 -53 -37 -82l-19 -47q-4 -10 -7 -13l-17 -43l-6 -10q0 -6 -3.5 -14.5t-6.5 -11.5l-13 -40q-4 -10 -13 -30q-20 -29 -27 -56q-23 -43 -33 -73q-10 -16 -13 -26l-23 -53q-4 -10 -7 -13l-3 -10q-7 -17 -13 -26l-67 -143q-3 -9 -6 -13l-23 -49
q-7 -20 -17 -33l-16 -37l-10 -20l-27 -52v-14l-3 -23l-3 -23q-10 -49 -7 -82q73 0 122 26l43 79l4 17l33 86l10 23l10 23l16 50l13 26l4 16l9 27l63 135q0 7 10 24l27 62l10 23l23 57q10 16 19 39l47 106l10 20q10 36 23 59l6 20l14 23q3 14 13 33q6 17 13 27l17 39
q6 17 13 27l39 92q20 37 27 60l3 10q17 30 23 56l17 40l6 10l30 59l4 10q9 16 13 26l23 43l10 20l10 20l13 30l7 10l23 49l6 10l56 113l4 9q10 17 13 27l13 23q27 63 17 122q-66 33 -129 30z" />
    <glyph glyph-name="zero" unicode="0" horiz-adv-x="1522" 
d="M737 1780l-16 -8l-52 -16l-124 -56l-40 -44l-20 -16l-44 -44l-4 -8l-24 -40q-25 -56 -61 -88l-8 -16l-20 -64q-12 -24 -16 -44l-8 -28l-8 -16l-8 -29l-4 -8l-20 -64l-4 -16l-4 -24l-8 -52l-12 -68l-4 -20q0 -32 -8 -56v-357l20 -68l12 -44l8 -28l4 -16l40 -144l40 -40
l44 -92l13 -8l44 -44l12 -12l48 -52l8 -4l8 -12q40 -32 60 -61l24 -16q40 -16 64 -32h248l16 4l12 8h12l60 24l16 4l25 12l28 12l40 21l56 56q8 12 16 16l128 128q188 336 172 677v152l-4 8l-16 72v16l-24 116q-12 24 -16 45l-12 32l-12 32q-20 36 -28 64l-60 120l-156 156
l-16 8q-36 20 -64 28q-20 12 -32 16l-65 20l-28 12h-212zM989 1568l113 -112l32 -64q8 -20 16 -32l20 -44l8 -12q8 -25 12 -29l4 -16l8 -16l36 -104v-565l-16 -52q-12 -20 -16 -36l-12 -32q-20 -36 -28 -64q-24 -44 -28 -56l-32 -64l-28 -40q-57 -20 -89 -44h-264l-160 164
l-28 60l-12 24l-44 124v637l20 48l4 16l12 28q8 21 20 49l12 20l12 32l72 132l12 4l80 44h264z" />
    <glyph glyph-name="one" unicode="1" horiz-adv-x="993" 
d="M363 1821q-24 0 -28 -4l-128 -8l-53 -28l-28 -12q-24 -12 -40 -24q-48 -20 -76 -44v-104q88 -72 128 -168v-1335l-4 -8l-4 -20q-12 -61 -12 -101h305v24q-8 28 -8 53q-12 36 -8 64v1587l4 28q16 56 8 104h-44z" />
    <glyph glyph-name="two" unicode="2" horiz-adv-x="1790" 
d="M374 1798l-19 -4l-51 -12q-15 -4 -43 -8q-31 -4 -50 -12l-40 -11l-7 -4l-63 -20q-19 -11 -31 -23l4 -191l4 -12q4 -35 12 -63h175q12 98 86 153h340q43 -16 78 -20q23 -47 27 -97v-293q-98 -301 -312 -480l-8 -12l-102 -98q-7 -11 -11 -15l-258 -262l-4 -11
q-11 -20 -15 -32l-16 -27v-234q16 -16 31 -16h1003l32 -4q70 -19 117 -15l11 39q0 12 4 15l4 32l4 19l8 90l4 12v31q8 35 4 62h-28l-15 -4h-16q-62 -11 -97 -11l-59 -4h-55l-27 -4h-70l-24 -4h-121q-31 -8 -54 -4h-71q-46 -8 -78 -4l-226 -4l20 78l101 102q16 19 27 27
q20 24 39 39q8 12 16 16q8 11 27 27l348 351q160 277 128 566l-3 16q-32 82 -36 109l-19 20l-8 11q-27 20 -43 39l-39 40q-27 23 -43 46l-43 20l-11 8l-149 54h-257z" />
    <glyph glyph-name="three" unicode="3" horiz-adv-x="1436" 
d="M67 1775q-4 -34 -4 -61l-4 -15v-41q-3 -23 -3 -57q-8 -60 -8 -94q8 0 26 8l38 7q19 8 34 8h268l53 -12l15 -3l64 -19h11l53 -15q34 -8 60 -19q-15 -181 -143 -283l-4 -7q-26 -46 -38 -80q-18 -15 -30 -30q-49 -49 -64 -60l-30 -34v-128l11 -15l23 -19l23 -23l33 -19l8 -7
l23 -11q22 -8 45 -34l22 -19l46 -45q34 -38 56 -57v-207l-11 -23l-30 -60l-12 -12l-7 -3q-19 -27 -38 -42l-49 -49l-11 -4l-38 -18q-34 -19 -75 -31l-53 -19l-15 -3l-26 -8l-19 -4l-15 -3l-23 -4q-19 -8 -28.5 -8t-19 -3.5t-27.5 -7.5l-23 -4q-38 -11 -64 -15h-11l-46 -11
l15 -83q34 -42 61 -64h267l12 7l19 8l7 7l23 12q86 34 139 90q23 8 34 19l11 4l159 98l105 105l12 23l22 42q4 15 15 37q12 19 15 30l16 27v105q7 189 -181 260l-106 106v162q19 19 26 30l61 61l37 79l19 19l8 3l30 34q72 64 106 140v143l-65 64l-75 34q-30 8 -49 19l-19 4
l-71 26l-15 4l-72 26l-15 4l-83 26l-34 12l-42 11l-15 4q-22 4 -26 7q-57 8 -94 19q-23 4 -38 4h-143q-15 -15 -19 -45z" />
    <glyph glyph-name="four" unicode="4" horiz-adv-x="1603" 
d="M1005 1820l-30 -4l-27 -3q-41 0 -67 -12q-15 -18 -23 -22l-116 -120l-22 -41q-12 -30 -27 -49q-82 -67 -112 -150l-15 -19l-7 -3l-8 -12l-56 -56l-15 -26q-19 -41 -38 -68l-56 -52l-15 -19l-34 -60l-7 -7l-15 -27l-8 -7l-63 -109l-19 -18l-11 -12l-53 -52l-26 -53
q-11 -26 -26 -41q-75 -64 -109 -142v-184l19 -19l506 -11l41 -4h135l11 -4h90q4 -30 0 -48l-4 -30l-3 -60q0 -45 -4 -75l-4 -41v-27q-7 -30 -7 -52v-11q-12 -38 -15 -68l11 -4l37 -7l30 -11h19q41 -8 68 -8l7 -4l79 -3v446l15 3l127 8q30 0 53 4l172 3l11 4h79q64 94 79 191
l-536 4l4 210l3 11v146l4 27l8 367q-4 30 3 56l4 162l4 14l4 102q11 56 3 101h-33zM835 1375l-8 -18q-3 -33 -11 -55l-3 -30q0 -66 -4 -92v-117q-4 -26 -4 -44v-41q0 -33 -3 -59v-51q0 -33 -4 -59v-92q-7 -40 -4 -70l-11 -3h-526q37 143 125 239l4 11l26 33l7 7l11 15
q11 18 22 26l33 36l4 11l29 59l8 11l165 166q22 62 63 103q44 7 73 18z" />
    <glyph glyph-name="five" unicode="5" horiz-adv-x="1178" 
d="M110 1789l-3 -21l-14 -60l-18 -68l-11 -32l-11 -32l-35 -104v-131l100 -100q35 -18 46 -22l25 -14q18 -11 32 -28l82 -82q14 -15 53 -32l32 -15l221 -221v-270l-18 -29l-32 -60q-25 -22 -42 -40l-118 -117l-21 -18l-22 -25l-32 -18q-25 -10 -39 -21l-25 -4l-18 -3
q-28 0 -50 -4l-32 -3h-46l-25 -4q-53 0 -89 -7v-274h25l25 7h11l28 3l25 4q39 18 50 25l25 10l92 54l11 11l22 17l117 72l7 7l22 10q10 11 21 15l32 18q25 28 46 42l40 39q7 11 14 15l157 157q139 263 39 516l-11 11q-18 11 -25 21q-11 18 -28 32l-47 47l-21 17
q-46 32 -68 40l-10 7q-43 39 -82 60l-7 4q-33 18 -50 32q-25 18 -40 25l-7 3q-28 22 -53 33l-32 24l-7 8l-29 17l-7 8l-50 28l-18 18v153l18 18q18 0 29 3h28q18 0 29 4l360 18l17 3h54q21 4 35 4q29 0 50 3l107 4l18 18q11 18 21 21l8 11l7 4l46 49v11l7 29v10q7 36 7 64
h-944z" />
    <glyph glyph-name="six" unicode="6" horiz-adv-x="1306" 
d="M777 1816l-40 -19l-12 -7l-93 -45q-7 -11 -14 -15l-146 -145q-26 -22 -40 -45l-12 -7l-63 -63l-4 -8l-11 -7l-11 -15l-26 -26l-11 -7l-48 -49l-12 -22l-22 -41q-19 -30 -52 -63l-52 -108q-11 -22 -15 -26l-60 -123v-11l-7 -22q0 -8 -7 -26q-8 -45 -19 -75v-249l4 -19
l3 -18l4 -23l8 -22v-15l7 -26v-11q11 -30 11 -56l11 -22l12 -23l11 -22l37 -74l7 -11l52 -101l38 -37l11 -7l15 -19q18 -11 33 -30q168 -93 339 -78q230 -15 375 134q19 11 26 22l64 64l11 26l7 11l37 96l12 30l11 26q4 175 -8 231q-52 290 -312 357q-194 63 -357 -11
q-78 -63 -82 -149h22l11 -4l105 -3q29 -8 52 -4l29 -4h52l26 -4h67q19 -11 30 -14l60 -30l7 -8l26 -41l4 -11l22 -41v-219q19 -190 -141 -249h-294l-93 55l-41 41q-26 30 -45 45l-7 26l-7 22q-19 49 -26 82v402l3 11l108 246l11 18q8 23 19 37l52 90l11 18l41 71l74 78l12 8
l100 104l22 11l190 93l11 7l19 8l11 7l26 11l11 8q30 11 49 26q29 52 26 100l-30 4l-30 4q-22 7 -41 7h-152z" />
    <glyph glyph-name="seven" unicode="7" horiz-adv-x="1308" 
d="M32 1559h16q24 -4 28 -8l99 -12h680l15 4l36 4l20 4l31 4l28 4l-28 -95l-12 -20q-15 -39 -31 -63l-139 -281l-4 -12l-11 -23l-52 -107q-35 -32 -55 -63q-16 -40 -32 -63l-4 -12q-12 -20 -15 -32q-12 -20 -16 -32q-12 -19 -16 -31l-28 -52l-27 -55q-12 -32 -24 -47
l-20 -40q-4 -12 -8 -16q-4 -12 -8 -16l-99 -201l-15 -16l-8 -12q-24 -27 -36 -47l-16 -28l-15 -20q-20 -31 -40 -51v-91l8 -8l20 -12l8 -8q39 -15 63 -31h182q12 4 35 23q20 24 36 36q4 28 8 39.5t8 39.5l4 16l4 16l3 27l8 28v12q12 32 16 59q12 24 20 60l59 185l12 24
l12 24l24 43l12 28l23 55q12 32 24 52q0 8 8 23q12 24 16 40l27 55l8 24l4 8q12 20 24 47l12 28q4 12 8 16l43 95l20 23q20 16 32 32l15 36l12 23l20 36l12 24l12 23l12 24l11 24l24 51l16 20l43 59l4 8l20 32l8 8q28 43 40 51l4 16v178l-28 19h-83q-12 0 -16 4l-194 4
l-15 4q-60 -4 -99 4l-158 4l-28 4l-162 4q-12 0 -16 4q-59 -4 -99 4l-106 4l-44 4h-39l-12 4h-32l-12 4q-20 0 -31 4l-64 4v-265z" />
    <glyph glyph-name="eight" unicode="8" 
d="M526 1814l-4 -23l-4 -48q-11 -59 -11 -92l52 -8l22 -3h22q41 -8 67 -8l63 -63v-281q-26 -22 -41 -48l-11 -19l-11 -18l-22 -41l-63 -63q-89 -88 -170 19l-89 89v237l7 7l19 22l59 59l4 26l3 22l11 74h-11l-37 -7h-26l-18 -4q-45 -7 -74 -7l-104 -104l-4 -11l-11 -18
q-7 -19 -14 -30l-12 -26l-14 -26l-4 -11l-22 -40v-167l22 -41l4 -11l55 -115q26 -25 45 -40q18 -19 33 -26q63 -33 78 -45l29 -85q-11 -7 -33 -11l-45 -11l-14 -15q-37 -26 -52 -52l-8 -7l-22 -18l-81 -82q-30 -33 -52 -52l-7 -26l-23 -59q-7 -22 -7 -41v-214l37 -74l19 -19
l14 -11l23 -26l11 -7l26 -26q11 -7 14 -15q26 -22 37 -37l23 -4q37 -11 92 -18l26 -7l18 -4l15 -4h248l15 4q52 22 89 29l89 67l26 19q51 33 81 63q52 114 74 148v270l-7 26l-23 63q-3 22 -12.5 33t-27.5 22q-15 22 -34 37l-11 7q-14 23 -33 37l-74 75l-11 3l-37 8
q-19 7 -33 7q11 59 40 96l11 15l15 11q19 19 26 30l19 18l29 30q15 11 22 22l26 26q19 18 30 26l11 15l41 81l3 11q12 19 15 30l15 26v192q-11 22 -15 41l-3 7l-19 59l-78 78q-63 71 -137 104h-181zM555 774q37 -23 67 -34l7 -7q22 -19 33 -33l74 -74l8 -4l33 -33v-285
l-11 -8q-18 -26 -37 -40l-7 -8q-34 -37 -60 -55l-33 -37h-244l-8 7l-77 44l-19 15l-40 41v241l7 14q11 23 30 52q14 26 40 59l52 89l41 26q18 11 29 15l26 15h89z" />
    <glyph glyph-name="nine" unicode="9" horiz-adv-x="1354" 
d="M436 1822q-22 -3 -26 -7h-11l-23 -4l-41 -11l-23 -4l-45 -7q-60 -57 -124 -83l-15 -19q-19 -34 -23 -45q-11 -15 -15 -30q-22 -34 -30 -64l-60 -139v-199l41 -117l12 -23q15 -37 30 -60l90 -90q83 -94 177 -135h139q165 19 259 150l19 83h-23q-26 7 -48 4l-27 3h-52
l-15 4h-64l-15 4h-61q-11 0 -15 4q-56 -4 -94 3l-56 53q-23 30 -49 49v289q64 136 188 188h286q225 -105 188 -342v-259l-8 -11l-7 -27l-11 -26q-8 -41 -34 -90q-12 -30 -30 -49l-113 -203q-11 -19 -23 -27l-11 -15l-19 -18q-26 -23 -41 -46l-4 -11l-11 -15l-102 -169
q-75 -71 -94 -102q-30 -71 -79 -109q-52 -52 -56 -120l109 4l8 4q26 0 45 3h30l15 4l41 4l57 11l33 11q8 53 27 87q22 22 33 38q27 56 38 71l41 86l12 19l49 87l11 19l11 22q15 30 26 45l16 23l3 11l42 71q11 8 22 23l42 64l11 15q30 45 52 68q12 37 31 60l11 22
q11 30 26 53l34 75q19 34 30 83l19 64l4 19l3 18v203q-11 23 -15 42l-26 71l-7 12l-12 22l-7 23l-8 11l-45 94l-147 147l-41 7l-15 4l-26 7l-94 15l-19 4h-286z" />
    <glyph glyph-name="colon" unicode=":" horiz-adv-x="569" 
d="M129 1127l-20 -10l-20 -10l-16 -7q-7 -3 -23 -13q-33 -17 -50 -30v-86l20 -23l66 -103q133 -3 202 93v50q24 175 -136 152q-19 -10 -23 -13zM0 361v-83q60 -59 116 -83h89l7 7q27 30 47 46q43 37 29 113l-10 10l-73 109q-49 7 -82 4z" />
    <glyph glyph-name="semicolon" unicode=";" horiz-adv-x="569" 
d="M47 1125q-7 -126 90 -206l10 3h70l123 123v84l-40 40l-3 6q-17 10 -25 22t-18 18h-87q-77 -36 -120 -90zM130 619l-46 -44l-57 -150l-3 -16l-4 -14l-13 -40l-3 -20l-7 -16l-17 -60l-6 -34q-10 -23 -14 -43l-3 -7q-7 -36 -17 -60q-3 -63 4 -103q56 -17 103 3l3 7
q20 20 34 30l20 37l3 10l10 20l83 163l4 13q10 20 13 24q3 10 7 13l16 43l14 30q6 30 16 54v153l-13 13l-13 4h-107z" />
    <glyph glyph-name="semicolon" unicode="&#x37e;" horiz-adv-x="569" 
d="M47 1125q-7 -126 90 -206l10 3h70l123 123v84l-40 40l-3 6q-17 10 -25 22t-18 18h-87q-77 -36 -120 -90zM130 619l-46 -44l-57 -150l-3 -16l-4 -14l-13 -40l-3 -20l-7 -16l-17 -60l-6 -34q-10 -23 -14 -43l-3 -7q-7 -36 -17 -60q-3 -63 4 -103q56 -17 103 3l3 7
q20 20 34 30l20 37l3 10l10 20l83 163l4 13q10 20 13 24q3 10 7 13l16 43l14 30q6 30 16 54v153l-13 13l-13 4h-107z" />
    <glyph glyph-name="less" unicode="&#x3c;" horiz-adv-x="1196" 
 />
    <glyph glyph-name="equal" unicode="=" horiz-adv-x="1196" 
 />
    <glyph glyph-name="greater" unicode="&#x3e;" horiz-adv-x="1196" 
 />
    <glyph glyph-name="question" unicode="?" 
d="M330 1798q-27 -3 -43 -11l-50 -20l-16 -3l-97 -32l-7 -11l-8 -4l-90 -89l-3 -12q0 -23 -4 -39q-4 -31 -8 -74l-4 -27v-70l54 8l24 4q19 0 31 4l62 4l39 42l19 28l16 19q19 27 27 43l74 85h248l39 -39q12 -7 19 -23l24 -19l42 -47l12 -8l58 -58v-299l-35 -62l-3 -12
l-12 -23l-16 -27l-4 -12l-23 -43l-23 -15q-89 -39 -140 -105q-19 -12 -27 -23l-20 -8l-7 -8q-39 -15 -62 -31q-20 -23 -39 -39l-4 -8l-55 -54q-3 -58 4 -97l16 -16h132l15 20l24 19l50 51l58 31l8 8l16 7l8 8l15 8l8 8l105 62l143 143l4 12l12 20l39 89l4 15l23 66v183
q4 264 -148 415l-38 12l-16 4l-62 19l-16 4q-15 4 -35 8l-15 8l-27 8q-43 7 -70 19h-210zM276 35q128 -85 283 -62l62 62v171q-104 121 -240 109q-129 -120 -105 -280z" />
    <glyph glyph-name="at" unicode="@" horiz-adv-x="2079" 
 />
    <glyph glyph-name="A" unicode="A" horiz-adv-x="2000" 
d="M763 1744v-309l-6 -6q-13 -32 -26 -52l-3 -13l-32 -96l-23 -45l-6 -10l-16 -35l-7 -10l-13 -29l-6 -10q-3 -16 -10 -25v-10l-6 -10l-26 -77l-10 -19q-16 -23 -22 -42l-7 -10l-22 -45l-3 -10l-10 -19q-10 -16 -13 -29q-3 -6 -13 -23l-26 -51q-16 -23 -35 -36l-3 -9
l-10 -20l-13 -22l-3 -10l-19 -35l-10 -19l-23 -46l-3 -9l-84 -168l-6 -9l-16 -36l-7 -9l-38 -81l-45 -48q-23 -20 -39 -39q-58 -26 -90 -55q0 -13 -3 -38q-13 -58 -10 -97l68 3l22 3l61 4q20 3 37.5 3t30.5 6q23 4 39 10q22 3 38 10q26 3 45 9l17 16l3 10q19 48 25 81l13 29
q10 19 13 22q3 10 7 13q3 10 6 13q3 10 7 13l16 35q9 23 19 36l64 167q10 16 13 26l13 22q3 13 16 33q16 38 36 61l16 3h631l26 -16q26 -10 42 -19l54 -55l17 -36l6 -9l16 -36l7 -9l9 -26q13 -19 20 -35l16 -29l35 -94l3 -13l4 -13l25 -80q23 -48 62 -77q19 0 35 -7l22 -3
q33 -3 52 -10h10l19 -3l19 -3l36 -7h116l13 13q6 81 -29 139l-7 9l-67 68l-7 16q-16 29 -22 48l-10 7l-23 22l-42 81l-3 10q-9 16 -13 25q-29 42 -40 53.5t-21 33.5l-10 20l-38 80q-29 29 -45 55l-94 183l-3 10l-10 19l-51 100l-3 10q-10 16 -13 26l-13 22l-3 10l-55 106
q-10 16 -19 39l-20 42q-9 16 -13 26l-22 45l-7 9l-112 264l-7 10q-22 42 -32 71q-3 10 -6 13q-13 48 -29 80l-42 39h-116q-65 -32 -110 -81zM986 1329q6 -45 19 -74l10 -19l9 -20q23 -48 32 -64l58 -119q13 -20 20 -36l42 -80l3 -10q9 -16 13 -26l13 -22q6 -39 16 -65
l-23 -3h-409q-45 -3 -74 3q3 13 6 36l4 22q3 36 16 58l9 16q17 29 23 49l77 151l4 10l45 83l3 10l3 23q6 48 16 80z" />
    <glyph glyph-name="B" unicode="B" horiz-adv-x="1238" 
d="M405 1804l-36 -20l-40 -37l-50 -23q-17 -10 -27 -14q-30 -20 -54 -26l-66 -34q-30 -23 -64 -60v-13l-3 -24q-7 -33 -7 -56q-6 -27 -3 -50q77 -14 120 -71v-1058l-3 -17l-4 -13l-3 -17q0 -13 -1.5 -23t-8.5 -34l-3 -23l-4 -23q-3 -37 -10 -61l-33 -70v-110l10 -10l23 -3
h281l13 6q20 4 37 14l13 3l24 7l56 20q30 7 67 23q24 10 37 20l47 24q10 3 13 6l114 57l10 3q16 10 26 14l24 13q26 27 50 44l6 3q64 30 101 73q187 364 -114 611l-80 84q-23 10 -37 20l-10 3q-23 14 -43 17l-50 13v64l13 7h10l50 13l17 20l17 17l70 33q26 33 50 50
q6 20 17 30q10 30 23 50l33 100l-3 10v204l-7 24l-10 23l-16 60l-54 53l-20 10l-30 17l-110 40h-341q-16 -10 -27 -13zM619 1644l24 -14l10 -3l36 -20l44 -47l6 -3l37 -40v-141l-7 -10l-20 -46l-13 -20q-13 -40 -33 -67l-64 -60l-6 -10l-87 -87l-17 -3q-37 0 -60 -7l-67 -7
l3 10v110l4 27l3 197l4 20l3 167q3 34 23 54h177zM546 832l26 -30l10 -7q47 -20 74 -40l154 -153l6 -10l7 -4l57 -60v-173q-10 -7 -14 -14l-110 -113q-140 -80 -280 -70q-54 -10 -91 20v561l7 13q20 50 50 80h104z" />
    <glyph glyph-name="C" unicode="C" horiz-adv-x="1566" 
d="M880 1817l-17 -4l-17 -3h-13q-34 -10 -84 -17q-33 -13 -57 -17l-10 -3l-63 -13l-57 -30q-74 -27 -117 -74l-20 -13q-30 -17 -54 -24l-10 -13l-23 -20l-17 -17l-17 -20q-16 -13 -27 -27l-30 -27l-3 -13l-7 -7l-10 -23q-10 -20 -20 -34l-30 -30l-33 -70l-14 -23l-3 -10
l-20 -37l-3 -17l-4 -17l-3 -13q-10 -27 -17 -63l-3 -14l-4 -13l-3 -14q-3 -16 -7 -33l-3 -23l-13 -74l-4 -20l-3 -20v-371l3 -14l14 -43v-10l6 -17q4 -27 9 -43.5t11 -26.5q17 -64 37 -104q40 -74 94 -114q7 -43 20 -73l67 -17l13 -13q40 -37 81 -51l10 -6l66 -34l44 -10
l84 -23h291l20 6q30 4 53 11h10l20 6l50 7l27 10l14 7l60 16l6 4q17 10 27 13l24 13l10 4l23 13l20 7q20 13 40 20q17 23 50 53q67 61 104 131v90l-13 14h-111l-36 -20l-41 -21q-46 -50 -100 -66q-147 -131 -344 -107h-111q-214 90 -297 264l-41 40l-6 20l-17 27
q-3 10 -7 13l-3 13l-33 94v325l3 6l17 64v10l43 137v10l7 13q6 20 16 34l17 40l40 40l4 10l26 54l74 73q10 17 33 34l4 6l10 7q30 34 53 50q34 14 54 27l13 3l14 7l23 7l7 3l53 17h241l10 -7l30 -33l17 -17l50 -50h111l86 87v127q4 37 -3 60l-17 13l-36 10h-10l-67 17
q-40 7 -67 4h-228z" />
    <glyph glyph-name="D" unicode="D" horiz-adv-x="1535" 
d="M400 1784h-10q-35 -13 -64 -16l-210 -64q-26 -3 -42 -10l-51 -51l-3 -16q-10 -51 -10 -86q58 -16 96 -16l6 -6l16 -20l16 -67l4 -6q3 -35 12 -58v-1175l-9 -12q-23 -55 -61 -90v-102l13 -13l9 -6h13l35 -7h10l51 -9h13l25 -3q19 -7 35 -7q42 -6 71 -3h166l51 16h9l29 10
h10l73 22l10 6q22 4 38 12t26 11q16 9 25 12l23 13q118 26 194 96q16 10 26 13q16 9 25 13l23 12q16 23 35 35l6 10l10 16q9 16 13 26l28 57l10 19l13 23q19 44 35 70l29 86l6 45v16q3 9 6 32l4 28v23q3 9 6 32v22l10 80v396l-10 45l-3 6l-3 13q0 13 -7 32l-3 28l-3 20
l-35 105q-48 48 -67 102l-16 13l-10 13q-35 28 -54 54l-19 10l-35 19l-10 3q-16 9 -26 13l-143 70l-13 3l-115 35q-38 7 -64 16h-239zM641 1597l31 -16l10 -6l16 -7l9 -6l16 -6l9 -7l42 -19l9 -6q32 -16 41 -19l23 -13q15 -22 31 -31l3 -7l29 -25q19 -25 41 -41l10 -13
l9 -16q19 -44 35 -69q3 -10 6 -13l3 -10l19 -34l4 -10q9 -16 12 -25l13 -22v-349q28 -342 -181 -532l-76 -76l-9 -3l-67 -32l-12 -3l-80 -29h-228q-9 16 -19 23v297l-3 35v266l-3 10v253q0 10 -3 13l-3 462q-7 38 -3 64l9 6q35 6 60 16h197z" />
    <glyph glyph-name="E" unicode="E" horiz-adv-x="1201" 
d="M514 1817q-104 -23 -170 -91q-71 -29 -117 -81l-26 -56q-19 -32 -42 -49l-10 -19q-10 -23 -19 -36l-7 -23q-16 -36 -23 -58l-3 -17l-3 -13l-7 -13v-9l-10 -30q0 -6 -3 -23l-10 -29q-3 -26 -9 -42q0 -23 -4 -26l-3 -30l-3 -22l-3 -20v-23l-13 -81q0 -26 -4 -46v-465
q4 -10 7 -26l3 -17v-13l3 -19l7 -23q0 -13 3 -33l3 -26l4 -22l16 -33l6 -10l56 -111l3 -9q10 -17 13 -26l13 -23l121 -121q32 -13 51.5 -24t36.5 -15l71 -26l13 -3l16 -3q27 0 56 -10l23 -3l22 -4q36 -3 59 -9h267l23 3q52 10 81 10v26l-6 23v9l-4 26l-3 23l-13 13l-16 7
h-16q-23 6 -43 6l-13 3l-23 4l-35 3l-46 7h-10l-36 3l-9 3q-26 0 -43 7l-162 65l-121 120l-13 23q-6 19 -16 33l-3 9q-7 17 -14 26q-6 20 -16 33l-19 49q-4 16 -10 26l-10 39l-3 16l-3 33v36q0 6 -4 22q0 23 -3 39v36l-3 23q-3 55 0 72l273 19l20 3l19 4l27 3q19 3 32 3
l46 7l19 3q16 0 26 3l52 4l10 6l59 29l16 17q10 55 -16 91h-62l-10 3h-88l-23 3h-94q-39 7 -65 4h-52l-13 3h-95l-23 3h-58v26l3 36l3 6v23l4 7q0 23 3 58l26 105v9l39 121q0 6 7 23l32 65q7 10 13 13l143 143l235 10q26 0 45 3l98 3v176q-42 13 -78 13h-316z" />
    <glyph glyph-name="F" unicode="F" horiz-adv-x="1358" 
d="M864 1824h-157l-10 -3l-412 -3l-16 -3h-170l-10 -13l-9 -9q-22 -26 -41 -38l-19 -22v-180l22 -44q38 -72 41 -135v-615q32 -66 35 -129v-768q31 -29 47 -51l16 -3q34 -3 57 -9h31v12l10 38v9q9 57 6 95l6 334l3 19l3 327l4 26v66l6 6l19 3l16 3q37 13 66 13l15 3l13 3
l28 3l19 4l22 3l16 3l22 3l63 6l22 3h29l22 4l69 3l16 3h15l22 3l67 3l15 3l70 4l22 3l91 3q22 28 16 63v91l-16 16h-205q-25 3 -47 -3l-280 -7q-22 0 -38 -3l-158 -3q-6 25 -3 44q0 48 3 66l4 199l3 22l3 249q6 28 3 50l22 19h9q23 3 41 6q26 10 48 10l12 3l22 3q29 6 51 6
l15 4q38 6 63 6q13 3 32 6l50 3l13 3l19 4l28 3h19q38 6 63 6l13 3l113 16h10q25 6 44 6l9 3q35 4 57 10l12 13v9l7 25v10q6 31 6 56h-243z" />
    <glyph glyph-name="G" unicode="G" horiz-adv-x="1577" 
d="M900 1816h-20l-10 -3l-74 -10l-10 -3q-26 0 -46 -4l-32 -13q-7 0 -20 -6l-52 -16q-26 -10 -42 -20l-10 -6l-42 -20l-23 -13l-10 -3l-35 -20l-20 -9l-29 -13l-29 -33q-88 -75 -127 -159l-30 -30l-6 -9l-13 -33l-13 -19l-3 -10l-39 -82l-7 -9l-6 -17q-17 -29 -26 -65
l-4 -13l-3 -19q-13 -39 -23 -94l-3 -17l-13 -55v-10l-10 -39v-322l13 -42v-10l10 -26q3 -29 13 -52l3 -13l13 -36q0 -6 3.5 -12.5t6.5 -23.5l72 -146l35 -32l17 -72l55 -13q29 -13 42 -33l20 -13l36 -16q19 -10 22 -13l10 -3l20 -10l35 -19l23 -7l13 -6l62 -20h520l17 -16
l35 -72l4 -13l3 -13l3 -16l3 -13q4 -16 7 -33l7 -19l3 -13l3 -20l16 -61h143l-3 9l-6 169q0 20 -4 33l-3 153l-3 19q0 23 -3 39v36l-4 7l-3 88l-3 16l-3 65l-4 23v16q0 26 -3 45v30l-3 10v42l-3 6l-4 88l-16 16l-45 7l-20 3l-29 3l-49 4l-3 -17q-10 -22 -10 -42
q-7 -19 -10 -45l-6 -33q-4 -19 -4 -32q-3 -20 -6 -23l-3 -20q-4 -39 -10 -65q-10 -6 -13 -13l-59 -58l-6 -4q-20 -26 -39 -42l-23 -6q-45 -20 -78 -26l-20 -4h-201q-85 -9 -147 33q-100 32 -130 123l-35 33l-33 98v422l26 98l10 36l36 71l3 10q10 16 13 26l13 23l3 10l13 22
l3 10l20 36l10 6q13 17 22 23q20 46 36 72l186 185l16 20l23 19l71 36l10 3q16 10 26 13l23 13h208q84 -39 133 -104h143l7 3l62 17q26 114 0 208l-72 19q-10 0 -13 4q-10 0 -13 3h-10l-26 6q-39 13 -68 17h-280z" />
    <glyph glyph-name="H" unicode="H" horiz-adv-x="1786" 
d="M0 1726v-113l103 -103v-182q3 -20 3 -33v-232q7 -33 3 -56l7 -872l3 -13v-149h33l24 3q53 10 82 10l20 17q10 16 14 26l19 37l4 10l3 76l3 10l4 112l3 10l3 110l4 23l3 46v60l3 10l4 119l3 13l3 77l20 16l162 33l216 7l23 3h76q27 0 47 4h109l10 3h69q27 3 50 -3l3 -24
l4 -23l3 -76q0 -10 3 -13l14 -361l3 -10v-100q3 -20 3 -33v-86q7 -20 3 -40q116 -39 163 4q16 33 20 43l13 23l7 291l3 20l3 242q0 27 4 46v100l9 3l24 3l23 4l23 3l23 3l37 4q20 16 23 40l3 59l3 27q7 43 4 69h-60q-46 -3 -76 4l3 92l4 20l3 109q0 20 3 34l4 126l3 13
l16 56l4 13l20 80l3 6l26 83l4 14v13q10 43 10 73l-24 -4l-59 -6q-143 3 -252 -60v-10q0 -40 -3 -66v-46q-4 -63 -4 -103v-66q-6 -20 -3 -40v-90l-3 -13v-126l-4 -10v-43q0 -30 -3 -53h-795l-3 20v17l3 23v69l3 27v69l4 24v63l3 23v96l3 16l7 153l3 10v30q7 23 4 43
q6 29 3 53l-43 10l-17 3h-295z" />
    <glyph glyph-name="I" unicode="I" horiz-adv-x="545" 
d="M81 1769l-81 -81v-188q37 -27 34 -64v-67l3 -23v-97l3 -7l4 -218q6 -40 3 -67l3 -155q0 -16 4 -26v-111l3 -24v-73l3 -44v-71q-3 -26 4 -50v-121l3 -23v-74q3 -10 3 -30q7 -30 7 -54l4 -17l3 -30l3 -47l4 -13q3 -20 6 -54l4 -60q23 -27 53 -20q57 -10 94 13l17 74
q20 54 17 97l3 27l14 671l3 17l3 272l4 20v90q0 27 3 47l10 420l3 16l4 57q0 17 3 27v84l-37 10l-147 3z" />
    <glyph glyph-name="J" unicode="J" horiz-adv-x="649" 
d="M227 1825q-25 -16 -44 -23l-32 -22l-73 -73v-105l67 -67l6 -22l3 -23l22 -79v-1257q-6 -13 -9 -26q-16 -41 -22 -70l-7 -9l-16 -35l-6 -10l-38 -79l-118 -118l-67 -3l-19 -3h-32l-19 -4h-38l-10 -3l-111 -3q3 -140 96 -220q127 -9 229 45q25 10 41 19q29 32 57 48l45 19
l3 6q51 48 73 102l3 6l42 45q3 10 6 13l3 9l10 16l3 10l19 35q7 19 16 32l29 79l3 13l3 13l3 12l16 54q0 7 1.5 15t5.5 11q0 9 6 25q6 26 6 45l3 9l4 29l3 16v19q3 13 4.5 25.5t4.5 35.5v12q10 48 10 80v1155q0 22 -3 38v42l-3 19v22l-4 13q0 47 -6 79h-41z" />
    <glyph glyph-name="K" unicode="K" horiz-adv-x="2039" 
d="M182 1841l-19 -9l-29 -13l-9 -13l-10 -6l-63 -64l-13 -69v-35q38 3 67 -7v-19l3 -9q3 -19 6 -48v-22q10 -51 7 -79v-194l3 -12v-238l3 -26l6 -914l3 -9v-67l19 3l16 4l16 3l26 3l22 3l9 7l48 47l3 10l10 19l19 35v412q-7 41 -4 70q-6 28 -3 51l-3 28l-3 127q-6 48 0 83
l16 -4q60 -3 101 -22l45 -25q44 -19 69 -35l10 -3q16 -10 25 -13l29 -16l22 -9q22 -10 35 -19l19 -13l32 -29l51 -25q25 -10 41 -19l28 -16q16 -9 29 -23.5t28 -20.5l10 -7l79 -38q35 -19 57 -44l70 -35q26 -29 51 -45l19 -9l16 -6q35 -19 54 -45l6 -3q45 -16 76 -48l10 -9
l19 -13q54 -22 89 -60l6 -3q29 -16 48 -22l12 -10q19 -22 38 -35q57 -22 92 -63q57 -23 96 -61l19 -12q54 -19 85 -57h140l105 104q25 23 41 42v76l-10 9l-16 7q-47 6 -76 15q-50 7 -85 19l-102 51q-16 10 -25 13q-22 9 -35 19l-10 3l-92 48q-22 25 -44 38q-10 3 -13 6
q-9 3 -13 6l-22 10l-47 25q-32 13 -51 26l-108 54q-13 9 -19 19l-22 19q-19 6 -48 22l-9 6l-26 10q-66 41 -82 60q-45 19 -70 38q-25 26 -51 38l-19 10l-19 9q-28 19 -54 26l-22 12q-41 45 -92 64l-6 3q-19 22 -38 35l-10 6l-19 10l-19 9l-22 10l-10 6q-38 16 -60 35
q-6 41 -3 70l92 89l9 3l57 32q39 38 80 54l16 9l73 70q57 22 95 63l63 32q61 25 99 63l19 13q25 10 41 19l6 3q54 23 86 51v98q3 26 -6 48q-83 57 -184 41l-19 -9q-16 -10 -26 -13l-22 -13q-10 -6 -13 -12l-60 -61q-6 -9 -13 -12l-117 -118l-19 -6q-22 -16 -38 -24t-29 -24
l-6 -3q-19 -25 -35 -36t-25 -15q-67 -38 -83 -60l-16 -16q-51 -57 -114 -79l-6 -9q-13 -10 -19 -20q-13 -9 -19 -19l-29 -25q-60 -22 -95 -63h-64l-15 22v35q0 47 9 111l3 31l3 32l4 32v16l3 9l9 403q-76 57 -162 45z" />
    <glyph glyph-name="L" unicode="L" horiz-adv-x="1605" 
d="M117 1804l-10 -6q-15 -9 -25 -13q-31 -15 -50 -31v-223l6 -19q0 -7 7 -22q6 -38 15 -63l3 -1209q-37 -57 -31 -113q13 -82 69 -129l25 -7h95q38 23 66 32h582l69 -32h110l19 23l4 9q9 16 12 25l13 22l3 41v16l3 34l3 10l3 47v57l-9 -3l-22 -4q-19 0 -22 -3h-22
q-32 -6 -57 -6l-57 -31l-9 -4l-142 -3l-22 -3l-393 -9q-44 -3 -72 3l3 69l3 13v53l3 28l6 762q7 28 3 50l4 10l3 91l3 10l3 94l3 19l3 88l3 16v34l4 13l3 107q6 19 3 31v139q-10 9 -22 13h-167z" />
    <glyph glyph-name="M" unicode="M" horiz-adv-x="3228" 
d="M44 1827v-110q49 -49 66 -102q76 -63 106 -143l40 -40l3 -13l7 -23l26 -77l7 -10l23 -46v-391l-6 -20q-10 -30 -14 -53l-10 -43l-3 -17l-66 -192l-4 -14l-20 -43l-19 -36l-63 -130l-7 -6l-33 -73q-17 -10 -23 -20l-44 -43v-186l47 -46h186l13 13l36 73l7 26l3 17
q10 33 14 56l13 50l3 7l20 53q7 36 17 59l3 10l7 34q6 16 6 29l14 50q9 23 13 40l46 133l4 16l9 37l4 13l3 13q17 57 20 80l30 89l3 14l23 83l17 -4l50 -13l235 -235l43 -44q10 -16 27 -29l63 -60q10 -17 26 -30q24 -27 44 -40l6 -10l43 -43l10 -3l50 -27q30 -20 46 -40
l37 -19l10 -4l36 -20l160 -63h325l53 17l23 3l13 4l57 16l13 3l13 7l83 27l10 6l46 23q34 14 53 27l83 40l40 40l70 33l73 73q33 16 43 20l23 13l10 10l13 10l10 13l14 10l6 10l17 17q23 16 33 33l17 16q36 30 56 57l66 16l4 -16l6 -47v-20q0 -10 4 -13l6 -86l3 -10
q4 -37 10 -60v-16l7 -24l3 -19q4 -40 14 -97l3 -26q7 -20 10 -50q0 -20 3 -23l4 -43l46 -186l20 -17h182l7 7q46 17 73 43v120q-17 26 -23 46l-4 7q-49 49 -69 102l-43 50l-20 37l-4 10l-43 86v494l4 17l3 16l16 57v10l44 129l3 17l7 13l26 86l3 13v14l4 19v20l3 27
q0 20 3 33l4 70l3 20l-63 16q-10 0 -13 4l-17 3q-36 3 -60 10h-29l-14 -53q0 -10 -10 -33q-3 -20 -10 -34l-19 -56l-4 -13l-56 -143l-10 -20q-10 -23 -20 -36l-10 -20l-10 -27l-13 -20q-7 -13 -17 -36l-33 -66q-27 -27 -43 -50l-27 -57l-335 -335l-10 -3l-53 -26
q-29 -30 -49 -44q-10 -3 -27 -13l-23 -13l-10 -3l-149 -77l-10 -3q-17 -10 -27 -13l-23 -14h-245l-50 27l-10 3q-17 10 -27 14q-16 10 -26 13l-30 16q-47 47 -100 67l-262 262l-13 10l-17 20l-36 36l-10 13q-10 7 -16.5 15.5t-13.5 11.5q-6 10 -13 13l-10 13q-27 20 -56 54
q-24 26 -40 39l-4 7l-19 17l-27 26l-40 76l-63 63q-30 44 -43 80q-50 46 -70 103l-33 33l-40 76l-9 10l-7 4l-7 9l-49 50q-34 77 -93 126l-14 17q-16 46 -43 76h-255z" />
    <glyph glyph-name="N" unicode="N" horiz-adv-x="2620" 
d="M28 1815l-18 -17v-155l110 -110q24 -21 48 -65l28 -49l7 -6q24 -18 38 -38q65 -59 96 -131l7 -24l27 -86v-564l-7 -37l-3 -14l-7 -38q0 -7 -7 -24q0 -21 -7 -34q0 -18 -3 -35l-17 -48l-4 -14l-27 -86l-7 -10l-21 -69l-7 -58l-3 -38v-38q-10 -55 -7 -86q79 -27 148 -20h38
q10 17 27 31l28 27l3 21q10 27 17 69l11 30v14q13 62 13 103l4 11l3 44l4 24l3 24q0 38 7 62v11l3 27v21l4 10v72l3 21l4 161q0 28 3 49l4 141q-4 79 10 134l52 -11l48 -7l72 -72q41 -48 93 -69q31 -13 48 -37l172 -107q31 -21 48 -41l7 -4q65 -31 103 -68l20 -11
q18 -10 21 -13l10 -4l97 -48q27 -31 58 -48q10 -4 14 -7l10 -3l38 -21l10 -3q17 -11 28 -14l24 -14l34 -34l10 -4q28 -17 49 -24l24 -14q17 -6 29 -11.5t29 -15.5q31 -34 62 -52l21 -10l51 -24l10 -7l21 -10l93 -45q148 -113 179 -268h31l27 7q41 3 96 20l14 7l55 18
q14 13 17 30v317l-3 10l-31 58v956l3 14l4 20q7 21 7 35q10 34 13 58l4 17l10 55q0 7 4 24q10 31 10 55l7 21v14l10 38q3 24 5 34t2 31q10 52 7 86l-14 -4l-96 -3l-14 -3h-58q-18 -7 -31 -4h-31q-35 -7 -59 -3h-10l-24 -4l-17 -7q-28 -3 -45 -10v-17l10 -59v-20l4 -28l3 -24
q52 -51 72 -110l14 -955l4 -14v-168q0 -31 -4 -55l-10 3l-100 17l-10 7l-24 10l-7 7l-24 11q-10 3 -14 6l-17 7q-21 14 -41 21q-28 34 -55 48q-35 14 -55 28q-66 24 -103 68l-55 28q-35 20 -55 44l-21 11l-62 34l-24 24l-17 11l-7 6q-34 14 -55 28l-52 48l-7 10
q-24 21 -37 38q-48 31 -83 45q-65 75 -141 106l-17 14l-141 141q-65 76 -141 103l-106 107l-24 24l-97 99q-7 11 -13 14q-7 11 -14 14l-17 17l-14 10l-96 97q-21 27 -42 44l-120 121q-76 41 -155 31z" />
    <glyph glyph-name="O" unicode="O" horiz-adv-x="1647" 
d="M651 1835l-22 -7q-15 0 -37 -8q-22 0 -36 -7l-33 -4l-26 -11q-29 -18 -51 -25l-11 -8q-18 -7 -29 -14l-40 -18l-180 -180q-3 -10 -7 -14q-4 -11 -7 -15l-4 -11l-29 -58l-7 -11l-30 -62l-7 -11q-18 -37 -22 -48l-22 -58q-7 -33 -18 -59q0 -22 -7 -36v-11l-8 -22
q0 -15 -7 -37q0 -22 -7 -36l-4 -33v-351l4 -11l7 -40l4 -11q3 -29 11 -48l7 -51l4 -15q11 -25 14 -43l15 -37l3 -15l4 -14l7 -11l19 -40l7 -11l44 -92q80 -98 179 -139q22 -22 33 -36q153 -81 303 -73q307 -26 512 153q102 40 132 132q98 84 117 194q10 18 14 32l7 8
q8 25 19 40v15q3 7 7 25l4 26l3 18l4 22l4 33q3 33 11 55l-4 402l-4 11l-3 22l-4 33l-4 21l-3 19v14q-11 55 -11 92l-30 77q-10 47 -32 80l-11 29q-11 18 -15 29l-29 59l-22 18l-18 22l-22 22l-8 4q-18 22 -36 36l-11 4l-22 11l-26 14l-11 4l-91 44h-11l-59 18q-25 4 -43 11
h-282q-18 -3 -36 -7zM903 1616l66 -33l18 -15l69 -69l8 -11l91 -88q11 -29 22 -48l15 -25l7 -26l33 -91v-585l-8 -7q-10 -29 -21 -44q-11 -29 -22 -48l-33 -65l-4 -11q-11 -19 -15 -30l-14 -25l-18 -18l-8 -4q-69 -29 -113 -77l-77 -36h-179q-51 3 -84 -4l-7 7l-19 8l-7 7
q-29 11 -47 22q-22 25 -41 40q-18 22 -33 33l-18 22l-84 84q-4 11 -7 14l-18 41l-11 22l-15 25l-4 11l-22 40l-36 110v431l62 154q7 22 18 36l37 37l36 77l8 7q25 22 58 55l18 7l8 7q29 11 47 22l26 11l51 30h267z" />
    <glyph glyph-name="P" unicode="P" horiz-adv-x="1382" 
d="M265 1812l-15 -4l-34 -11l-107 -37l-41 -41l-11 -3l-60 -30q-18 -19 -26 -41q0 -26 -4 -45v-11l-3 -18q-4 -41 -4 -67h71l7 -8q0 -15 7 -41q0 -29 8 -48v-1717l-4 -14l-15 -93h41l11 3l34 4q44 8 74 8l60 59l3 19q8 14 8 29l26 93l3 30v93q0 18 4 30l4 293l4 11v138l3 11
v145l4 26v119l4 26v148l3 8v152l4 26v141l4 19v126q0 30 4 52v112l22 22q30 30 56 48q37 15 59 30h230l8 -7q37 -34 56 -60l22 -41l11 -22l11 -30q15 -18 19 -37l11 -18v-316l-37 -75l-104 -104l-23 -11q-18 -7 -29 -15l-82 -29q-8 0 -26 -8q-30 -11 -48 -15
q-34 -11 -60 -15q-7 -74 8 -126h11q33 -15 59 -15h279l22 23q34 37 56 55q15 23 48 49l82 81l22 41q30 56 63 89v12l23 92v12l11 52v275l-30 89l-4 15l-7 11q-7 22 -19 37l-3 11l-23 41l-3 11q-11 19 -15 30l-15 26q-268 152 -543 126h-115z" />
    <glyph glyph-name="Q" unicode="Q" horiz-adv-x="2140" 
d="M392 1828l-40 -12h-10q-28 -10 -50 -13l-68 -34l-10 -6l-25 -10q-28 -19 -50 -25l-46 -25l-10 -9q-3 -6 -19 -19l-31 -34l-53 -50l-37 -72l-72 -75q-237 -465 -25 -886q25 -19 37 -37l4 -10l25 -50l68 -68l25 -53l13 -16q21 -25 40 -41l35 -37l65 -31l97 -97l19 -12
q49 -22 84 -60l9 -3l28 -15q44 -19 69 -35l9 -3q19 -9 31 -12l7 -3l78 -25l31 -19l9 -3l28 -16l122 -50q37 -9 69 -28l12 -6l100 -34l12 -7l213 -68l12 -3l22 -7l16 -3l62 -15l6 -4l72 -25q31 -9 53 -12q25 -9 44 -13l12 -3l16 -3l15 -6h13q16 -6 23.5 -6t10.5 -3l16 -3
l22 -4l18 -3l44 -6q28 -3 47 -9h172l56 28l9 6l59 28l85 84l3 16q9 50 9 84l-19 -3h-18l-13 -3l-22 -3l-22 -3l-34 -3h-468l-12 6l-50 12h-10q-37 13 -53 13l-103 34l-12 6l-147 47l-9 6h-10l-246 107q-44 18 -69 34q-22 28 -50 40l-46 25q-63 22 -100 66q-63 25 -103 69
l-10 3q-46 22 -65 37l-6 9l-144 144q-6 9 -12 12l-138 138l-6 15l-16 28l-21 47l-7 10l-53 106l-3 9q-9 16 -12 25l-13 22v296l13 32l3 12q12 31 15 53l35 34l3 10l9 15l25 44l78 81q59 69 131 97l3 6q19 16 28 28l13 3l37 16q28 6 50 16h134q97 9 169 -41q84 -31 106 -109
l34 -35l32 -90v-371l-10 -35l-3 -15l-6 -16l-13 -62l-3 -7q-28 -59 -65 -93l-31 -66l-35 -34q-34 -28 -53 -53l-50 -50q-6 -6 -22 -16l-56 -28l-15 -15q-10 -53 15 -88h203l9 10l4 6l124 125q28 31 50 47q13 18 28 31l3 9l25 50l41 44q140 256 128 515v109l-9 25l-19 50
l-3 12l-6 22l-7 19q-15 40 -22 68l-37 38l-3 6q-28 66 -75 106l-6 3q-63 25 -100 66l-13 3l-12 3l-84 28l-19 3l-16 3l-12 4h-13l-18 6q-28 3 -50 9h-237z" />
    <glyph glyph-name="R" unicode="R" horiz-adv-x="1525" 
d="M386 1796l-13 -4l-95 -30q-45 -27 -72 -37l-37 -38q-75 -30 -119 -85v-118l17 -17q34 -24 51 -55v-1269q-14 -51 -34 -81v-153q31 -24 41 -27l37 -20h160l17 13l10 584l3 20v136q0 51 7 85q37 -14 64 -17l129 -129l11 -24l6 -10q11 -27 28 -48q10 -6 13 -13q10 -7 14 -14
l220 -217l4 -7l23 -23l38 -34l34 -72l108 -108l4 -10l13 -62l17 -6q27 -4 44 -11h122q48 -3 79 4l44 75v101q-11 31 -14 55l-30 10q-28 3 -45 10l-624 624q-3 45 7 78l13 11l14 6q20 4 34 11l7 3l51 14l71 37l54 54q109 183 105 367q31 281 -163 444l-13 4l-75 27h-251z
M742 1719l68 -72l12 -8q16 -20 28 -28v-344l-36 -72q-8 -12 -16 -16l-44 -44q-12 -8 -16 -16l-128 -128l-12 -4q-20 -8 -32 -16l-20 -12l-28 -12l-20 -12q-32 -12 -52 -24l-76 -20l-8 4v88l4 12l8 392l4 12l4 168q48 112 152 152h208z" />
    <glyph glyph-name="S" unicode="S" horiz-adv-x="963" 
d="M368 1792l-35 -38q-15 -12 -25 -25q-34 -28 -53 -53l-32 -63l-31 -32l-13 -19q-3 -9 -6 -12q-3 -10 -6 -13l-4 -13l-9 -18l-9 -16q-13 -32 -26 -50l-6 -22l-9 -23q-7 -28 -16 -50v-170l6 -12l88 -243q7 -9 16 -28l22 -47q10 -16 13 -25l37 -73l4 -9l9 -19q10 -16 13 -25
l12 -22q7 -16 13 -25q0 -7 6 -19l25 -82l19 -35l19 -37l6 -26l7 -12l15 -51l4 -12v-161l-10 -25q-3 -25 -9 -41l-63 -15l-224 6q-19 3 -50 6q-22 0 -57 3v-38l3 -9v-22l4 -9l6 -92l6 -3l16 -16l9 -3l66 -31l22 -6l54 -19h186l18 9l51 25l56 13q13 38 16 66q44 41 66 94
q3 19 10 32q0 6 1.5 12.5t7.5 21.5q6 41 16 70v273l-6 19v10q-10 25 -13 47l-3 13l-22 78q-10 19 -13 35l-47 138l-9 19l-19 35l-32 97l-9 22l-22 44q-10 16 -13 29l-19 59l-3 13l-34 69v233l9 13q13 12 22 19l32 31l15 19q22 19 35 35q44 18 69 34h35l6 3h38l19 3
q25 0 44 4l119 6l-3 69l-3 10l-6 91l-13 12h-346z" />
    <glyph glyph-name="T" unicode="T" horiz-adv-x="1579" 
d="M1128 1798h-235l-24 -3l-575 -4l-17 -3h-208q-34 3 -59 -14v-125l7 -34q7 -17 7 -31l550 -4v-27q-3 -21 -3 -35v-152l-3 -28v-152q-4 -42 -4 -70v-152l-3 -10v-225l-4 -11v-529l7 -10l17 -39l7 -10l42 -86q145 -139 325 -122q135 -10 232 56q17 21 31 31l4 21q0 20 3 24
l10 86v21h-17l-24 4l-90 3l-17 4h-42q-10 0 -14 3h-59q-17 7 -31 4q-3 6 -10 11.5t-21 19.5q-21 24 -38 38l-59 59l4 1045l3 24l7 135l4 7v41l3 21l14 4l28 3l86 7l24 4l59 3l11 3l55 4q10 0 31 3l28 4q41 0 69 7q28 0 50.5 1.5t60.5 8.5l69 4q28 38 55 55v10l7 28v10
q7 35 7 63h-346z" />
    <glyph glyph-name="U" unicode="U" horiz-adv-x="2769" 
d="M223 1677l-71 -3q-10 -3 -27 -3q-20 0 -51 -7q-40 -10 -67 -10l-10 -27l-4 -14l-3 -17v-172l17 -47l3 -14l10 -23q4 -11 7 -28q10 -20 14 -37l17 -57l10 -14q20 -54 61 -91l6 -10l24 -47q14 -34 27 -54l41 -85l6 -10q21 -27 38 -41l6 -10l10 -23l27 -48q48 -47 65 -101
q77 -64 111 -145l88 -88q7 -10 14 -14l300 -304l68 -34l51 -44l57 -27l10 -6q20 -7 34 -17l10 -4q51 -23 115 -44h216q7 4 15.5 4t15.5 3t23 7q21 0 36 5t42 8l24 4l111 37l10 13l17 17l21 14q57 23 94 64l10 3l54 27q21 17 34 34l58 58l10 6l17 17l50 51l34 71
q75 64 105 139l37 40l102 196l3 10l10 21l54 104q7 21 17 34l34 71q10 20 13 24l24 54l3 17l17 47q7 27 17 44l4 13l10 31l3 13l10 31l7 13l27 85v115q3 27 -3 50l-10 11l-11 3l-17 10l-37 20l-20 4l-57 7l-27 3h-24l-7 3l-54 4l-10 -31v-10l-10 -30q0 -41 -7 -68
q0 -20 -3 -34l-4 -44l-3 -23q0 -37 -7 -61v-10q-3 -31 -3 -54l-4 -14q0 -37 -6 -61q-4 -17 -7 -33l-10 -28q-4 -23 -10 -40l-4 -27q-10 -20 -13 -37l-4 -10q-10 -21 -10 -34l-10 -24q0 -7 -5 -13.5t-12 -23.5l-44 -85l-7 -20l-6 -10l-34 -105l-37 -37q-17 -30 -24 -51l-7 -6
q-13 -21 -26.5 -34.5t-20.5 -26.5l-10 -20q-10 -27 -24 -44l-71 -71l-17 -17l-64 -64l-7 -4q-64 -30 -104 -71l-14 -3l-84 -31h-294l-102 34l-40 41l-65 30q-50 51 -108 71l-378 379l-14 23q-7 21 -17 34q-30 47 -67 78l-7 7q-17 37 -20 40l-4 10l-20 37l-3 11
q-10 16 -14 27l-13 23q-24 17 -38 37l-3 11l-10 20l-20 37l-4 10q-10 17 -13 27l-14 24l-3 20v47l-4 24v61l-3 17v61q0 20 -3 33v92l-4 27v71q-13 23 -54 13q-30 -7 -54 -7z" />
    <glyph glyph-name="V" unicode="V" horiz-adv-x="2953" 
d="M185 1827q-57 -30 -90 -63l-24 -3q-23 -10 -43 -10v-10q-23 -81 -13 -144q23 -50 46 -80l70 -33l231 -231q23 -20 37 -37l120 -120q23 -20 37 -37l36 -36q20 -24 40 -37l10 -10l10 -10q10 -17 27 -30l77 -77q17 -47 43 -77l154 -153l17 -20q20 -50 50 -84l56 -57l17 -20
q17 -10 23 -20l34 -43q13 -33 27 -53l100 -101q40 -90 113 -150q40 -70 47 -137h10q23 -10 40 -13h134q53 50 66 67l14 10q30 36 60 60l17 20l16 30q10 27 27 47q67 60 97 130l13 17l54 53q43 90 110 144l20 36l13 30l13 17l31 33l10 20q10 27 23 44l27 30l26 43
q14 34 40 57l50 87q27 23 41 50q36 67 60 83q23 64 70 107q10 17 13 27l10 20q17 30 27 37q20 20 43 63l4 10l30 64q13 20 20 40l10 36q10 20 13 37q17 57 20 80q20 20 27 40q-27 -13 -40 -26q-144 100 -304 86l-17 -16l-3 -7l-4 -17l-6 -53l-4 -20q-3 -20 -6 -23l-10 -84
q-4 -7 -7 -20l-20 -53l-3 -14q-7 -30 -20 -50q-4 -10 -7 -13l-3 -10l-14 -24l-3 -10l-20 -36l-3 -10l-14 -24l-3 -10l-10 -20l-17 -26q-10 -27 -20 -40q-10 -27 -20 -44l-17 -30q0 -7 -10 -23q-10 -17 -13 -30l-57 -114q-23 -30 -43 -47q-20 -46 -37 -73l-13 -10
q-30 -37 -54 -54l-33 -70l-30 -30q-27 -40 -40 -76l-94 -94l-6 -3l-7 -10l-53 -54h-104l-3 7q-57 47 -80 107l-7 13l-244 244q-26 60 -57 93l-16 17q-10 7 -14 13l-53 54q-10 6 -13 13l-37 37q-7 10 -13 13l-151 154q-23 50 -46 80l-201 200l-40 77q-67 54 -93 124l-14 16
l-63 64q-3 10 -7 13q-10 23 -20 37l-20 53q0 7 -7 20l-16 54q-10 6 -14 13h-120z" />
    <glyph glyph-name="W" unicode="W" horiz-adv-x="3098" 
d="M327 1857l-20 -3h-20q-37 -7 -60 -7q-17 -10 -27 -13l-37 -20q-16 -10 -33 -30q-37 -40 -63 -60l-4 -24q-3 -13 -6 -33q0 -17 -2 -28.5t-12 -28.5l-23 -13v-17q27 20 53 27q10 -27 27 -57l23 -26l17 -20l13 -21l7 -16q13 -34 27 -54q13 -33 26 -53l7 -27l7 -13l16 -53
q10 -30 24 -50l60 -121l7 -10q6 -20 16 -33l10 -23q10 -17 14 -27q10 -17 13 -27l7 -23l20 -53l3 -17l10 -20q10 -24 20 -37l17 -40q13 -20 30 -63q10 -20 16 -47l61 -144q20 -53 26 -83l7 -10q10 -23 20 -37q0 -6 10 -23l13 -37l4 -13l13 -37l7 -23l30 -94q6 -23 6 -43
q7 -20 7 -43l7 -34l3 -20l3 -23l4 -24l3 -23q0 -20 5 -35t12 -22h153l10 4l54 26l26 30l10 20q10 27 20 44l64 120q6 20 16 33l20 47l44 50l27 54l16 23q37 37 54 80l6 13q44 40 64 90l13 24q63 53 93 120l10 17l51 50l23 3l73 13l7 -10l13 -66l7 -7q13 -33 27 -53l50 -107
q20 -30 26 -60q17 -30 20 -57l10 -30l47 -97l4 -17q10 -23 13 -40q17 -46 20 -76l23 -90l4 -14v-13l3 -20l10 -54l17 -6q26 -4 43 -10q10 0 30 -4l43 -6h20l14 -4q50 0 83 -6l4 16l3 44q10 53 10 83l17 27l3 10l20 37l20 46q17 27 23 57l7 13l17 54q20 47 36 73l44 87
q3 10 8 20l15 30q10 17 13 27q11 16 14 26l13 24q4 10 7 13q3 10 8 20t9 14q3 10 6 13l37 73q13 34 27 54l40 83l43 50q10 17 13 27l20 37l4 10l23 46l23 44l7 20l70 96q30 84 84 137l10 20l20 37l3 10l17 33q16 30 23 50q77 27 124 84q50 133 -4 257l-3 3l-23 4l-17 3
q-17 0 -34 3l-66 10q-24 -10 -54 -16l-10 -7l-36 -10l-7 -3l-70 -17l-3 -14q0 -13 -3.5 -23t-6.5 -33l-4 -24q-3 -33 -13 -56l-4 -10l-3 -24l-7 -16q-3 -37 -16 -60l-17 -34q-10 -17 -17 -40l-26 -77q-4 -16 -10 -26q-10 -17 -14 -27q-10 -17 -13 -27l-13 -23l-4 -10
l-86 -174l-7 -10l-17 -36l-6 -10l-44 -90l-7 -7q-23 -20 -36 -40q-4 -10 -14 -30q-10 -17 -13 -27q-10 -17 -13 -27l-14 -23q-3 -10 -6 -13l-10 -20l-24 -50l-10 -17l-16 -33q-14 -34 -27 -54l-40 -83q-7 -17 -13 -27l-10 -27q-4 -50 -17 -86q-40 -4 -67 6v10l-7 17
q-3 27 -10 43l-6 10l-40 77q-4 10 -7 13q-3 10 -7 14q-3 10 -6 13l-17 37q-10 23 -20 37l-117 280l-3 13l-7 14l-30 96l-3 7l-17 53l-3 27l-4 37l-3 6v21l-3 26l-4 24l-13 3l-13 3l-14 4l-13 3l-33 7l-44 3q-53 10 -83 10v-10l-20 -63q-3 -20 -10 -34l-20 -70l-10 -7
l-24 -23l-26 -50q-14 -33 -27 -53l-40 -84q-23 -43 -53 -67l-10 -23l-20 -40l-40 -43l-14 -24l-3 -10l-20 -36q-34 -37 -44 -54q-23 -53 -60 -83q-26 -70 -70 -110l-3 -7q-7 -37 -17 -60h-63l-3 13l-17 57q-7 20 -17 33l-3 10q-10 17 -14 27l-20 37l-60 160l-6 10l-10 23
l-7 7l-10 27q-10 16 -13 26l-14 24l-6 23q-20 47 -27 80l-17 37q-23 37 -33 73l-23 74l-14 23l-3 10l-20 37l-24 73l-10 24l-63 190l-3 16l-10 27q-14 34 -17 57l-10 23l-3 14q-17 43 -20 63q-10 20 -14 37l-3 10q0 20 -7 53l-6 104q-17 16 -37 10z" />
    <glyph glyph-name="X" unicode="X" horiz-adv-x="2552" 
d="M6 1821l-13 -3l-74 -24q-26 -3 -43 -10q-30 -130 13 -236l37 -44l17 -13l36 -23l14 -10q40 -27 60 -47h73l30 -30l13 -17q17 -10 27 -26l7 -7l16 -17l7 -3l7 -10q30 -23 46 -46l7 -7q40 -30 70 -40l10 -7q16 -10 30 -26l76 -77q17 -10 27 -13q20 -14 37 -20l10 -4
l110 -110q33 -16 43 -20l23 -13l47 -47q53 -60 127 -90l63 -63l13 -10l27 -16q36 -14 60 -37v-67l-54 -53l-10 -7l-123 -126q-10 -7 -13 -14q-27 -23 -40 -40l-7 -3q-16 -20 -40 -43l-10 -7l-10 -13l-10 -10l-13 -10q-23 -27 -43 -44l-7 -10l-20 -16l-40 -44
q-77 -33 -127 -86v-110q110 -70 274 -50l13 13q27 24 40 44q17 33 20 43l13 23l107 107q16 46 43 76l70 70l3 7l57 53l17 37q30 57 70 87h66q47 -47 100 -67q17 -10 24 -20l90 -90l16 -10q13 -3 23 -10t30 -13l4 -7l16 -17l54 -50l10 -3l16 -10l37 -20q10 -3 13 -10l20 -20
q27 -30 50 -43l17 -10l50 -27l27 -26l13 -10q20 -7 33 -17q20 -7 34 -20l30 -27l56 -33q157 -20 240 83v114q-7 9 -13 13l-87 30l-23 10q-47 20 -73 36l-34 34l-60 30l-50 43l-53 27l-53 43l-60 30q-50 50 -107 70q-60 73 -137 103q-30 34 -56 50l3 14v129l14 17
q16 13 26 27q50 43 63 60l150 150q10 6 14 13l120 120l36 73l30 30q24 20 37 37l130 130q26 23 40 43q36 30 53 53l20 4v20q27 50 17 96q-24 10 -47 10h-336l-17 -53l-3 -17l-14 -30l-6 -10l-57 -113l-3 -10q-10 -17 -14 -27l-13 -23l-67 -66q-36 -84 -103 -140l-13 -20
l-4 -10q-13 -20 -20 -40l-103 -104l-13 -20q-30 -66 -80 -110h-137l-83 84q-40 36 -87 53l-10 7l-136 136l-23 14q-30 16 -50 23q-7 10 -27 27q-20 26 -40 40l-7 10l-16 16l-10 7l-14 13q-20 27 -53 53q-20 20 -43 27l-40 23l-124 124q-26 23 -40 50q-23 53 -60 83l-6 20
q-4 27 -10 47v13l-20 97l-13 16h-234z" />
    <glyph glyph-name="Y" unicode="Y" horiz-adv-x="2683" 
d="M477 1741q19 -38 44 -60q41 -31 79 -44l6 -9l82 -82q13 -13 47 -28l29 -13l104 -104l9 -3l51 -25l69 -67q22 -25 41 -37q31 -19 57 -29l135 -135q16 -10 25 -13q16 -9 25 -12l23 -13l31 -32l95 -94q18 -13 34 -19q32 -13 51 -32q6 -9 12.5 -17t12.5 -11l129 -126l6 -9
l19 -19q25 -19 38 -38l6 -3l7 -10l107 -107l9 -9l13 -10l16 -19q31 -28 47 -63q9 -25 12 -44v-346l-6 -35v-22l-3 -10v-22l-3 -15q0 -38 -6 -63h28l25 6q38 3 88 19q38 16 63 22q16 19 19 41v35l3 6v38l4 19l6 100l3 19l6 142l3 10l7 110q9 19 12 34l13 32q3 19 9 31
q32 29 45 54l18 44l38 38q3 9 7 13l15 34l10 19l25 51q19 31 41 47q9 16 13 25l18 35l16 22q19 16 25 28q22 57 63 91l10 19l9 22q13 22 26 35l31 41l3 13q19 34 32 47l22 22q22 60 66 98q3 9 12 28l10 19l31 63q19 38 48 60l28 57l41 50q32 85 25 164l-12 9l-32 35l-16 3
l-44 3l-15 3h-29l-9 3h-35l-6 4l-51 3q-3 -19 -3 -32l-6 -31l-3 -44q0 -35 -7 -57q0 -9 -3 -13l-3 -12l-9 -22l-16 -57l-35 -35l-6 -9l-28 -57l-4 -9q-9 -16 -12 -26l-13 -22l-3 -9q-25 -22 -41 -47l-22 -44q-13 -32 -25 -51l-38 -79l-16 -22l-28 -28q-6 -19 -16 -32l-3 -9
l-19 -35l-3 -9q-9 -16 -13 -25l-12 -22q-57 -57 -79 -130q-13 -25 -25 -40q-63 -73 -79 -158h-91q-7 9 -10 28l-9 38l-16 16l-9 6q-10 16 -19 22l-35 32q-9 16 -32 31l-6 10q-50 19 -79 44l-151 151q-19 13 -35 19l-6 3q-28 16 -44 28l-16 19q-15 13 -25 26l-94 91l-4 6
q-44 32 -78 44l-259 259l-25 19q-35 12 -57 28l-82 82q-6 9 -12 13l-35 34q-9 7 -12 13l-101 101l-16 31q-28 54 -35 101h-34q-278 -16 -224 -246z" />
    <glyph glyph-name="Z" unicode="Z" horiz-adv-x="1869" 
d="M358 1802l-3 -10l-11 -21l-20 -37v-151l17 -17l37 -10l14 -4l23 -7q51 -13 85 -16l40 -4l277 -17l13 -3l51 -3h40l21 -4h37q44 -3 47 -7l24 -3l74 -13q-10 -51 -20 -71l-372 -372q-16 -20 -30 -30l-108 -111q-20 -14 -30 -31l-10 -6q-10 -17 -24 -24l-3 -7l-10 -7
l-98 -97q-21 -27 -41 -41l-13 -13q-21 -24 -37 -38l-149 -148l-7 -10l-101 -101q-13 -34 -27 -54v-156l14 -37l3 -6l24 -38l6 -6q68 -31 108 -75l10 -3q17 -10 27 -13l24 -14l10 -3l24 -10l61 -21l16 -3l108 -37q21 -10 38 -14l37 -10q20 -10 50 -17l31 -13q30 -7 54 -17
l37 -10l10 -4q40 -6 67 -16q41 -7 68 -17h10l17 -7q30 -3 50 -10l48 -10q17 -7 33 -7l38 -10h10l50 -10l51 -10l20 -4q31 -10 52.5 -11.5t35.5 -8.5l30 -3l37 -11q34 -3 54 -10l14 -3l17 -3l20 -4l54 -10q7 0 15.5 -1.5t11.5 -5.5l37 -3q7 -3 24 -7l23 -3l75 -14h219
q169 125 172 304l-47 -7q-20 0 -24 -3l-108 -7l-17 -10q-16 -10 -27 -13l-23 -14h-388l-17 3l-17 4l-17 3l-17 4q-27 3 -44 10q-33 3 -57 10q-37 7 -81 20l-24 3l-27 11q-33 3 -57 13h-10l-142 41l-17 3l-236 81l-17 3l-23 14q-21 7 -34 17l-24 10l-13 3l-95 31l-71 37
l-54 54v101l955 955q10 7 14 13q10 7 13 14q10 7 14 13l148 149v216l-17 17l-641 10l-13 3l-14 4q-20 0 -23 3l-44 3l-10 4l-27 3l-54 7q-24 17 -41 23l-91 44h-155z" />
    <glyph glyph-name="bracketleft" unicode="[" horiz-adv-x="569" 
d="M280 1798l-18 -3h-47l-12 -3q-25 0 -40 -3h-34l-12 -3h-19l-9 -3h-21l-10 -3l-18 -3l-22 -4l-18 -3v-1738l22 -3l33 -3l31 -3h28l18 -3l62 -3l9 -4q22 0 37 -3q37 -3 65 -6l43 -3h55v34q3 43 -3 71l-28 3l-67 9l-13 3l-21 3l-25 3l-21 3q-34 3 -56 10l3 313l3 34v213
l3 24v246l4 34l3 551l3 9l3 22l12 77l28 9l43 15h9l12 6q28 7 50 16l27 6q16 18 22 34l9 52h-80q-25 -6 -43 -3z" />
    <glyph glyph-name="backslash" unicode="\" horiz-adv-x="569" 
 />
    <glyph glyph-name="bracketright" unicode="]" horiz-adv-x="499" 
d="M0 1730l12 -3l19 -3l64 -12l19 -3q31 0 52 -6q40 3 68 -10v-92l-3 -9v-219l-3 -24v-157q3 -46 -3 -77v-237q0 -37 -3 -61v-259q-4 -37 -4 -61v-250l-3 -9l-3 -21l-12 -77l-40 -16l-12 -3l-19 -6h-9l-89 -28q-28 -43 -31 -86l80 3l18 3l56 3q40 10 68 7l12 3l64 3
q19 3 50 6q21 0 55 3v1772h-31l-15 3l-31 3h-28l-15 3q-21 0 -37 4h-218q-28 -44 -28 -87z" />
    <glyph glyph-name="asciicircum" unicode="^" horiz-adv-x="961" 
 />
    <glyph glyph-name="underscore" unicode="_" 
 />
    <glyph glyph-name="grave" unicode="`" horiz-adv-x="682" 
 />
    <glyph glyph-name="a" unicode="a" horiz-adv-x="1994" 
d="M231 1704v-98l39 -36l9 -9l5 -9q21 -15 33 -32l18 -18q39 -36 53 -83l187 -187v-158l-41 -80q-9 -24 -30 -50q-18 -18 -27 -33l-14 -27l-15 -32l-6 -9l-6 -15q-15 -27 -21 -45q-18 -29 -27 -53q-23 -18 -35 -39l-45 -89q-12 -24 -28 -40t-25 -31q-21 -51 -54 -80
q-26 -60 -65 -95q-33 -78 -92 -125l-3 -6q-27 -56 -62 -92v-18q-12 -44 -9 -77l9 -3l15 -3q32 -3 53 -9h12q18 -3 41 -6l48 -3l24 -3l47 -3l15 92l3 9q9 12 18 33l9 21l9 17l11 18l12 30l6 3q15 18 27 27l6 15l6 8l27 54l3 9q9 15 11 24l12 20l18 15l9 3q15 9 24 12l21 12
h849l95 -95l9 -9l26 -27q9 -6 15 -18q33 -26 51 -50q24 -18 38 -36l3 -6q15 -41 39 -68l83 -83l3 -15l12 -44h44l21 3l21 3q21 0 36 2l71 3l9 12l12 12l6 3q26 33 47 51v101l-12 14l-12 3l-11 3q-42 18 -72 24l-9 9l-3 6q-23 18 -53 50q-18 21 -33 33l-9 9l-17 21
q-30 24 -45 41l-39 39l-6 9l-14 12l-42 41l-3 6l-27 27q-17 21 -35 33l-285 285l-9 9l-15 14l-12 12l-3 6q-24 18 -50 51l-9 18l-15 32l-12 15l-145 146l-21 35q-9 24 -24 42q-6 3 -15 12q-15 17 -27 26l-6 6l-14 18l-21 18l-15 21l-21 15l-27 26l-2 9l-9 18q-12 18 -18 33
l-69 71q-20 18 -32 36l-18 38l-9 18q-24 21 -36 39l-5 8l-9 18l-9 18l-9 21l-6 9q-12 35 -33 56h-202q-44 -21 -71 -44zM733 979l18 -3q35 -3 59 -9l42 -41l14 -12q24 -30 42 -45q9 -6 12 -12l151 -151q15 -15 24 -21q9 -15 18 -21l3 -17l12 -39l-3 -6h-567l6 21l3 21l3 18
l5 35l33 65l6 9l15 33l6 9l35 74q21 18 33 33q3 35 18 62q9 0 12 -3z" />
    <glyph glyph-name="b" unicode="b" horiz-adv-x="1472" 
d="M384 1726l-34 -18l-37 -34l-46 -22q-15 -9 -25 -12q-27 -19 -49 -25l-62 -31q-27 -21 -58 -55v-13l-3 -21q-6 -31 -6 -53q-7 -24 -3 -46q70 -12 111 -65v-977l-4 -15l-3 -12l-3 -16q0 -12 -1.5 -21.5t-7.5 -30.5l-3 -22l-3 -21q-3 -34 -9 -56l-31 -65v-101l9 -10l22 -3
h259l12 6q18 4 34 13l12 3l22 6l52 19q28 6 62 21q21 9 34 19l43 21q9 3 12 6q31 16 40 19q19 9 22 12l9 3l34 19l9 3q16 9 25 12l21 12q25 25 47 41l6 3q58 27 92 67q127 238 3 457l-67 71l-10 9l-34 31l-70 74l-10 3l-34 18q-18 9 -33 13l-53 15v59q37 15 65 18
q25 25 46 40l6 3q28 16 46 22q25 31 47 46q80 145 64 293v71l-6 21l-9 22l-15 55l-50 50l-18 9l-28 15l-102 37h-314q-15 -9 -25 -12zM582 1578q58 -28 89 -65l9 -6q28 -31 46 -46v-111q-40 -126 -126 -207l-6 -9l-80 -80l-16 -3q-21 0 -49 -3l-19 -3q-27 -6 -49 -6l3 9v102
l3 24l3 182l4 19l3 154q3 31 21 49h164zM514 829l24 -28l10 -6q43 -18 67 -37l142 -142l6 -9l7 -3l52 -55v-161q-157 -194 -373 -182q-49 -9 -83 19v518l6 12q18 46 46 74h96z" />
    <glyph glyph-name="c" unicode="c" horiz-adv-x="1857" 
d="M840 1733l-16 -3l-16 -3h-13q-33 -10 -81 -16q-32 -13 -55 -16l-10 -4l-61 -12l-55 -30q-71 -25 -113 -71l-19 -12q-29 -17 -52 -23l-9 -13l-23 -19l-16 -16l-16 -20q-16 -13 -26 -26l-29 -25l-3 -13l-7 -7l-9 -22q-10 -20 -20 -33l-29 -29l-32 -67l-13 -23l-3 -10
l-20 -35l-3 -16l-3 -17l-3 -12q-10 -26 -16 -62l-4 -13l-3 -13l-3 -12q-3 -17 -7 -33l-3 -22l-13 -71l-3 -20l-3 -19v-358l3 -13l13 -42v-10l6 -16q4 -26 8.5 -42t11.5 -26q16 -61 35 -100q39 -71 91 -110q6 -41 19 -71l65 -16l12 -13q39 -35 78 -48l10 -6l64 -33l42 -9
l81 -23h281l19 6q29 4 52 10h9l20 7l48 6l26 10l13 6l58 16l6 4q16 9 26 12l23 13l9 4l23 13l19 6q20 13 39 19q16 23 48 52q65 58 101 126v87l-13 13h-107l-35 -19l-39 -20q-45 -48 -97 -64q-142 -126 -332 -104h-107q-206 87 -287 255l-39 39l-6 19l-16 26q-4 10 -7 13
l-3 13l-32 90v313l3 7l16 61v10l42 132v10l6 13q7 19 17 32l16 39l38 39l4 9l25 52l71 71q10 16 33 32l3 7l10 6q29 32 51 48q33 13 52 26l13 3l13 7l22 6l7 4l51 16h233l9 -7l30 -32l16 -16l48 -49h107l83 84v123q4 36 -3 58l-16 13l-35 10h-10l-65 16q-38 6 -64 3h-220z
" />
    <glyph glyph-name="d" unicode="d" horiz-adv-x="1785" 
d="M387 1744l-27 -9h-9l-12 -6q-46 -6 -77 -22l-9 -3l-15 -3l-12 -3l-12 -6l-113 -30q-25 -3 -40 -10l-49 -48l-3 -16q-9 -48 -9 -82q55 -15 92 -15l6 -6l15 -19l15 -64l3 -6q3 -33 12 -55v-1122l-9 -12q-21 -52 -58 -86v-98l12 -12l10 -6h12l33 -6h10l48 -9h13l24 -3
q18 -6 33 -6q40 -6 68 -3h158l49 15h9l28 9h9l70 21l9 7q21 3 36.5 10.5t24.5 10.5q15 9 25 12l21 12q113 25 186 92q15 9 24 12q16 9 25 12l21 12q15 22 34 34l6 9l9 15q9 16 12 25l28 55l9 18l12 21q18 43 33 67l28 83l6 43v15q3 9 6 30l3 28v21q3 9 6 31v21l9 76v378
l-9 43l-3 6l-3 12q0 13 -6 31l-3 27l-3 19l-34 100q-45 46 -64 98l-15 12l-9 12q-34 28 -52 52l-18 9l-34 19l-9 3q-15 9 -24 12l-138 67l-12 3l-110 34q-36 6 -61 15h-228zM607 1558l37 -18l9 -7q24 -9 39 -21l10 -3l9 -6l24 -9l9 -6q31 -16 40 -19l21 -12q16 -21 31 -30
l3 -6l27 -25q19 -24 40 -39l9 -13l9 -15q19 -43 34 -67q3 -9 6 -12l3 -9l18 -34l3 -9q9 -15 13 -25l12 -21v-512q0 -6 -3 -22l-6 -18l-3 -12l-7 -22v-9l-12 -45l-15 -28l-3 -9l-34 -64q-6 -18 -15 -31l-58 -58l-9 -12l-12 -9l-70 -70l-19 -9l-15 -6l-9 -6l-18 -10l-77 -24
l-21 -9h-171q-49 -9 -70 21l-3 348q0 15 -3 24v260l-3 21l-3 461l-3 21v143q3 43 -3 70l12 7l58 15h189z" />
    <glyph glyph-name="e" unicode="e" horiz-adv-x="1243" 
d="M449 1737q-96 -21 -156 -84q-66 -27 -108 -75l-23 -51q-18 -30 -39 -45l-9 -18q-9 -20 -18 -32l-6 -21q-15 -33 -21 -54l-3 -15l-3 -12l-6 -12v-9l-9 -27q0 -6 -3 -21l-9 -27q-3 -24 -9 -39q0 -21 -3 -24l-3 -27l-3 -21l-3 -17v-21l-12 -75q0 -24 -3 -42v-428q3 -9 6 -24
l3 -15v-12l3 -18l6 -21q0 -12 3 -30l3 -23l3 -21l15 -30l6 -9l51 -102l3 -9q9 -15 12 -24l12 -21l110 -110q30 -12 48 -22.5t33 -13.5l66 -24l12 -3l15 -3q24 0 51 -9l21 -3l21 -3q32 -3 53 -9h246l21 3q47 9 74 9v24l-6 21v9l-3 24l-3 20l-12 12l-14 6h-15q-21 6 -39 6
l-12 3l-21 3l-33 3l-42 6h-9l-33 3l-9 3q-24 0 -39 6l-149 60l-111 111l-12 21q-6 18 -15 30l-3 9q-6 15 -12 24q-6 18 -15 29l-18 45q-3 15 -9 24l-9 36l-3 15l-3 30v33q0 6 -3 21q0 21 -3 36v33l-3 21q-3 50 0 65l252 18l18 3l17 3l24 3q18 3 30 3l42 6l18 3q15 0 24 3
l48 3l9 6l54 27l15 15q9 51 -15 84h-57l-9 3h-81l-21 3h-87q-35 6 -59 3h-48l-12 3h-87l-21 3h-54v24l3 33l3 6v21l3 6q0 21 3 36v29q12 30 15 49.5t9 31.5v9l36 114q0 6 6 21l30 60q6 9 12 12l132 131l215 9q24 0 42 3l90 3v162q-39 12 -72 12h-290z" />
    <glyph glyph-name="f" unicode="f" horiz-adv-x="1051" 
d="M808 1740h-148l-23 -3l-343 -3l-14 -3h-151l-69 -72v-156l5 -12q9 -22 17 -36l3 -11l25 -70l3 -25v-539l5 -28l6 -11q17 -44 19 -75v-695q28 -25 42 -45h11q51 -14 84 -11v8l6 20q0 11 2 28l3 22l3 20l3 192l3 20v117l2 8v129q0 14 3 22v154l3 22v59q50 19 92 22l14 3
l20 3l19 2q31 3 70 12l70 5q25 6 44 6l56 2l14 3l56 3l19 3l73 3l31 2l19 3l81 3l14 14v73q6 39 -14 64h-181q-23 3 -42 -3l-248 -6q-20 0 -34 -2l-140 -3l-2 17v50l2 17v61l3 31l9 382l19 17l39 5l14 3l28 6h11l39 8q17 0 31 3l22 3l6 2h17l33 6q17 0 20 3h19q31 8 51 5
q22 6 36 6l19 3h20l11 3h17l8 2q14 0 39 6l39 6l31 2q22 6 39 6l9 3q30 2 50 8l11 11v9l5 22v8q6 28 6 51h-215z" />
    <glyph glyph-name="g" unicode="g" horiz-adv-x="1697" 
d="M820 1726h-19l-10 -4l-73 -9l-9 -3q-26 0 -45 -3l-32 -13q-6 0 -19 -7l-51 -15q-25 -10 -41 -19l-9 -7l-42 -19l-22 -13l-9 -3l-35 -19l-19 -9l-29 -13l-29 -32q-85 -73 -124 -156l-28 -28l-6 -10l-13 -31l-13 -19l-3 -10l-38 -79l-7 -10l-6 -16q-16 -28 -25 -63l-3 -13
l-4 -19q-12 -38 -22 -92l-3 -16l-13 -54v-10l-9 -38v-314l12 -42v-9l10 -26q3 -28 13 -50l3 -13l13 -35q0 -6 3 -12.5t6 -22.5l70 -143l35 -32l16 -70l54 -12q28 -13 41 -32l19 -13l35 -16q19 -9 22 -12l10 -4l19 -9l35 -19l22 -7l13 -6l60 -19h508l16 -16l35 -70l3 -12
l4 -13l3 -16l3 -13l6 -32l7 -19l3 -12l3 -19l16 -61h140l-3 10l-7 165q0 19 -3 32l-3 149l-3 19q0 22 -3 38v35l-4 7l-3 85l-3 16l-3 64l-3 22v16q0 25 -4 44v29l-3 10v41l-3 6l-3 86l-16 16l-44 6l-19 3l-29 4l-48 3l-3 -16q-9 -22 -9 -41q-7 -20 -10 -45l-6 -32
q-4 -19 -4 -31q-3 -20 -6 -23l-3 -19q-3 -38 -10 -63q-9 -7 -12 -13l-57 -57l-7 -3q-19 -26 -38 -42l-22 -6q-45 -19 -76 -25l-19 -4h-197q-83 -9 -143 32q-99 32 -128 121l-34 32l-32 95v413l25 95l10 35l35 70l3 10q9 15 13 25l12 22l3 10l13 22l3 10l19 35l10 6
q13 16 22 22q19 45 35 70l181 181l16 19l22 19l70 35l10 3q16 10 25 13l22 13h204q82 -38 130 -102h140l6 3l60 16q26 111 0 203l-69 20q-10 0 -13 3q-10 0 -13 3h-9l-26 6q-38 13 -66 16h-274z" />
    <glyph glyph-name="h" unicode="h" horiz-adv-x="2061" 
d="M50 1687v-109l100 -100v-178q3 -19 3 -32v-226q7 -33 3 -55l7 -849l3 -13v-146h32l23 4q52 9 81 9l19 17q10 16 13 25l19 36l4 10l3 74l3 10l3 109l3 10l4 107l3 22l3 45v58l3 10l4 116l3 13l3 75l19 16l159 32l210 6l22 4h74q26 0 46 3h106l10 3h68q25 3 48 -3l3 -23
l3 -22l4 -75q0 -9 3 -13l13 -351l3 -10v-97q3 -19 3 -32v-84q7 -20 4 -39q113 -39 158 3q16 33 19 42l13 23l6 284l4 19l3 236q0 26 3 45v97l10 3l22 4l23 3l23 3l22 3l36 3q19 17 22 39l4 58l3 26q6 42 3 68h-58q-45 -3 -74 3l3 91l3 19l3 106q0 20 4 33l3 122l3 13l16 55
l3 13l20 78l3 6l26 81l3 13v13q10 42 10 71l-23 -4l-58 -6q-139 3 -245 -58v-10q0 -39 -4 -64v-46q-3 -61 -3 -100v-64q-6 -20 -3 -39v-87l-3 -13v-123l-3 -9v-42q0 -29 -4 -52h-775l-3 19v16l3 23v68l4 26v67l3 23v61l3 23v94l3 16l7 148l3 10v29q7 23 3 42q7 29 4 52
l-42 9l-17 4h-287z" />
    <glyph glyph-name="i" unicode="i" horiz-adv-x="596" 
d="M73 1692l-73 -73v-171q34 -24 30 -58v-60l4 -22v-88l3 -6l3 -198q6 -37 3 -61l3 -141q0 -15 3 -24v-100l3 -22v-67l3 -39v-64q-3 -25 3 -46v-110l3 -21v-67q3 -9 3 -28q6 -27 6 -48l3 -16l3 -27l3 -43l3 -12q3 -18 6 -49l3 -55q22 -24 49 -18h73q19 28 22 55l9 21v9l3 19
q9 24 9 45v10q0 15 3 24v113l3 9l3 235l3 21l3 235l3 24v104q0 9 3 12v125l3 18l10 451q0 40 6 67v15l3 34l3 42v68l-34 9l-134 3z" />
    <glyph glyph-name="j" unicode="j" horiz-adv-x="887" 
d="M503 1742q-23 -13 -39 -19l-28 -20l-64 -64v-91l11 -9l-3 -5q31 -20 50 -45l6 -19l2 -20l20 -69v-1100q-6 -11 -8 -22q-14 -37 -20 -62l-5 -8l-14 -31l-6 -8l-33 -70l-103 -103l-59 -2l-16 -3h-28l-17 -3h-33l-9 -3l-97 -2q0 -120 81 -193q114 -8 203 39q22 9 36 17
q25 28 50 42l39 17l3 5q44 42 64 89l3 6l36 39l28 55l8 23l17 30l14 42q11 25 14 45l19 64q3 30 11 50l3 11l3 36l3 20q8 44 8 69l3 20q8 44 8 69v1008q0 20 -3 33v37l-3 16v20l-2 11q0 42 -6 70h-36z" />
    <glyph glyph-name="k" unicode="k" horiz-adv-x="1633" 
d="M10 1645q-9 -118 31 -211v-102l3 -25l3 -251l4 -9v-112l3 -25v-83q-3 -25 3 -47v-118l3 -21v-127q6 -41 3 -69v-77q6 -34 3 -59l3 -211q0 -25 3 -43v-93l13 -12h108l47 46v56l3 12l9 478q0 24 3 43v93q161 -6 251 -133l502 -502q25 -25 47 -41q118 -49 223 3
q65 16 109 56v9q15 56 12 93l-16 3l-52 16l-13 3l-77 25l-9 9q-22 22 -53 40l-37 16q-47 46 -100 68l-31 31l-12 9l-71 72l-10 9l-24 25l-13 15q-18 16 -28 28q-24 19 -37 37q-15 10 -25 13q-15 9 -24 12l-22 13l-130 130l-62 15l3 28l3 16l3 25l3 21q50 62 112 84
q24 18 37 34l254 254q9 13 17 20.5t23 23.5l13 9l71 74q31 25 47 47l9 3l68 34q62 37 121 43l-3 10q-3 18 -3 31q-10 37 -10 62q-93 102 -220 80l-18 -9l-34 -19l-10 -3l-610 -610q-10 -7 -13 -13l-99 -99l-59 -16q-3 10 0 16l6 155l4 40v62l3 10v65l9 52l3 19v19l6 24v10
l6 34v9q4 37 10 62v180q-25 56 -65 93l-13 15h-139q-53 -46 -78 -102z" />
    <glyph glyph-name="l" unicode="l" horiz-adv-x="1532" 
d="M91 1714l-9 -6q-15 -9 -24 -12q-30 -15 -48 -30v-211l6 -18q0 -6 6 -21q6 -35 15 -59l3 -1143q-36 -54 -30 -108q12 -77 66 -122l24 -6h89q36 21 63 30h550l66 -30h104l18 21l3 9q9 15 12 24l12 21l3 39v14l3 33l3 9l3 45v53l-9 -3l-21 -3q-18 0 -21 -3h-21
q-30 -6 -54 -6l-53 -29l-9 -3l-134 -3l-21 -3l-372 -9q-42 -3 -68 3l3 65l3 12v51l2 27l6 720q6 27 3 48l3 9l3 86l3 9l3 89l3 18l3 83l3 15v33l3 12l3 101q6 18 3 30v131q-9 9 -21 12h-157z" />
    <glyph glyph-name="m" unicode="m" horiz-adv-x="2427" 
d="M1833 1744l-16 -19q-38 -34 -60 -66l-9 -19l-16 -35l-19 -34l-3 -10l-38 -79q-3 -6 -16 -18q-16 -13 -25 -26l-25 -50l-4 -10q-41 -37 -59 -82l-4 -9l-34 -69l-13 -16l-25 -29l-29 -60q-9 -15 -12 -25l-19 -38l-47 -56l-7 -16l-16 -32q-15 -28 -22 -47l-6 -6
q-6 -19 -22 -32q-35 -41 -50 -85q-38 -28 -79 -32l-7 10v9l-15 51l-32 31l-3 10l-25 50l-13 16q-41 41 -57 88q-41 38 -56 82q-19 35 -45 54l-19 35l-3 9l-9 19l-32 63q-19 25 -38 41l-28 60l-38 38q-12 31 -25 50l-13 29l-6 9l-54 107l-3 10q-9 16 -12 25l-26 54l-9 50
h-271l3 -12q3 -32 9 -54l3 -28v-278q-3 -31 -9 -54l-6 -44l-3 -15l-4 -16q-6 -29 -6 -51l-3 -12l-6 -19q-4 -25 -16 -63v-10l-10 -31v-10q-9 -28 -12 -50l-10 -54l-6 -19l-6 -44l-3 -19q-10 -25 -10 -47l-6 -19q0 -13 -7 -32q0 -19 -6 -31q0 -16 -9 -44l-3 -22l-23 -79
l-3 -19l-19 -70l-3 -22l-22 -79l-3 -22l-9 -31l-4 -19l-15 -41l-10 -35q-9 -22 -12 -38l-4 -9q-9 -22 -12 -41l-7 -13q-12 -38 -15 -66v-9l-3 -16q-10 -51 -7 -85h3l16 -3l16 -4q16 0 41 -6l35 -3l41 -6h22q12 -4 34 -4q32 -6 57 -3l-3 22l-3 19l-6 38v10q-7 34 -4 60v18
l10 41v13q6 19 9 47q3 13 7 32l3 28l3 19l3 22l6 26q0 9 7 25l3 22l22 113l3 16l3 22l7 44q6 19 6 35l6 32l3 12l3 16v13l7 25q0 19 6 31v10l3 19l13 57l3 19l3 18q3 32 13 73l3 22l3 16l3 22q7 25 7 44l3 13l6 19q3 28 9 50l10 44q0 7 3 22q13 44 16 73q38 6 69 -13
q22 -22 32 -47l16 -32q47 -47 66 -101q44 -41 63 -91q16 -22 31 -35l10 -9q25 -60 63 -98l6 -13q29 -59 67 -94q22 -60 63 -95l15 -31q4 -10 7 -13q3 -9 6 -13l9 -19l67 -132q15 -44 44 -73h135q23 26 29 48l3 12l9 22q0 7 7 19l9 29l3 12l7 26q12 28 15 47l19 35l4 9l9 19
l32 63q15 25 34 38q10 13 13 25q22 44 31 57q19 16 38 50l10 19l9 19q10 16 13 26l22 44q22 19 44 53l13 29l53 69l3 10l10 18l9 19l32 63l16 16q6 10 22 25l9 19l22 45q38 28 79 31l3 -9l3 -26l4 -6q3 -35 9 -57v-12q6 -22 6 -41q7 -22 10 -44l3 -23l3 -18l10 -60l3 -19
l3 -19l6 -22l3 -16l13 -69l3 -13l3 -19q10 -28 13 -50v-13q6 -19 6 -35l19 -91q0 -10 6 -32l4 -19l6 -41l16 -88l3 -16l3 -22l3 -31l13 -79l3 -10l6 -44q0 -9 3 -13v-9l16 -107l3 -13v-19l3 -12l7 -41v-19l6 -32l3 -41l3 -22q0 -22 4 -57h34q10 3 29 7h19l6 3l50 3l7 6
q44 16 72 41v221l-9 41q-13 35 -16 60l-25 120q-3 19 -7 22v9l-3 22l-31 123l-3 7l-19 75q-4 26 -10 45l-9 41l-7 28q-3 32 -9 50q-3 13 -6 35l-4 22l-3 19l-3 19l-12 66q-4 10 -5.5 18l-3 15.5t-4.5 26.5q0 19 -6 32q0 16 -7 41l-3 12v13q-6 19 -9 47q-3 19 -7 22l-3 22
l-16 149l-3 22q0 25 -6 66q0 25 -3 44l-3 41v22l-3 13q0 47 -7 79q-104 60 -221 44z" />
    <glyph glyph-name="n" unicode="n" horiz-adv-x="1910" 
d="M0 1630v-74l19 -16l18 -12q96 -34 158 -102q15 -31 18 -40l13 -22v-479l-3 -7v-46l-3 -19v-34q-4 -18 -4 -30q0 -25 -3 -44v-31q-3 -37 -3 -62l-3 -15v-31q-3 -25 -3 -40v-22q-3 -34 -3 -55l-3 -41v-34l-3 -21v-56l-28 -83q0 -7 -6 -22q-6 -19 -16 -31l-3 -9l-46 -90v-74
q9 -6 12 -13h149l24 10q28 12 50 15l28 19v55q6 37 3 62l6 548l3 9l3 473l62 -15l408 -409l6 -9q7 -15 13 -25l15 -34l133 -130q22 -18 50 -52l15 -16q9 -9 25 -21q18 -25 37 -37l6 -10l6 -15q16 -28 22 -46q22 -16 34 -31l15 -34l7 -10l9 -18l37 -78l9 -30l7 -13l15 -49
l15 -13h133l38 37q34 25 46 59v68l3 16v58l3 34v62l3 10v74l3 9l3 158l3 18l7 260q6 25 3 43l3 93q3 31 9 53l3 31l3 15q0 25 6 40l10 68v16l3 9q3 25 9 43q0 10 3 13v12l6 19q4 27 10 49v186q-6 12 -13 18l-195 -3l-12 -3h-12l-78 -9l4 -34v-34l3 -13l6 -123l3 -7v-770
l-3 -9q-6 -34 -16 -55q-58 12 -96 49l-3 6q-74 62 -108 139l-229 232l-21 37q-13 28 -31 47l-112 111q-18 43 -37 68q-18 19 -28 31l-15 16l-12 9l-7 9l-12 12l-9 7l-13 15l-12 12q-25 19 -37 34l-6 7q-16 21 -22 40l-18 34l-127 127l-6 9l-10 18l-21 44l-44 43h-173z" />
    <glyph glyph-name="o" unicode="o" horiz-adv-x="1807" 
d="M602 1595l-6 -3l-23 -4l-19 -3q-29 -10 -52 -10l-10 -3l-26 -16l-19 -6l-26 -17l-58 -25l-158 -159q-4 -9 -7 -13q-9 -26 -19 -42l-16 -32q-10 -19 -13 -23l-3 -9q-20 -36 -23 -46l-13 -22q-3 -10 -6 -13l-4 -13l-9 -23l-23 -71q0 -19 -6 -32v-10l-7 -19q0 -13 -6 -32
q0 -20 -7 -33l-3 -29v-310l3 -10l7 -35l3 -10q3 -26 10 -42l6 -45l3 -13q10 -23 13 -39l13 -32l3 -13l4 -13l6 -10l16 -35l7 -10l38 -81l91 -90l10 -3l22 -10q16 -13 32 -16l33 -36q136 -71 271 -65h155l13 4l13 3q32 10 55 13l49 13l25 16l20 6l6 7l20 10l58 25l39 39
q90 36 116 117q84 71 100 164l3 10l10 16l26 52v13q3 6 6 22l4 23l3 16l3 20l3 29q4 29 10 48l-3 356l-3 9l-4 20l-3 29l-3 19l-3 16v13q-10 49 -10 81l-26 74l-3 13l-10 26l-26 45l-6 20l-33 64l-12 13l-10 7q-13 13 -20 22l-42 42l-64 33q-16 9 -26 13l-52 25l-16 4
q-32 9 -55 13l-48 13h-243q-25 -10 -45 -10zM838 1404l23 -13l9 -3l36 -19q10 -7 13 -13q10 -7 13 -13l13 -10l16 -19l22 -20l4 -6l77 -74q3 -10 7 -13l51 -133l10 -22v-517q-16 -23 -23 -39q-3 -10 -6 -13q-3 -10 -6 -13l-4 -10l-16 -29l-3 -10l-19 -35l-10 -20l-13 -29
q-10 -6 -19 -19l-20 -13q-32 -13 -52 -26q-22 -26 -64 -48l-36 -20l-239 -3q-39 26 -68 36q-19 26 -35 38l-26 26l-10 7l-87 90q-3 10 -6 13l-17 36q-9 19 -13 22q-6 20 -16 33q-6 19 -16 32l-6 23l-17 51l-9 23v378q29 123 103 204q20 45 36 71l13 9l16 20l16 16l19 10
l52 25l10 7l19 10q26 9 42 22h236z" />
    <glyph glyph-name="p" unicode="p" horiz-adv-x="1433" 
d="M258 1711l-36 -15l-12 -3l-12 -3l-75 -24q-42 -45 -93 -63q-15 -15 -21 -33q0 -21 -6 -54q-3 -36 -3 -60h57l6 -6q3 -30 9 -51q0 -15 3 -24v-1379l-15 -93h33l21 3q48 9 75 9l48 48l3 12l3 12q9 30 12 51l12 45l3 24l6 330l3 24v108q3 18 3 31v81l3 21l3 231l3 33v111
l3 21l3 271l3 9v78q48 54 112 81h183l51 -51q12 -30 24 -48l36 -75v-256l-30 -60l-81 -81l-51 -27l-63 -21q-18 -9 -33 -12q-51 -15 -72 -18v-99q18 -3 30 -9q24 -6 42 -6h216q42 39 54 57l33 33l12 9l69 69l18 33q24 45 51 72v9l24 108l3 21v220l-24 72l-3 12l-6 9
q-6 18 -15 30l-3 9l-18 33l-3 9q-9 15 -12 24l-12 21q-204 117 -417 102h-112q-18 -9 -45 -15z" />
    <glyph glyph-name="q" unicode="q" horiz-adv-x="1661" 
d="M601 1736h-9l-13 -5l-19 -3q-18 -8 -35 -8l-59 -29l-8 -6l-29 -13l-8 -5l-67 -33l-8 -8q-3 -5 -16 -16l-27 -29l-46 -43l-32 -62l-62 -64q-204 -400 -21 -762q21 -16 32 -32l3 -8l21 -43l59 -59l22 -46l10 -13q19 -22 35 -35l30 -32q37 -16 59 -30l83 -83l13 -8l41 -19
l34 -32l8 -3l38 -18q13 -8 21 -11l54 -27l22 -5q24 -11 40 -15t27 -12l8 -3l13 -8l11 -3l13 -8l43 -21l8 -5q6 0 16 -6l24 -8q30 -11 49 -13l27 -16q8 -3 10 -6q8 -2 11 -5l19 -5l48 -17l11 -5l86 -27l21 -8l19 -8l72 -21l11 -3q27 -8 46 -11l72 -21q35 -14 59 -19l35 -11
q8 0 11 -2l29 -6q24 -8 65 -13q5 -3 18 -6l19 -2l14 -3q29 -3 48 -8h11q34 -5 59 -3h91l48 25l8 5l51 24l73 72l2 14q8 43 8 72l-19 -2l-18 -3l-67 -8h-405l-22 8q-19 3 -32 8q-19 3 -32 8q-22 3 -38 8l-75 27l-11 3l-77 26l-11 3l-67 22l-8 5q-75 35 -97 48q-16 8 -40 16
l-19 6l-5 2l-43 14l-16 10l-8 3q-24 14 -30 22q-19 16 -32 24l-8 5q-16 6 -27 14l-16 8l-40 18q-22 14 -35 30q-16 11 -30 16q-21 11 -34 21l-19 19l-8 6q-41 18 -65 37l-10 14l-11 10l-5 3l-180 180l-14 13l-37 38l-6 13q-5 8 -13 24l-19 40l-5 8l-46 92l-2 8q-8 13 -11 21
l-11 19v255l11 27l3 10q10 27 13 46l32 32q27 65 73 99q59 76 136 110l30 30q99 40 193 29h89q26 -16 34 -18l14 -8q11 -3 27 -14q32 -13 51 -29l26 -57q38 -37 51 -86v-8q8 -16 8 -32v-303l-8 -21v-8l-5 -22q-11 -32 -13 -56l-14 -24q-19 -43 -48 -67l-3 -8l-8 -19
q-10 -14 -13 -27l-6 -3l-85 -88q-16 -14 -27 -27l-8 -8l-6 -3q-13 -8 -24 -11q-16 -10 -29 -16l-14 -13v-62l16 -13h169l183 182l5 8l27 54q19 13 30 29q120 218 112 438v102l-5 8l-30 86q0 8 -2 10l-19 62l-8 11q-16 13 -24 24q-27 59 -70 96q-51 22 -83 57l-11 2
q-29 14 -48 17l-11 5l-16 3l-16 5h-11l-16 5h-8l-30 8l-16 3l-32 5h-201z" />
    <glyph glyph-name="r" unicode="r" horiz-adv-x="1923" 
d="M393 1722l-105 -35q-17 -3 -29 -9l-17 -6l-32 -9h-9l-18 -2l-23 -3l-20 -3v-32q3 -9 6 -27v-17l2 -6l3 -46q38 -30 61 -67v-1200l-5 -14q0 -9 -3 -12v-9q-18 -52 -21 -87v-87l18 -18l17 -5l12 -3l20 -9l53 -15q17 0 20 -3h20q47 -8 73 -8q0 23 -3 40v44l-3 9l-5 154
q0 23 -3 41l3 399l3 8v18l2 11q0 44 9 73l41 -8l23 -9l12 -3l73 -23q20 -24 35 -35l32 -15l8 -6l79 -38l41 -37l20 -9l44 -23q46 -18 75 -50l18 -12q23 -8 38 -17q23 -15 35 -32l17 -12q44 -17 70 -43l38 -38l17 -12q24 -9 38 -17l20 -15l3 -6q18 -14 32 -23l47 -23l55 -56
l18 -11l52 -26l32 -32l6 -3q41 -15 70 -44l11 -12l44 -23q9 -3 12 -6l11 -6l27 -26q17 -8 29 -17l29 -12q41 -44 87 -61h79l58 29l26 29l12 9l6 9l14 11q15 18 44 44q6 47 -9 82l-12 5h-11l-41 9q-14 3 -17 6l-73 12l-9 5q-17 6 -29 15l-17 9l-15 5l-9 6q-41 18 -52 26l-6 9
q-15 9 -20 18q-56 23 -91 61l-32 17l-8 3l-47 23l-17 9q-27 15 -41 32l-9 9l-61 29q-23 26 -47 41q-52 23 -84 58l-32 15l-9 5l-73 35l-14 15q-38 32 -73 44q-23 17 -35 32l-8 5l-59 29q-40 41 -87 59q-26 29 -58 46l-9 3q-26 15 -47 21l-43 11q-6 53 6 90q358 94 317 463
l-47 123q-8 14 -11 26q-29 26 -44 46l-12 6q-20 15 -37 21l-6 2q-29 12 -47 24q-29 14 -49 20h-9l-23 6q-35 12 -62 14h-267zM690 1547l17 -20l6 -3l29 -32q18 -12 29 -27v-212l-14 -23q-9 -24 -18 -38l-78 -79l-18 -8l-116 -59q-58 -35 -114 -40v34q6 27 4.5 48.5t1.5 39.5
l3 105q0 23 3 40v44l3 9l3 58l3 12l3 11l3 12l17 73q20 26 52 55h181z" />
    <glyph glyph-name="s" unicode="s" horiz-adv-x="1109" 
d="M417 1727l-52 -15q-6 -8 -11 -11l-55 -55q-9 -6 -12 -12l-93 -93l-38 -78l-8 -17l-18 -32l-2 -9l-9 -17l-18 -32l-29 -87v-159q24 -56 27 -76l2 -6q9 -26 21 -43l3 -9l11 -20l29 -90l9 -17q11 -29 32 -64l8 -15l35 -75l12 -17q9 -23 17 -38l3 -9l12 -20l3 -9l17 -32l3 -8
q9 -18 11 -32l21 -58q17 -41 32 -64v-182q-12 -32 -15 -58l-20 -9l-46 -9l-200 6q-18 3 -47 6q-20 0 -52 3l3 -64l3 -9l6 -84l17 -14l17 -9l32 -17l87 -32h177q35 23 64 29l6 3q26 8 46 11l6 21q8 29 11 49l6 -3q6 9 20 23l9 12q12 29 23 46q3 17 6 20q3 18 9 32l6 32
q8 26 11 46v244l-9 40l-2 18l-6 20l-12 73l-6 8l-55 139q-3 12 -11 27q-12 28 -23 46l-3 14l-18 47l-3 11q-5 24 -17 41l-17 32l-32 98q-9 15 -12 23l-17 32v218l107 107l9 3l46 26q29 6 49 6l9 3l20 3l15 2l23 3l32 3l8 3q35 6 58 6l18 20v12q3 17 3 29l3 20l3 20l2 21v52
q-8 0 -23 3q-35 3 -58 8h-203z" />
    <glyph glyph-name="t" unicode="t" horiz-adv-x="1505" 
d="M1076 1740h-224l-23 -3l-548 -4l-17 -3h-198q-33 3 -56 -13v-119l7 -33q6 -16 6 -30l525 -3v-26q-3 -20 -3 -33v-145l-4 -27v-145q-3 -40 -3 -66v-145l-3 -10v-215l-3 -10v-504l6 -10l17 -37l6 -10l40 -82q138 -132 310 -116q129 -9 221 53q17 20 30 30l3 20q0 20 3 23
l10 82v20h-16l-23 3l-86 4l-17 3h-39q-10 0 -13 3h-56q-17 7 -30 4q-3 6 -10 11t-20 18q-20 23 -36 37l-56 56l3 996l3 23l7 129l3 7v39l4 20l13 3l26 4l83 6l23 4l56 3l10 3l53 4q9 0 29 3l27 3q39 0 66 7q26 0 47.5 1.5t57.5 8.5l66 3q27 36 53 53v10l7 26v10q6 33 6 59
h-330z" />
    <glyph glyph-name="u" unicode="u" horiz-adv-x="1582" 
d="M70 1702v-561l3 -22v-45l3 -19v-25l3 -13l3 -47v-38l4 -19v-26l3 -12l3 -70q0 -26 3 -45l3 -95l3 -16l4 -12l3 -35l9 -54v-10l7 -38l3 -16v-12q3 -35 9 -54l7 -35l9 -26v-9q10 -32 13 -54l19 -38q13 -22 19 -41l6 -7q13 -35 42 -69l9 -7l19 -9q26 -10 41 -22l7 -4
q16 -19 28 -28l10 -3l25 -16q19 -7 32 -16l19 -6l9 -7l38 -19l13 -3q19 -3 22 -6h10l28 -10q26 -3 42 -9h231l61 22q19 3 31 9l19 10l16 6l6 7l20 9l69 32l159 165l6 16l7 9l9 26l38 38l7 22l6 12l25 77l3 12l4 16l6 13l44 187l7 38l6 44l3 13l3 16v13l4 22l3 19q3 19 6 22
l3 22q3 23 5 35.5t5 34.5l3 22l3 19l6 38q0 26 7 42l3 28l3 16v19l6 35v13l4 19l6 50l3 26v22l3 13l10 79v222l-48 45h-203l-19 -16v-914l-9 -35l-7 -19q-3 -25 -12 -60l-10 -35l-9 -25l-10 -29l-16 -44v-10l-22 -66q-16 -23 -35 -35q-63 -134 -184 -188h-231q-19 13 -35 21
t-26 11q-22 13 -41 19l-35 19l-66 67q-77 63 -115 143q-3 19 -12 47l-7 22q-12 48 -15 80v698l9 28l3 13l3 13q4 19 7 22v9l6 22q3 19 13 45l25 73v108l-47 47l-13 10l-38 19l-10 3l-35 19q-19 6 -31 16h-83z" />
    <glyph glyph-name="v" unicode="v" horiz-adv-x="1846" 
d="M10 1727v-24l6 -22v-9l3 -25l4 -21l30 -31l9 -6q19 -24 40 -40l9 -12q31 -27 46 -49l40 -82l12 -19l19 -43l9 -18l34 -64l3 -10q18 -27 27 -49l120 -241q21 -49 39 -77l10 -21l9 -19l30 -95q10 -15 13 -24l18 -37q9 -15 12 -24l19 -34l36 -110l10 -16q6 -15 12 -24
l12 -22q12 -33 25 -52l39 -110l3 -12l28 -86l18 -34l3 -9l22 -46l15 -55q22 -36 55 -49q71 -30 135 -24l3 9q3 34 12 55l19 31l3 9q6 15 12 24l64 160l3 12l6 9l56 107l3 9q9 16 12 25q9 15 12 24l12 22l3 9q10 15 13 24q9 16 12 25l12 21l3 10l12 21l4 9q9 16 12 25l12 21
q6 15 12 25l9 24l7 6q27 74 73 120l92 183q40 40 55 77l52 104q6 9 15 28l59 119l6 9q27 61 40 80q3 9 6 12l15 34l6 9l9 18l9 19q10 24 22 43q9 61 -12 91h-233l-9 -12l-9 -24l-10 -43l-3 -12l-6 -34l-3 -12l-3 -22l-12 -46q-19 -43 -25 -70l-3 -9l-27 -49q-16 -34 -19 -43
l-30 -55l-9 -19l-10 -18l-12 -28q-9 -15 -12 -24l-25 -49l-6 -9l-27 -59q-16 -27 -22 -45l-21 -40l-16 -31l-9 -15l-3 -12l-30 -62q-7 -9 -16 -27l-36 -77q-13 -18 -16 -30q-21 -28 -40 -43l-3 -9l-18 -34l-3 -9l-9 -19l-34 -67v-9l-12 -46q-52 6 -83 40q-6 18 -15 30l-3 9
l-12 22l-4 9l-27 55l-3 12l-52 132l-19 34l-3 9q-9 15 -12 24l-18 34q-6 15 -12 25q-10 18 -13 30l-3 6l-24 80l-9 12l-16 34l-9 18l-24 49q-10 19 -13 31l-3 6l-24 77l-6 9q-13 30 -25 49l-24 67q-7 31 -19 52l-9 15l-18 43l-3 13l-43 122q-3 18 -9 31l-3 6l-10 27l-3 13
l-21 70l-12 9l-13 3h-303z" />
    <glyph glyph-name="w" unicode="w" horiz-adv-x="2614" 
d="M60 1601v-109l6 -9q12 -30 42 -69q21 -21 39 -66l27 -51q6 -16 12 -25l31 -93l9 -18l18 -33l3 -9q9 -15 12 -24l36 -73l9 -18l18 -33q3 -12 15 -33q21 -45 28.5 -76.5t22.5 -52.5l9 -18q15 -31 18 -43l6 -6q6 -21 15 -33q9 -21 12 -36l13 -27l3 -12l3 -12l12 -30
q9 -18 18 -30l9 -21q6 -28 15 -49q6 -27 12 -42l30 -63l9 -18v-9l9 -24q9 -21 12 -36q9 -19 12 -34l21 -69l3 -6l3 -18l3 -27l6 -33l3 -15v-21l3 -9l3 -15l3 -22l6 -60l15 -12h139l9 6q36 15 57 33l9 12l33 64q9 15 12 24l18 33l4 9l39 78q21 45 51 73l18 33q9 24 21 39
q6 3 18 15q24 36 36 63l3 9l33 33l3 9l15 24q9 25 31 49l18 15l24 24l3 6q21 33 30 60l48 48l18 3l15 3q36 9 60 9l6 -12l13 -54l6 -9q9 -21 24 -45l15 -33l27 -55l3 -9q9 -15 12 -24l12 -21l3 -12l24 -75q12 -24 21 -36l45 -127l3 -15l24 -96q3 -24 9 -39q3 -43 9 -67
l16 -6q24 -3 39 -9q9 0 27 -3l39 -6h18q9 0 12 -3q45 0 75 -6q0 9 3 12l3 21q0 18 3 21l6 76l12 18q10 24 19 39t12 24l24 48l9 30l6 9l9 37l54 111q12 30 24 48l24 48l9 18l9 19l21 39q12 30 24 48l28 54q3 6 4.5 12t10.5 21l39 76q15 39 45 63q9 15 12 24q9 15 12 24
q9 15 12 24l30 57l9 18q21 49 54 76l3 6l10 18q12 30 24 48q9 24 18 39l3 6l42 51l9 21l6 9l15 31q3 9 6 12l15 27l3 9l12 21l3 9l18 33v78l-12 12q-9 6 -12 12q-9 6 -12 13q-9 6 -12 12l-9 3q-15 9 -24 12l-21 12h-106q-12 -12 -18 -27q-18 -64 -21 -85l-3 -6
q-9 -45 -30 -72l-3 -9q-18 -39 -24 -66l-9 -34q-9 -15 -12 -24l-24 -48l-9 -18l-33 -63q-9 -24 -18 -39l-12 -24q-10 -15 -13 -24l-24 -43l-3 -9l-12 -21l-6 -18q-12 -18 -27 -51q-33 -30 -48 -63l-9 -18l-9 -18l-9 -19l-12 -27l-6 -9l-21 -45l-6 -9l-52 -102l-3 -9
q-9 -15 -12 -24l-27 -55q-9 -15 -10.5 -24t-4.5 -12q-3 -45 -12 -75l-60 3q-15 57 -33 96l-63 124l-9 18l-9 15q-13 33 -34 75q-15 39 -18 57q-9 19 -12 34l-9 15l-24 48l-3 15l-30 81q0 9 -3 12l-6 21l-3 6l-15 49l-3 24l-3 15v12l-9 75q-18 3 -25.5 4.5t-10.5 4.5l-15 3
l-12 3l-15 3l-40 3q-48 9 -75 9l-6 -15q0 -9 -3 -12v-9l-12 -33v-9l-21 -63q-15 -33 -39 -49q-6 -15 -12 -24l-15 -33l-9 -18l-24 -48q-10 -15 -13 -24l-18 -33l-3 -9q-24 -24 -51 -67q-12 -30 -30 -48l-21 -24l-21 -39q-18 -33 -39 -51q-21 -51 -58 -85l-6 -6
q-24 -60 -63 -99l-3 -6q-6 -33 -15 -54h-57l-6 18q-6 33 -16.5 52.5t-13.5 34.5l-6 6l-121 277l-9 18l-9 18l-30 91l-9 18l-18 33l-45 127q-6 15 -12 24q-9 21 -18 48l-94 283q-9 18 -12 33q-9 24 -12 42l-9 21q0 6 -6 18l-15 49l-3 15v21l-3 9v21l-3 15q0 36 -6 58.5
t-33 13.5q-154 -9 -238 -120z" />
    <glyph glyph-name="x" unicode="x" horiz-adv-x="1588" 
d="M78 1656v-134l6 -3l57 -60q28 -25 44 -47q15 -40 37 -65l119 -119l6 -10l32 -62l6 -6q15 -13 25 -25q15 -13 31 -29q3 -6 19 -21l16 -16l62 -60l41 -78l59 -59v-66q-65 -56 -94 -125q-3 -6 -15 -16q-16 -22 -35 -34l-50 -50l-12 -22l-3 -9l-19 -35q-10 -15 -25 -28
l-72 -72l-19 -31q-9 -25 -22 -44l-44 -41q-12 -18 -28 -28l-15 -19l-72 -72q-10 -15 -13 -25q-9 -15 -12 -25l-13 -22q-16 -9 -28 -28q-22 -15 -34 -31v-9q-16 -57 -13 -94l25 -3q19 -7 36 -8.5t30 -1.5h178l13 16l12 22q19 44 34 69l10 22l9 15q16 47 41 75l16 16l12 16
l9 15q4 13 16 38q22 28 41 44q15 43 40 72q7 9 22 21l35 69l15 16q57 56 82 116l15 18l7 4q9 12 22 21q21 25 37 38l69 -3l12 -16l7 -3l9 -12q31 -25 47 -47q22 -35 31 -60l7 -9l87 -88l41 -72l9 -9q10 -16 19 -22l41 -41q22 -59 62 -94l60 -115l9 -19q9 -16 19 -22
q15 -16 25 -31q9 -32 25 -50l19 -10h100q84 122 75 251l-225 225l-19 31q-10 35 -31 53l-188 188q-22 19 -35 38l-25 53l-9 9l-31 31l-3 7q-16 9 -25 22q-7 56 15 97l13 25l106 109l9 22l7 9q9 25 34 54q25 18 50 46q25 25 38 44q12 38 31 60l41 40q6 10 12 13l60 59
q9 7 12 13l100 100l3 16l4 40q9 50 9 78h-266l-16 -56l-31 -69l-41 -47l-28 -56l-34 -37l-3 -7q-25 -59 -66 -94l-6 -15q-16 -28 -22 -47l-10 -10l-59 -59q-22 -50 -47 -78h-25q-47 -3 -78 3q-28 34 -41 75q-94 78 -131 169q-10 6 -13 9l-9 10l-16 19l-62 59l-3 9l-26 50
q-21 29 -40 44l-16 35l-6 9l-38 78q-18 25 -37 41l-13 56q-12 10 -28 6q-122 -15 -194 -97z" />
    <glyph glyph-name="y" unicode="y" horiz-adv-x="1563" 
d="M206 1730h-30q-36 -9 -60 -6l-109 -108v-109l9 -15q22 -48 55 -78l3 -6q9 -25 18 -37q3 -9 6 -12q6 -9 9 -12l93 -96l3 -9l24 -49l64 -63l21 -42q9 -15 12 -24q42 -36 57 -85q9 -15 18 -21l52 -51l12 -21l15 -33q15 -21 30 -36q21 -25 27 -49l12 -21l30 -30l37 -69
q42 -46 60 -91v-253q-6 -6 -9 -13.5t-6 -10.5l-9 -24q-12 -19 -18 -34l-12 -21l-3 -9l-10 -18l-30 -60q-15 -12 -18 -18l-96 -97l-6 -3q-43 -15 -70 -39q-9 -66 30 -103l10 -6l45 -45q30 -12 48 -24h112q30 27 45 48l18 34l3 9l9 18l12 21l3 9l18 33l57 175l10 21l63 160
l3 12l3 12l30 84l9 18q18 28 24 49l12 21q18 42 33 66l3 9l10 18l39 76l3 9l78 157l6 9l15 33l6 9l39 81q28 24 43 49l9 18l9 18l9 18l9 21l36 72q9 24 18 37l15 27l3 9l27 57l6 9l37 75l36 40l3 6q24 51 57 84v106l-12 12l-54 27l-9 6l-33 3l-28 3h-24l-12 3l-45 3
q-21 0 -54 3l-3 -27l-3 -33l-3 -33v-34l-3 -15q0 -36 -6 -60l-12 -30q0 -6 -6 -18l-16 -49q-9 -15 -12 -24l-21 -39l-15 -33q-9 -15 -12 -24l-36 -73q-9 -15 -12 -24q-9 -15 -12 -24q-9 -15 -12 -24l-45 -90l-6 -9l-22 -46l-6 -9l-9 -18q-6 -18 -15 -30l-3 -9l-12 -21l-3 -9
l-18 -33l-15 -34q-3 -33 -15 -54l-91 3v9l-12 39q0 9 -6 22l-15 30q-15 24 -21 45l-21 39l-12 15l-18 18l-12 18q-12 31 -24 49l-55 54q-27 42 -39 72l-33 33l-12 22q-6 18 -15 30l-3 6l-48 63l-6 18l-6 9l-37 76q-57 60 -81 132l-12 18q-6 25 -6 43l-3 9l-3 39l-3 21
q0 21 -3 54h-39z" />
    <glyph glyph-name="z" unicode="z" horiz-adv-x="1724" 
d="M329 1728l-4 -13l-3 -15l-3 -13l-3 -13l-3 -28v-29l-3 -9v-22l-3 -10l-4 -44v-38l-3 -19l932 -3l-3 -9q-7 -38 -19 -60q-22 -19 -35 -35l-25 -22q-13 -19 -29 -29l-6 -9q-22 -19 -35 -35l-3 -9l-28 -54l-164 -164l-19 -35q-10 -25 -23 -41l-78 -79q-7 -9 -13 -13
l-104 -101l-38 -72l-44 -45q-10 -6 -13 -12q-10 -6 -13 -13q-9 -6 -12 -12l-139 -139l-22 -35q-13 -32 -32 -54l-60 -60l-16 -16l-16 -15q-41 -45 -60 -60q-25 -60 -63 -98q-12 -101 29 -171l22 -16l1532 13l3 13l19 69q0 6 3 22l6 25q13 38 16 67v113l-13 13h-60
q-19 -3 -31 -13q-10 -3 -13 -6l-9 -3l-35 -19l-10 -3q-15 -10 -25 -13l-22 -12h-13l-19 -7h-12l-19 -6h-10l-34 -9l-19 -4l-38 -6l-471 -9q-22 0 -38 -4h-126q-25 4 -47 -3h-146l-3 13l6 25q4 38 13 63l32 32q25 66 75 107l51 51q25 41 35 66l3 6l151 152q32 38 48 79l6 6
q25 22 38 41l73 70q19 25 34 38q16 19 32 28l152 152l34 69l16 16q10 6 13 13l240 240q16 31 19 41l12 22v136l-19 19l-271 6l-10 3l-186 3l-9 3l-402 10q-19 6 -31 3h-79q-35 6 -60 3q-13 0 -32 7q-15 9 -25 12l-22 13l-10 3q-18 3 -31 3q-32 6 -54 6q-25 7 -47 4z" />
    <glyph glyph-name="braceleft" unicode="{" horiz-adv-x="684" 
d="M493 1801l-35 -3l-44 -3l-69 -3l-6 -3q-16 -10 -25 -13l-41 -25l-53 -47l-7 -19l-3 -13l-25 -78v-10q0 -37 -6 -84v-22l-3 -35l-3 -53v-22l-3 -10q0 -37 -4 -87l-3 -13v-19q0 -28 -3 -69l-3 -25v-31q-3 -38 -3 -63l-3 -10l-32 -66l-12 -12l-35 -13l-15 -3q-35 -3 -57 -9
v-142l19 -3l16 -3q37 -9 62 -9l19 -19l19 -35l19 -37v-38q0 -9 3 -12v-41l3 -25v-32l3 -6v-38l3 -19l4 -84l3 -10v-31l3 -22q-3 -35 3 -57v-47l3 -19v-44q6 -37 3 -62l7 -7l6 -15q15 -25 22 -47l15 -13q13 -16 32 -28l9 -10l25 -15q25 -10 38 -22h28l10 -3h28l9 -4
q19 0 32 -3l47 -3h56v138h-166l-6 10l-10 53l-3 22l-3 44l-3 22v22q0 9 -3 13l-3 78l-4 13v40l-3 10l-3 91q-6 31 -3 53q-6 19 -4.5 33t-1.5 24l-3 94q-41 88 -107 141v66q75 66 107 141v41l3 22l6 88q-3 31 3 53l10 182l3 16q0 25 3 44v25l3 16v28l3 13v12l3 22l3 16l4 22
l3 19l9 6h163v138h-47z" />
    <glyph glyph-name="bar" unicode="|" horiz-adv-x="532" 
 />
    <glyph glyph-name="braceright" unicode="}" horiz-adv-x="684" 
d="M0 1709q-3 -25 3 -47l35 -4l22 -3h19q10 0 13 -3q47 0 79 -6l19 -16v-25l3 -16l3 -45v-38l4 -19l3 -69l3 -19v-42l3 -25q0 -25 3 -44v-10q0 -22 4 -38v-41l3 -19l6 -114q13 -22 19 -41l6 -7l13 -25q25 -64 67 -102v-66l-32 -32q-29 -25 -44 -50l-19 -64q-10 -19 -10 -35
l-6 -63v-19l-7 -98l-3 -23v-41l-3 -19v-35l-3 -16v-28q-3 -19 -3 -32l-4 -41q0 -25 -3 -44v-32q-3 -38 -3 -63l-16 -16q-9 0 -12 -3h-10q-19 -4 -32 -4l-19 -3h-22l-16 -3q-38 0 -63 -6v-140l120 7l10 3l76 3l35 19q57 29 92 70l3 12l9 23l16 57l3 6l4 63l3 16q0 22 3 38
q0 38 3 67q0 19 3 31v42l3 6q-3 32 4 57l12 247l13 22q16 35 32 58l6 3l19 6l13 3l19 3q31 4 54 10v146h-10l-41 12q-54 10 -89 26l-22 212l-3 6q3 26 -3 48v35l-4 19l-3 79q0 10 -3 13v47l-3 13v13q0 19 -3 31v41l-3 7q3 32 -4 57l-3 16l-12 35v9q-13 29 -16 51
q-54 57 -117 85l-13 4l-54 3q-19 3 -48 6l-44 3h-57v-95z" />
    <glyph glyph-name="asciitilde" unicode="~" horiz-adv-x="1196" 
 />
    <glyph glyph-name="Adieresis" unicode="&#xc4;" horiz-adv-x="1366" 
 />
    <glyph glyph-name="Aring" unicode="&#xc5;" horiz-adv-x="1366" 
 />
    <glyph glyph-name="Ccedilla" unicode="&#xc7;" horiz-adv-x="1479" 
 />
    <glyph glyph-name="Eacute" unicode="&#xc9;" horiz-adv-x="1366" 
 />
    <glyph glyph-name="Ntilde" unicode="&#xd1;" horiz-adv-x="1479" 
 />
    <glyph glyph-name="Odieresis" unicode="&#xd6;" horiz-adv-x="1593" 
 />
    <glyph glyph-name="Udieresis" unicode="&#xdc;" horiz-adv-x="1479" 
 />
    <glyph glyph-name="aacute" unicode="&#xe1;" 
 />
    <glyph glyph-name="agrave" unicode="&#xe0;" 
 />
    <glyph glyph-name="acircumflex" unicode="&#xe2;" 
 />
    <glyph glyph-name="adieresis" unicode="&#xe4;" 
 />
    <glyph glyph-name="atilde" unicode="&#xe3;" 
 />
    <glyph glyph-name="aring" unicode="&#xe5;" 
 />
    <glyph glyph-name="ccedilla" unicode="&#xe7;" horiz-adv-x="1024" 
 />
    <glyph glyph-name="eacute" unicode="&#xe9;" 
 />
    <glyph glyph-name="egrave" unicode="&#xe8;" 
 />
    <glyph glyph-name="ecircumflex" unicode="&#xea;" 
 />
    <glyph glyph-name="edieresis" unicode="&#xeb;" 
 />
    <glyph glyph-name="iacute" unicode="&#xed;" horiz-adv-x="569" 
 />
    <glyph glyph-name="igrave" unicode="&#xec;" horiz-adv-x="569" 
 />
    <glyph glyph-name="icircumflex" unicode="&#xee;" horiz-adv-x="569" 
 />
    <glyph glyph-name="idieresis" unicode="&#xef;" horiz-adv-x="569" 
 />
    <glyph glyph-name="ntilde" unicode="&#xf1;" 
 />
    <glyph glyph-name="oacute" unicode="&#xf3;" 
 />
    <glyph glyph-name="ograve" unicode="&#xf2;" 
 />
    <glyph glyph-name="ocircumflex" unicode="&#xf4;" 
 />
    <glyph glyph-name="odieresis" unicode="&#xf6;" 
 />
    <glyph glyph-name="otilde" unicode="&#xf5;" 
 />
    <glyph glyph-name="uacute" unicode="&#xfa;" 
 />
    <glyph glyph-name="ugrave" unicode="&#xf9;" 
 />
    <glyph glyph-name="ucircumflex" unicode="&#xfb;" 
 />
    <glyph glyph-name="udieresis" unicode="&#xfc;" 
 />
    <glyph glyph-name="dagger" unicode="&#x2020;" 
 />
    <glyph glyph-name="degree" unicode="&#xb0;" horiz-adv-x="819" 
 />
    <glyph glyph-name="cent" unicode="&#xa2;" 
 />
    <glyph glyph-name="sterling" unicode="&#xa3;" 
 />
    <glyph glyph-name="section" unicode="&#xa7;" 
 />
    <glyph glyph-name="bullet" unicode="&#x2022;" horiz-adv-x="717" 
 />
    <glyph glyph-name="paragraph" unicode="&#xb6;" horiz-adv-x="1100" 
 />
    <glyph glyph-name="germandbls" unicode="&#xdf;" horiz-adv-x="1251" 
 />
    <glyph glyph-name="registered" unicode="&#xae;" horiz-adv-x="1509" 
 />
    <glyph glyph-name="copyright" unicode="&#xa9;" horiz-adv-x="1509" 
 />
    <glyph glyph-name="trademark" unicode="&#x2122;" horiz-adv-x="2048" 
 />
    <glyph glyph-name="acute" unicode="&#xb4;" horiz-adv-x="682" 
 />
    <glyph glyph-name="dieresis" unicode="&#xa8;" horiz-adv-x="682" 
 />
    <glyph glyph-name="notequal" unicode="&#x2260;" horiz-adv-x="1124" 
 />
    <glyph glyph-name="AE" unicode="&#xc6;" horiz-adv-x="2048" 
 />
    <glyph glyph-name="Oslash" unicode="&#xd8;" horiz-adv-x="1593" 
 />
    <glyph glyph-name="infinity" unicode="&#x221e;" horiz-adv-x="1460" 
 />
    <glyph glyph-name="plusminus" unicode="&#xb1;" horiz-adv-x="1124" 
 />
    <glyph glyph-name="lessequal" unicode="&#x2264;" horiz-adv-x="1124" 
 />
    <glyph glyph-name="greaterequal" unicode="&#x2265;" horiz-adv-x="1124" 
 />
    <glyph glyph-name="yen" unicode="&#xa5;" 
 />
    <glyph glyph-name="mu1" unicode="&#xb5;" horiz-adv-x="1180" 
 />
    <glyph glyph-name="partialdiff" unicode="&#x2202;" horiz-adv-x="1012" 
 />
    <glyph glyph-name="summation" unicode="&#x2211;" horiz-adv-x="1460" 
 />
    <glyph glyph-name="product" unicode="&#x220f;" horiz-adv-x="1686" 
 />
    <glyph glyph-name="pi1" horiz-adv-x="1124" 
 />
    <glyph glyph-name="integral" unicode="&#x222b;" horiz-adv-x="561" 
 />
    <glyph glyph-name="ordfeminine" unicode="&#xaa;" horiz-adv-x="758" 
 />
    <glyph glyph-name="ordmasculine" unicode="&#xba;" horiz-adv-x="748" 
 />
    <glyph glyph-name="Ohm" unicode="&#x2126;" horiz-adv-x="1573" 
 />
    <glyph glyph-name="ae" unicode="&#xe6;" horiz-adv-x="1821" 
 />
    <glyph glyph-name="oslash" unicode="&#xf8;" horiz-adv-x="1251" 
 />
    <glyph glyph-name="questiondown" unicode="&#xbf;" horiz-adv-x="1251" 
 />
    <glyph glyph-name="exclamdown" unicode="&#xa1;" horiz-adv-x="682" 
 />
    <glyph glyph-name="logicalnot" unicode="&#xac;" horiz-adv-x="614" 
 />
    <glyph glyph-name="radical" unicode="&#x221a;" horiz-adv-x="1124" 
 />
    <glyph glyph-name="florin" unicode="&#x192;" 
 />
    <glyph glyph-name="approxequal" unicode="&#x2248;" horiz-adv-x="1124" 
 />
    <glyph glyph-name="Delta" unicode="&#x2206;" horiz-adv-x="1253" 
 />
    <glyph glyph-name="guillemotleft" unicode="&#xab;" 
 />
    <glyph glyph-name="guillemotright" unicode="&#xbb;" 
 />
    <glyph glyph-name="ellipsis" unicode="&#x2026;" horiz-adv-x="2048" 
 />
    <glyph glyph-name="Agrave" unicode="&#xc0;" horiz-adv-x="1366" 
 />
    <glyph glyph-name="Atilde" unicode="&#xc3;" horiz-adv-x="1366" 
 />
    <glyph glyph-name="Otilde" unicode="&#xd5;" horiz-adv-x="1593" 
 />
    <glyph glyph-name="OE" unicode="&#x152;" horiz-adv-x="2048" 
 />
    <glyph glyph-name="oe" unicode="&#x153;" horiz-adv-x="1933" 
 />
    <glyph glyph-name="endash" unicode="&#x2013;" 
 />
    <glyph glyph-name="emdash" unicode="&#x2014;" horiz-adv-x="2048" 
 />
    <glyph glyph-name="quotedblleft" unicode="&#x201c;" horiz-adv-x="1043" 
d="M267 1736l-18 -63q-11 -18 -15 -29l-15 -44l-18 -33l-11 -22q-7 -22 -18 -37l-4 -11q-11 -29 -22 -48l-7 -11l-56 -114q-18 -33 -25 -55l-44 -147l3 -11q-7 -37 -7 -66q158 -51 265 44l3 22q11 77 19 103v15l7 29l4 19l7 58l11 30l4 14l18 45l4 14l18 59l26 81v18
q7 37 11 92v30l4 11l3 88h-22q-81 -19 -125 -81zM881 1809q-44 -3 -74 -14l-7 -11q-37 -30 -51 -55l-15 -34l-11 -25l-8 -11q0 -8 -11 -26q-3 -18 -11 -29l-11 -22q-3 -19 -11 -30l-18 -37q0 -7 -11 -25l-55 -122l-18 -44l-12 -22l-36 -73q-19 -37 -48 -55v-88
q132 -103 265 -19l14 22l11 41q11 25 15 44l11 51l11 37l4 15l3 14l11 41l4 14q4 22 7 26v11l11 33q4 30 15 66l4 19l7 25l4 19l11 29q0 22 11 52l11 40v11l18 63v11q11 25 15 44q0 25 -26 22z" />
    <glyph glyph-name="quotedblright" unicode="&#x201d;" horiz-adv-x="981" 
d="M207 1783q-28 -10 -45 -20q-4 -14 -17 -38q-4 -21 -14 -45l-4 -20q-10 -25 -13 -45q-11 -31 -14 -55l-17 -55q-4 -24 -14 -59l-10 -31q-7 -38 -14 -58l-4 -14l-41 -148v-100l14 -17l10 3h72l55 55l18 55l10 21l10 31l42 86q10 28 20 45l55 110l7 10l17 38l7 11l42 86
l37 37v83q-31 34 -55 52h-127zM685 1797q-52 -24 -83 -51v-14q-3 -7 -3 -14t-2 -14t-5 -24l-3 -24l-4 -21q-3 -20 -7 -24q0 -13 -3 -34l-4 -28l-3 -24l-10 -31q-11 -20 -18 -51l-13 -35l-7 -24l-31 -96l-4 -38l-3 -31v-28l-4 -13v-28q-6 -55 -6 -86q44 4 82 21q24 27 35 55
l10 21l21 37q3 11 8 21t16 34l10 21l21 38q3 14 11.5 29.5t12.5 25.5l20 41l4 11q17 31 24 55q17 31 34 75l21 49l7 10q3 17 10 27l17 35v14q18 62 14 103l-62 14h-96z" />
    <glyph glyph-name="quoteleft" unicode="&#x2018;" horiz-adv-x="455" 
d="M252 1727q-26 -22 -45 -63l-7 -11l-30 -60q-11 -34 -26 -56l-67 -153l-11 -22l-11 -34q-12 -18 -15 -29q-8 -19 -15 -30l-8 -23l-37 -74v-97l30 -30q15 -19 26 -26q104 -11 175 45l11 26q4 26 11 41l45 171l8 19v11l18 60l4 22l7 22l4 15l19 60l4 15q3 15 7 33l15 41
q7 41 19 68l3 11v104q-52 34 -104 34q-8 -53 -30 -90z" />
    <glyph glyph-name="quoteright" unicode="&#x2019;" horiz-adv-x="598" 
d="M278 1794q-30 -11 -44 -22l-51 -164l-4 -26l-15 -44l-3 -18l-55 -201l-4 -18l-4 -15l-3 -15l-11 -32l-4 -19l-11 -40q-25 -66 -29 -110h22l15 4q54 7 91 18q40 41 62 73q15 41 29 66l19 44l51 117q18 51 36 80q4 11 8 15l18 44l11 22l22 40l3 11q15 37 30 58v95l-55 55
h-95z" />
    <glyph glyph-name="divide" unicode="&#xf7;" horiz-adv-x="1124" 
 />
    <glyph glyph-name="lozenge" unicode="&#x25ca;" horiz-adv-x="1012" 
 />
    <glyph glyph-name="ydieresis" unicode="&#xff;" horiz-adv-x="1024" 
 />
    <glyph glyph-name="Ydieresis" unicode="&#x178;" horiz-adv-x="1366" 
 />
    <glyph glyph-name="fraction" unicode="&#x2044;" horiz-adv-x="342" 
 />
    <glyph glyph-name="fraction" unicode="&#x2215;" horiz-adv-x="342" 
 />
    <glyph glyph-name="Euro" unicode="&#x20ac;" 
 />
    <glyph glyph-name="guilsinglleft" unicode="&#x2039;" horiz-adv-x="682" 
 />
    <glyph glyph-name="guilsinglright" unicode="&#x203a;" horiz-adv-x="682" 
 />
    <glyph glyph-name="fi" unicode="&#xf001;" horiz-adv-x="1024" 
 />
    <glyph glyph-name="fi" unicode="&#xfb01;" horiz-adv-x="1024" 
 />
    <glyph glyph-name="fl" unicode="&#xf002;" horiz-adv-x="1024" 
 />
    <glyph glyph-name="fl" unicode="&#xfb02;" horiz-adv-x="1024" 
 />
    <glyph glyph-name="daggerdbl" unicode="&#x2021;" 
 />
    <glyph glyph-name="periodcentered" unicode="&#xb7;" horiz-adv-x="569" 
 />
    <glyph glyph-name="periodcentered" unicode="&#x2219;" horiz-adv-x="569" 
 />
    <glyph glyph-name="quotesinglbase" unicode="&#x201a;" horiz-adv-x="455" 
 />
    <glyph glyph-name="quotedblbase" unicode="&#x201e;" horiz-adv-x="682" 
 />
    <glyph glyph-name="perthousand" unicode="&#x2030;" horiz-adv-x="2048" 
 />
    <glyph glyph-name="Acircumflex" unicode="&#xc2;" horiz-adv-x="1366" 
 />
    <glyph glyph-name="Ecircumflex" unicode="&#xca;" horiz-adv-x="1366" 
 />
    <glyph glyph-name="Aacute" unicode="&#xc1;" horiz-adv-x="1366" 
 />
    <glyph glyph-name="Edieresis" unicode="&#xcb;" horiz-adv-x="1366" 
 />
    <glyph glyph-name="Egrave" unicode="&#xc8;" horiz-adv-x="1366" 
 />
    <glyph glyph-name="Iacute" unicode="&#xcd;" horiz-adv-x="569" 
 />
    <glyph glyph-name="Icircumflex" unicode="&#xce;" horiz-adv-x="569" 
 />
    <glyph glyph-name="Idieresis" unicode="&#xcf;" horiz-adv-x="569" 
 />
    <glyph glyph-name="Igrave" unicode="&#xcc;" horiz-adv-x="569" 
 />
    <glyph glyph-name="Oacute" unicode="&#xd3;" horiz-adv-x="1593" 
 />
    <glyph glyph-name="Ocircumflex" unicode="&#xd4;" horiz-adv-x="1593" 
 />
    <glyph glyph-name="Ograve" unicode="&#xd2;" horiz-adv-x="1593" 
 />
    <glyph glyph-name="Uacute" unicode="&#xda;" horiz-adv-x="1479" 
 />
    <glyph glyph-name="Ucircumflex" unicode="&#xdb;" horiz-adv-x="1479" 
 />
    <glyph glyph-name="Ugrave" unicode="&#xd9;" horiz-adv-x="1479" 
 />
    <glyph glyph-name="dotlessi" unicode="&#x131;" horiz-adv-x="569" 
 />
    <glyph glyph-name="circumflex" unicode="&#x2c6;" horiz-adv-x="682" 
 />
    <glyph glyph-name="tilde" unicode="&#x2dc;" horiz-adv-x="682" 
 />
    <glyph glyph-name="macron" unicode="&#x2c9;" horiz-adv-x="682" 
 />
    <glyph glyph-name="breve" unicode="&#x2d8;" horiz-adv-x="682" 
 />
    <glyph glyph-name="dotaccent" unicode="&#x2d9;" horiz-adv-x="682" 
 />
    <glyph glyph-name="ring" unicode="&#x2da;" horiz-adv-x="682" 
 />
    <glyph glyph-name="cedilla" unicode="&#xb8;" horiz-adv-x="682" 
 />
    <glyph glyph-name="hungarumlaut" unicode="&#x2dd;" horiz-adv-x="682" 
 />
    <glyph glyph-name="ogonek" unicode="&#x2db;" horiz-adv-x="682" 
 />
    <glyph glyph-name="caron" unicode="&#x2c7;" horiz-adv-x="682" 
 />
    <glyph glyph-name="Lslash" unicode="&#x141;" 
 />
    <glyph glyph-name="lslash" unicode="&#x142;" horiz-adv-x="455" 
 />
    <glyph glyph-name="Scaron" unicode="&#x160;" horiz-adv-x="1366" 
 />
    <glyph glyph-name="scaron" unicode="&#x161;" horiz-adv-x="1024" 
 />
    <glyph glyph-name="Zcaron" unicode="&#x17d;" horiz-adv-x="1251" 
 />
    <glyph glyph-name="zcaron" unicode="&#x17e;" horiz-adv-x="1024" 
 />
    <glyph glyph-name="brokenbar" unicode="&#xa6;" horiz-adv-x="532" 
 />
    <glyph glyph-name="Eth" unicode="&#xd0;" horiz-adv-x="1479" 
 />
    <glyph glyph-name="eth" unicode="&#xf0;" 
 />
    <glyph glyph-name="Yacute" unicode="&#xdd;" horiz-adv-x="1366" 
 />
    <glyph glyph-name="yacute" unicode="&#xfd;" horiz-adv-x="1024" 
 />
    <glyph glyph-name="Thorn" unicode="&#xde;" horiz-adv-x="1366" 
 />
    <glyph glyph-name="thorn" unicode="&#xfe;" 
 />
    <glyph glyph-name="minus" unicode="&#x2212;" horiz-adv-x="1196" 
 />
    <glyph glyph-name="multiply" unicode="&#xd7;" horiz-adv-x="1196" 
 />
    <glyph glyph-name="onesuperior" unicode="&#xb9;" horiz-adv-x="682" 
 />
    <glyph glyph-name="twosuperior" unicode="&#xb2;" horiz-adv-x="682" 
 />
    <glyph glyph-name="threesuperior" unicode="&#xb3;" horiz-adv-x="682" 
 />
    <glyph glyph-name="onehalf" unicode="&#xbd;" horiz-adv-x="1708" 
 />
    <glyph glyph-name="onequarter" unicode="&#xbc;" horiz-adv-x="1708" 
 />
    <glyph glyph-name="threequarters" unicode="&#xbe;" horiz-adv-x="1708" 
 />
    <glyph glyph-name="franc" unicode="&#x20a3;" 
 />
    <glyph glyph-name="Gbreve" unicode="&#x11e;" horiz-adv-x="1593" 
 />
    <glyph glyph-name="gbreve" unicode="&#x11f;" 
 />
    <glyph glyph-name="Idotaccent" unicode="&#x130;" horiz-adv-x="569" 
 />
    <glyph glyph-name="Scedilla" unicode="&#x15e;" horiz-adv-x="1366" 
 />
    <glyph glyph-name="scedilla" unicode="&#x15f;" horiz-adv-x="1024" 
 />
    <glyph glyph-name="Cacute" unicode="&#x106;" horiz-adv-x="1479" 
 />
    <glyph glyph-name="cacute" unicode="&#x107;" horiz-adv-x="1024" 
 />
    <glyph glyph-name="Ccaron" unicode="&#x10c;" horiz-adv-x="1479" 
 />
    <glyph glyph-name="ccaron" unicode="&#x10d;" horiz-adv-x="1024" 
 />
    <glyph glyph-name="dmacron" unicode="&#x111;" 
 />
    <glyph glyph-name="overscore" unicode="&#xaf;" horiz-adv-x="1131" 
 />
    <glyph glyph-name="middot" horiz-adv-x="682" 
 />
    <glyph glyph-name="Abreve" unicode="&#x102;" horiz-adv-x="1366" 
 />
    <glyph glyph-name="abreve" unicode="&#x103;" 
 />
    <glyph glyph-name="Aogonek" unicode="&#x104;" horiz-adv-x="1366" 
 />
    <glyph glyph-name="aogonek" unicode="&#x105;" 
 />
    <glyph glyph-name="Dcaron" unicode="&#x10e;" horiz-adv-x="1479" 
 />
    <glyph glyph-name="dcaron" unicode="&#x10f;" horiz-adv-x="1259" 
 />
    <glyph glyph-name="Dslash" unicode="&#x110;" horiz-adv-x="1479" 
 />
    <glyph glyph-name="Eogonek" unicode="&#x118;" horiz-adv-x="1366" 
 />
    <glyph glyph-name="eogonek" unicode="&#x119;" 
 />
    <glyph glyph-name="Ecaron" unicode="&#x11a;" horiz-adv-x="1366" 
 />
    <glyph glyph-name="ecaron" unicode="&#x11b;" 
 />
    <glyph glyph-name="Lacute" unicode="&#x139;" 
 />
    <glyph glyph-name="lacute" unicode="&#x13a;" horiz-adv-x="455" 
 />
    <glyph glyph-name="Lcaron" unicode="&#x13d;" 
 />
    <glyph glyph-name="lcaron" unicode="&#x13e;" horiz-adv-x="597" 
 />
    <glyph glyph-name="Ldot" unicode="&#x13f;" 
 />
    <glyph glyph-name="ldot" unicode="&#x140;" horiz-adv-x="684" 
 />
    <glyph glyph-name="Nacute" unicode="&#x143;" horiz-adv-x="1479" 
 />
    <glyph glyph-name="nacute" unicode="&#x144;" 
 />
    <glyph glyph-name="Ncaron" unicode="&#x147;" horiz-adv-x="1479" 
 />
    <glyph glyph-name="ncaron" unicode="&#x148;" 
 />
    <glyph glyph-name="Odblacute" unicode="&#x150;" horiz-adv-x="1593" 
 />
    <glyph glyph-name="odblacute" unicode="&#x151;" 
 />
    <glyph glyph-name="Racute" unicode="&#x154;" horiz-adv-x="1479" 
 />
    <glyph glyph-name="racute" unicode="&#x155;" horiz-adv-x="682" 
 />
    <glyph glyph-name="Rcaron" unicode="&#x158;" horiz-adv-x="1479" 
 />
    <glyph glyph-name="rcaron" unicode="&#x159;" horiz-adv-x="682" 
 />
    <glyph glyph-name="Sacute" unicode="&#x15a;" horiz-adv-x="1366" 
 />
    <glyph glyph-name="sacute" unicode="&#x15b;" horiz-adv-x="1024" 
 />
    <glyph glyph-name="Tcedilla" unicode="&#x162;" horiz-adv-x="1251" 
 />
    <glyph glyph-name="tcedilla" unicode="&#x163;" horiz-adv-x="569" 
 />
    <glyph glyph-name="Tcaron" unicode="&#x164;" horiz-adv-x="1251" 
 />
    <glyph glyph-name="tcaron" unicode="&#x165;" horiz-adv-x="768" 
 />
    <glyph glyph-name="Uring" unicode="&#x16e;" horiz-adv-x="1479" 
 />
    <glyph glyph-name="uring" unicode="&#x16f;" 
 />
    <glyph glyph-name="Udblacute" unicode="&#x170;" horiz-adv-x="1479" 
 />
    <glyph glyph-name="udblacute" unicode="&#x171;" 
 />
    <glyph glyph-name="Zacute" unicode="&#x179;" horiz-adv-x="1251" 
 />
    <glyph glyph-name="zacute" unicode="&#x17a;" horiz-adv-x="1024" 
 />
    <glyph glyph-name="Zdot" unicode="&#x17b;" horiz-adv-x="1251" 
 />
    <glyph glyph-name="zdot" unicode="&#x17c;" horiz-adv-x="1024" 
 />
    <glyph glyph-name="Gamma" unicode="&#x393;" horiz-adv-x="1128" 
 />
    <glyph glyph-name="Theta" unicode="&#x398;" horiz-adv-x="1593" 
 />
    <glyph glyph-name="Phi" unicode="&#x3a6;" horiz-adv-x="1634" 
 />
    <glyph glyph-name="alpha" unicode="&#x3b1;" horiz-adv-x="1184" 
 />
    <glyph glyph-name="delta" unicode="&#x3b4;" horiz-adv-x="1140" 
 />
    <glyph glyph-name="epsilon" unicode="&#x3b5;" horiz-adv-x="913" 
 />
    <glyph glyph-name="sigma" unicode="&#x3c3;" horiz-adv-x="1264" 
 />
    <glyph glyph-name="tau" unicode="&#x3c4;" horiz-adv-x="809" 
 />
    <glyph glyph-name="phi" unicode="&#x3c6;" horiz-adv-x="1328" 
 />
    <glyph glyph-name="underscoredbl" unicode="&#x2017;" horiz-adv-x="1131" 
 />
    <glyph glyph-name="exclamdbl" unicode="&#x203c;" horiz-adv-x="1024" 
 />
    <glyph glyph-name="nsuperior" unicode="&#x207f;" horiz-adv-x="747" 
 />
    <glyph glyph-name="peseta" unicode="&#x20a7;" horiz-adv-x="2240" 
 />
    <glyph glyph-name="arrowleft" unicode="&#x2190;" horiz-adv-x="2048" 
 />
    <glyph glyph-name="arrowup" unicode="&#x2191;" horiz-adv-x="1024" 
 />
    <glyph glyph-name="arrowright" unicode="&#x2192;" horiz-adv-x="2048" 
 />
    <glyph glyph-name="arrowdown" unicode="&#x2193;" horiz-adv-x="1024" 
 />
    <glyph glyph-name="arrowboth" unicode="&#x2194;" horiz-adv-x="2048" 
 />
    <glyph glyph-name="arrowupdn" unicode="&#x2195;" horiz-adv-x="1024" 
 />
    <glyph glyph-name="arrowupdnbse" unicode="&#x21a8;" horiz-adv-x="1024" 
 />
    <glyph glyph-name="orthogonal" unicode="&#x221f;" horiz-adv-x="2005" 
 />
    <glyph glyph-name="intersection" unicode="&#x2229;" horiz-adv-x="1472" 
 />
    <glyph glyph-name="equivalence" unicode="&#x2261;" horiz-adv-x="1195" 
 />
    <glyph glyph-name="house" unicode="&#x2302;" horiz-adv-x="1237" 
 />
    <glyph glyph-name="revlogicalnot" unicode="&#x2310;" horiz-adv-x="1196" 
 />
    <glyph glyph-name="integraltp" unicode="&#x2320;" horiz-adv-x="1237" 
 />
    <glyph glyph-name="integralbt" unicode="&#x2321;" horiz-adv-x="1237" 
 />
    <glyph glyph-name="SF100000" unicode="&#x2500;" horiz-adv-x="1451" 
 />
    <glyph glyph-name="SF110000" unicode="&#x2502;" horiz-adv-x="1280" 
 />
    <glyph glyph-name="SF010000" unicode="&#x250c;" horiz-adv-x="1451" 
 />
    <glyph glyph-name="SF030000" unicode="&#x2510;" horiz-adv-x="1451" 
 />
    <glyph glyph-name="SF020000" unicode="&#x2514;" horiz-adv-x="1451" 
 />
    <glyph glyph-name="SF040000" unicode="&#x2518;" horiz-adv-x="1451" 
 />
    <glyph glyph-name="SF080000" unicode="&#x251c;" horiz-adv-x="1451" 
 />
    <glyph glyph-name="SF090000" unicode="&#x2524;" horiz-adv-x="1451" 
 />
    <glyph glyph-name="SF060000" unicode="&#x252c;" horiz-adv-x="1451" 
 />
    <glyph glyph-name="SF070000" unicode="&#x2534;" horiz-adv-x="1451" 
 />
    <glyph glyph-name="SF050000" unicode="&#x253c;" horiz-adv-x="1451" 
 />
    <glyph glyph-name="SF430000" unicode="&#x2550;" horiz-adv-x="1451" 
 />
    <glyph glyph-name="SF240000" unicode="&#x2551;" horiz-adv-x="1451" 
 />
    <glyph glyph-name="SF510000" unicode="&#x2552;" horiz-adv-x="1451" 
 />
    <glyph glyph-name="SF520000" unicode="&#x2553;" horiz-adv-x="1451" 
 />
    <glyph glyph-name="SF390000" unicode="&#x2554;" horiz-adv-x="1451" 
 />
    <glyph glyph-name="SF220000" unicode="&#x2555;" horiz-adv-x="1451" 
 />
    <glyph glyph-name="SF210000" unicode="&#x2556;" horiz-adv-x="1451" 
 />
    <glyph glyph-name="SF250000" unicode="&#x2557;" horiz-adv-x="1451" 
 />
    <glyph glyph-name="SF500000" unicode="&#x2558;" horiz-adv-x="1451" 
 />
    <glyph glyph-name="SF490000" unicode="&#x2559;" horiz-adv-x="1451" 
 />
    <glyph glyph-name="SF380000" unicode="&#x255a;" horiz-adv-x="1451" 
 />
    <glyph glyph-name="SF280000" unicode="&#x255b;" horiz-adv-x="1451" 
 />
    <glyph glyph-name="SF270000" unicode="&#x255c;" horiz-adv-x="1451" 
 />
    <glyph glyph-name="SF260000" unicode="&#x255d;" horiz-adv-x="1451" 
 />
    <glyph glyph-name="SF360000" unicode="&#x255e;" horiz-adv-x="1451" 
 />
    <glyph glyph-name="SF370000" unicode="&#x255f;" horiz-adv-x="1451" 
 />
    <glyph glyph-name="SF420000" unicode="&#x2560;" horiz-adv-x="1451" 
 />
    <glyph glyph-name="SF190000" unicode="&#x2561;" horiz-adv-x="1451" 
 />
    <glyph glyph-name="SF200000" unicode="&#x2562;" horiz-adv-x="1451" 
 />
    <glyph glyph-name="SF230000" unicode="&#x2563;" horiz-adv-x="1451" 
 />
    <glyph glyph-name="SF470000" unicode="&#x2564;" horiz-adv-x="1451" 
 />
    <glyph glyph-name="SF480000" unicode="&#x2565;" horiz-adv-x="1451" 
 />
    <glyph glyph-name="SF410000" unicode="&#x2566;" horiz-adv-x="1451" 
 />
    <glyph glyph-name="SF450000" unicode="&#x2567;" horiz-adv-x="1451" 
 />
    <glyph glyph-name="SF460000" unicode="&#x2568;" horiz-adv-x="1451" 
 />
    <glyph glyph-name="SF400000" unicode="&#x2569;" horiz-adv-x="1451" 
 />
    <glyph glyph-name="SF540000" unicode="&#x256a;" horiz-adv-x="1451" 
 />
    <glyph glyph-name="SF530000" unicode="&#x256b;" horiz-adv-x="1451" 
 />
    <glyph glyph-name="SF440000" unicode="&#x256c;" horiz-adv-x="1451" 
 />
    <glyph glyph-name="upblock" unicode="&#x2580;" horiz-adv-x="1451" 
 />
    <glyph glyph-name="dnblock" unicode="&#x2584;" horiz-adv-x="1451" 
 />
    <glyph glyph-name="block" unicode="&#x2588;" horiz-adv-x="1451" 
 />
    <glyph glyph-name="lfblock" unicode="&#x258c;" horiz-adv-x="1451" 
 />
    <glyph glyph-name="rtblock" unicode="&#x2590;" horiz-adv-x="1451" 
 />
    <glyph glyph-name="ltshade" unicode="&#x2591;" horiz-adv-x="1451" 
 />
    <glyph glyph-name="shade" unicode="&#x2592;" horiz-adv-x="1451" 
 />
    <glyph glyph-name="dkshade" unicode="&#x2593;" horiz-adv-x="1493" 
 />
    <glyph glyph-name="filledbox" unicode="&#x25a0;" horiz-adv-x="1237" 
 />
    <glyph glyph-name="filledrect" unicode="&#x25ac;" horiz-adv-x="2048" 
 />
    <glyph glyph-name="triagup" unicode="&#x25b2;" horiz-adv-x="2027" 
 />
    <glyph glyph-name="triagrt" unicode="&#x25ba;" horiz-adv-x="2027" 
 />
    <glyph glyph-name="triagdn" unicode="&#x25bc;" horiz-adv-x="2027" 
 />
    <glyph glyph-name="triaglf" unicode="&#x25c4;" horiz-adv-x="2027" 
 />
    <glyph glyph-name="circle" unicode="&#x25cb;" horiz-adv-x="1237" 
 />
    <glyph glyph-name="invbullet" unicode="&#x25d8;" horiz-adv-x="1237" 
 />
    <glyph glyph-name="invcircle" unicode="&#x25d9;" horiz-adv-x="1237" 
 />
    <glyph glyph-name="smileface" unicode="&#x263a;" horiz-adv-x="2091" 
 />
    <glyph glyph-name="invsmileface" unicode="&#x263b;" horiz-adv-x="2155" 
 />
    <glyph glyph-name="sun" unicode="&#x263c;" horiz-adv-x="1877" 
 />
    <glyph glyph-name="female" unicode="&#x2640;" horiz-adv-x="1536" 
 />
    <glyph glyph-name="male" unicode="&#x2642;" horiz-adv-x="1536" 
 />
    <glyph glyph-name="spade" unicode="&#x2660;" horiz-adv-x="1088" 
 />
    <glyph glyph-name="club" unicode="&#x2663;" horiz-adv-x="1344" 
 />
    <glyph glyph-name="heart" unicode="&#x2665;" horiz-adv-x="1216" 
 />
    <glyph glyph-name="diamond" unicode="&#x2666;" horiz-adv-x="1045" 
 />
    <glyph glyph-name="musicalnote" unicode="&#x266a;" horiz-adv-x="1024" 
 />
    <glyph glyph-name="musicalnotedbl" unicode="&#x266b;" horiz-adv-x="1536" 
 />
    <glyph glyph-name="IJ" unicode="&#x132;" horiz-adv-x="1505" 
 />
    <glyph glyph-name="ij" unicode="&#x133;" horiz-adv-x="909" 
 />
    <glyph glyph-name="napostrophe" unicode="&#x149;" horiz-adv-x="1237" 
 />
    <glyph glyph-name="minute" unicode="&#x2032;" horiz-adv-x="384" 
 />
    <glyph glyph-name="second" unicode="&#x2033;" horiz-adv-x="725" 
 />
    <glyph glyph-name="afii61248" unicode="&#x2105;" horiz-adv-x="1813" 
 />
    <glyph glyph-name="afii61289" unicode="&#x2113;" horiz-adv-x="662" 
 />
    <glyph glyph-name="H22073" unicode="&#x25a1;" horiz-adv-x="1237" 
 />
    <glyph glyph-name="H18543" unicode="&#x25aa;" horiz-adv-x="726" 
 />
    <glyph glyph-name="H18551" unicode="&#x25ab;" horiz-adv-x="726" 
 />
    <glyph glyph-name="H18533" unicode="&#x25cf;" horiz-adv-x="1237" 
 />
    <glyph glyph-name="openbullet" unicode="&#x25e6;" horiz-adv-x="726" 
 />
    <glyph glyph-name="Amacron" unicode="&#x100;" horiz-adv-x="1366" 
 />
    <glyph glyph-name="amacron" unicode="&#x101;" 
 />
    <glyph glyph-name="Ccircumflex" unicode="&#x108;" horiz-adv-x="1479" 
 />
    <glyph glyph-name="ccircumflex" unicode="&#x109;" horiz-adv-x="1024" 
 />
    <glyph glyph-name="Cdot" unicode="&#x10a;" horiz-adv-x="1479" 
 />
    <glyph glyph-name="cdot" unicode="&#x10b;" horiz-adv-x="1024" 
 />
    <glyph glyph-name="Emacron" unicode="&#x112;" horiz-adv-x="1366" 
 />
    <glyph glyph-name="emacron" unicode="&#x113;" 
 />
    <glyph glyph-name="Ebreve" unicode="&#x114;" horiz-adv-x="1366" 
 />
    <glyph glyph-name="ebreve" unicode="&#x115;" 
 />
    <glyph glyph-name="Edot" unicode="&#x116;" horiz-adv-x="1366" 
 />
    <glyph glyph-name="edot" unicode="&#x117;" 
 />
    <glyph glyph-name="Gcircumflex" unicode="&#x11c;" horiz-adv-x="1593" 
 />
    <glyph glyph-name="gcircumflex" unicode="&#x11d;" 
 />
    <glyph glyph-name="Gdot" unicode="&#x120;" horiz-adv-x="1593" 
 />
    <glyph glyph-name="gdot" unicode="&#x121;" 
 />
    <glyph glyph-name="Gcedilla" unicode="&#x122;" horiz-adv-x="1593" 
 />
    <glyph glyph-name="gcedilla" unicode="&#x123;" 
 />
    <glyph glyph-name="Hcircumflex" unicode="&#x124;" horiz-adv-x="1479" 
 />
    <glyph glyph-name="hcircumflex" unicode="&#x125;" 
 />
    <glyph glyph-name="Hbar" unicode="&#x126;" horiz-adv-x="1479" 
 />
    <glyph glyph-name="hbar" unicode="&#x127;" 
 />
    <glyph glyph-name="Itilde" unicode="&#x128;" horiz-adv-x="569" 
 />
    <glyph glyph-name="itilde" unicode="&#x129;" horiz-adv-x="569" 
 />
    <glyph glyph-name="Imacron" unicode="&#x12a;" horiz-adv-x="569" 
 />
    <glyph glyph-name="imacron" unicode="&#x12b;" horiz-adv-x="569" 
 />
    <glyph glyph-name="Ibreve" unicode="&#x12c;" horiz-adv-x="569" 
 />
    <glyph glyph-name="ibreve" unicode="&#x12d;" horiz-adv-x="569" 
 />
    <glyph glyph-name="Iogonek" unicode="&#x12e;" horiz-adv-x="569" 
 />
    <glyph glyph-name="iogonek" unicode="&#x12f;" horiz-adv-x="455" 
 />
    <glyph glyph-name="Jcircumflex" unicode="&#x134;" horiz-adv-x="1024" 
 />
    <glyph glyph-name="jcircumflex" unicode="&#x135;" horiz-adv-x="455" 
 />
    <glyph glyph-name="Kcedilla" unicode="&#x136;" horiz-adv-x="1366" 
 />
    <glyph glyph-name="kcedilla" unicode="&#x137;" horiz-adv-x="1024" 
 />
    <glyph glyph-name="kgreenlandic" unicode="&#x138;" horiz-adv-x="1024" 
 />
    <glyph glyph-name="Lcedilla" unicode="&#x13b;" 
 />
    <glyph glyph-name="lcedilla" unicode="&#x13c;" horiz-adv-x="455" 
 />
    <glyph glyph-name="Ncedilla" unicode="&#x145;" horiz-adv-x="1479" 
 />
    <glyph glyph-name="ncedilla" unicode="&#x146;" 
 />
    <glyph glyph-name="Eng" unicode="&#x14a;" horiz-adv-x="1481" 
 />
    <glyph glyph-name="eng" unicode="&#x14b;" 
 />
    <glyph glyph-name="Omacron" unicode="&#x14c;" horiz-adv-x="1593" 
 />
    <glyph glyph-name="omacron" unicode="&#x14d;" 
 />
    <glyph glyph-name="Obreve" unicode="&#x14e;" horiz-adv-x="1593" 
 />
    <glyph glyph-name="obreve" unicode="&#x14f;" 
 />
    <glyph glyph-name="Rcedilla" unicode="&#x156;" horiz-adv-x="1479" 
 />
    <glyph glyph-name="rcedilla" unicode="&#x157;" horiz-adv-x="682" 
 />
    <glyph glyph-name="Scircumflex" unicode="&#x15c;" horiz-adv-x="1366" 
 />
    <glyph glyph-name="scircumflex" unicode="&#x15d;" horiz-adv-x="1024" 
 />
    <glyph glyph-name="Tbar" unicode="&#x166;" horiz-adv-x="1251" 
 />
    <glyph glyph-name="tbar" unicode="&#x167;" horiz-adv-x="569" 
 />
    <glyph glyph-name="Utilde" unicode="&#x168;" horiz-adv-x="1479" 
 />
    <glyph glyph-name="utilde" unicode="&#x169;" 
 />
    <glyph glyph-name="Umacron" unicode="&#x16a;" horiz-adv-x="1479" 
 />
    <glyph glyph-name="umacron" unicode="&#x16b;" 
 />
    <glyph glyph-name="Ubreve" unicode="&#x16c;" horiz-adv-x="1479" 
 />
    <glyph glyph-name="ubreve" unicode="&#x16d;" 
 />
    <glyph glyph-name="Uogonek" unicode="&#x172;" horiz-adv-x="1479" 
 />
    <glyph glyph-name="uogonek" unicode="&#x173;" 
 />
    <glyph glyph-name="Wcircumflex" unicode="&#x174;" horiz-adv-x="1933" 
 />
    <glyph glyph-name="wcircumflex" unicode="&#x175;" horiz-adv-x="1479" 
 />
    <glyph glyph-name="Ycircumflex" unicode="&#x176;" horiz-adv-x="1366" 
 />
    <glyph glyph-name="ycircumflex" unicode="&#x177;" horiz-adv-x="1024" 
 />
    <glyph glyph-name="longs" unicode="&#x17f;" horiz-adv-x="455" 
 />
    <glyph glyph-name="Aringacute" unicode="&#x1fa;" horiz-adv-x="1366" 
 />
    <glyph glyph-name="aringacute" unicode="&#x1fb;" 
 />
    <glyph glyph-name="AEacute" unicode="&#x1fc;" horiz-adv-x="2048" 
 />
    <glyph glyph-name="aeacute" unicode="&#x1fd;" horiz-adv-x="1821" 
 />
    <glyph glyph-name="Oslashacute" unicode="&#x1fe;" horiz-adv-x="1593" 
 />
    <glyph glyph-name="oslashacute" unicode="&#x1ff;" horiz-adv-x="1251" 
 />
    <glyph glyph-name="anoteleia" unicode="&#x387;" horiz-adv-x="569" 
 />
    <glyph glyph-name="Wgrave" unicode="&#x1e80;" horiz-adv-x="1933" 
 />
    <glyph glyph-name="wgrave" unicode="&#x1e81;" horiz-adv-x="1479" 
 />
    <glyph glyph-name="Wacute" unicode="&#x1e82;" horiz-adv-x="1933" 
 />
    <glyph glyph-name="wacute" unicode="&#x1e83;" horiz-adv-x="1479" 
 />
    <glyph glyph-name="Wdieresis" unicode="&#x1e84;" horiz-adv-x="1933" 
 />
    <glyph glyph-name="wdieresis" unicode="&#x1e85;" horiz-adv-x="1479" 
 />
    <glyph glyph-name="Ygrave" unicode="&#x1ef2;" horiz-adv-x="1366" 
 />
    <glyph glyph-name="ygrave" unicode="&#x1ef3;" horiz-adv-x="1024" 
 />
    <glyph glyph-name="quotereversed" unicode="&#x201b;" horiz-adv-x="455" 
 />
    <glyph glyph-name="radicalex" unicode="&#x203e;" horiz-adv-x="682" 
 />
    <glyph glyph-name="afii08941" unicode="&#x20a4;" 
 />
    <glyph glyph-name="estimated" unicode="&#x212e;" horiz-adv-x="1229" 
 />
    <glyph glyph-name="oneeighth" unicode="&#x215b;" horiz-adv-x="1708" 
 />
    <glyph glyph-name="threeeighths" unicode="&#x215c;" horiz-adv-x="1708" 
 />
    <glyph glyph-name="fiveeighths" unicode="&#x215d;" horiz-adv-x="1708" 
 />
    <glyph glyph-name="seveneighths" unicode="&#x215e;" horiz-adv-x="1708" 
 />
    <glyph glyph-name="commaaccent" unicode="&#xf004;" horiz-adv-x="682" 
 />
    <glyph glyph-name="undercommaaccent" unicode="&#xf005;" horiz-adv-x="682" 
 />
    <glyph glyph-name="tonos" unicode="&#x384;" horiz-adv-x="682" 
 />
    <glyph glyph-name="dieresistonos" unicode="&#x385;" horiz-adv-x="682" 
 />
    <glyph glyph-name="Alphatonos" unicode="&#x386;" horiz-adv-x="1367" 
 />
    <glyph glyph-name="Epsilontonos" unicode="&#x388;" horiz-adv-x="1606" 
 />
    <glyph glyph-name="Etatonos" unicode="&#x389;" horiz-adv-x="1716" 
 />
    <glyph glyph-name="Iotatonos" unicode="&#x38a;" horiz-adv-x="786" 
 />
    <glyph glyph-name="Omicrontonos" unicode="&#x38c;" horiz-adv-x="1586" 
 />
    <glyph glyph-name="Upsilontonos" unicode="&#x38e;" horiz-adv-x="1752" 
 />
    <glyph glyph-name="Omegatonos" unicode="&#x38f;" horiz-adv-x="1541" 
 />
    <glyph glyph-name="iotadieresistonos" unicode="&#x390;" horiz-adv-x="455" 
 />
    <glyph glyph-name="Alpha" unicode="&#x391;" horiz-adv-x="1366" 
 />
    <glyph glyph-name="Beta" unicode="&#x392;" horiz-adv-x="1366" 
 />
    <glyph glyph-name="Delta" unicode="&#x394;" horiz-adv-x="1368" 
 />
    <glyph glyph-name="Epsilon" unicode="&#x395;" horiz-adv-x="1366" 
 />
    <glyph glyph-name="Zeta" unicode="&#x396;" horiz-adv-x="1251" 
 />
    <glyph glyph-name="Eta" unicode="&#x397;" horiz-adv-x="1479" 
 />
    <glyph glyph-name="Iota" unicode="&#x399;" horiz-adv-x="569" 
 />
    <glyph glyph-name="Kappa" unicode="&#x39a;" horiz-adv-x="1366" 
 />
    <glyph glyph-name="Lambda" unicode="&#x39b;" horiz-adv-x="1368" 
 />
    <glyph glyph-name="Mu" unicode="&#x39c;" horiz-adv-x="1706" 
 />
    <glyph glyph-name="Nu" unicode="&#x39d;" horiz-adv-x="1479" 
 />
    <glyph glyph-name="Xi" unicode="&#x39e;" horiz-adv-x="1331" 
 />
    <glyph glyph-name="Omicron" unicode="&#x39f;" horiz-adv-x="1593" 
 />
    <glyph glyph-name="Pi" unicode="&#x3a0;" horiz-adv-x="1479" 
 />
    <glyph glyph-name="Rho" unicode="&#x3a1;" horiz-adv-x="1366" 
 />
    <glyph glyph-name="Sigma" unicode="&#x3a3;" horiz-adv-x="1266" 
 />
    <glyph glyph-name="Tau" unicode="&#x3a4;" horiz-adv-x="1251" 
 />
    <glyph glyph-name="Upsilon" unicode="&#x3a5;" horiz-adv-x="1366" 
 />
    <glyph glyph-name="Chi" unicode="&#x3a7;" horiz-adv-x="1366" 
 />
    <glyph glyph-name="Psi" unicode="&#x3a8;" horiz-adv-x="1711" 
 />
    <glyph glyph-name="Omega" unicode="&#x3a9;" horiz-adv-x="1531" 
 />
    <glyph glyph-name="Iotadieresis" unicode="&#x3aa;" horiz-adv-x="569" 
 />
    <glyph glyph-name="Upsilondieresis" unicode="&#x3ab;" horiz-adv-x="1366" 
 />
    <glyph glyph-name="alphatonos" unicode="&#x3ac;" horiz-adv-x="1184" 
 />
    <glyph glyph-name="epsilontonos" unicode="&#x3ad;" horiz-adv-x="913" 
 />
    <glyph glyph-name="etatonos" unicode="&#x3ae;" 
 />
    <glyph glyph-name="iotatonos" unicode="&#x3af;" horiz-adv-x="455" 
 />
    <glyph glyph-name="upsilondieresistonos" unicode="&#x3b0;" horiz-adv-x="1120" 
 />
    <glyph glyph-name="beta" unicode="&#x3b2;" horiz-adv-x="1178" 
 />
    <glyph glyph-name="gamma" unicode="&#x3b3;" horiz-adv-x="1024" 
 />
    <glyph glyph-name="zeta" unicode="&#x3b6;" horiz-adv-x="903" 
 />
    <glyph glyph-name="eta" unicode="&#x3b7;" 
 />
    <glyph glyph-name="theta" unicode="&#x3b8;" 
 />
    <glyph glyph-name="iota" unicode="&#x3b9;" horiz-adv-x="455" 
 />
    <glyph glyph-name="kappa" unicode="&#x3ba;" horiz-adv-x="1024" 
 />
    <glyph glyph-name="lambda" unicode="&#x3bb;" horiz-adv-x="1024" 
 />
    <glyph glyph-name="mu" unicode="&#x3bc;" horiz-adv-x="1180" 
 />
    <glyph glyph-name="nu" unicode="&#x3bd;" horiz-adv-x="1024" 
 />
    <glyph glyph-name="xi" unicode="&#x3be;" horiz-adv-x="917" 
 />
    <glyph glyph-name="omicron" unicode="&#x3bf;" 
 />
    <glyph glyph-name="rho" unicode="&#x3c1;" horiz-adv-x="1165" 
 />
    <glyph glyph-name="sigma1" unicode="&#x3c2;" horiz-adv-x="987" 
 />
    <glyph glyph-name="upsilon" unicode="&#x3c5;" horiz-adv-x="1120" 
 />
    <glyph glyph-name="chi" unicode="&#x3c7;" horiz-adv-x="1075" 
 />
    <glyph glyph-name="psi" unicode="&#x3c8;" horiz-adv-x="1460" 
 />
    <glyph glyph-name="omega" unicode="&#x3c9;" horiz-adv-x="1599" 
 />
    <glyph glyph-name="iotadieresis" unicode="&#x3ca;" horiz-adv-x="455" 
 />
    <glyph glyph-name="upsilondieresis" unicode="&#x3cb;" horiz-adv-x="1120" 
 />
    <glyph glyph-name="omicrontonos" unicode="&#x3cc;" 
 />
    <glyph glyph-name="upsilontonos" unicode="&#x3cd;" horiz-adv-x="1120" 
 />
    <glyph glyph-name="omegatonos" unicode="&#x3ce;" horiz-adv-x="1599" 
 />
    <glyph glyph-name="afii10023" unicode="&#x401;" horiz-adv-x="1367" 
 />
    <glyph glyph-name="afii10051" unicode="&#x402;" horiz-adv-x="1771" 
 />
    <glyph glyph-name="afii10052" unicode="&#x403;" horiz-adv-x="1109" 
 />
    <glyph glyph-name="afii10053" unicode="&#x404;" horiz-adv-x="1472" 
 />
    <glyph glyph-name="afii10054" unicode="&#x405;" horiz-adv-x="1366" 
 />
    <glyph glyph-name="afii10055" unicode="&#x406;" horiz-adv-x="569" 
 />
    <glyph glyph-name="afii10056" unicode="&#x407;" horiz-adv-x="569" 
 />
    <glyph glyph-name="afii10057" unicode="&#x408;" horiz-adv-x="1024" 
 />
    <glyph glyph-name="afii10058" unicode="&#x409;" horiz-adv-x="2165" 
 />
    <glyph glyph-name="afii10059" unicode="&#x40a;" horiz-adv-x="2069" 
 />
    <glyph glyph-name="afii10060" unicode="&#x40b;" horiz-adv-x="1749" 
 />
    <glyph glyph-name="afii10061" unicode="&#x40c;" horiz-adv-x="1193" 
 />
    <glyph glyph-name="afii10062" unicode="&#x40e;" horiz-adv-x="1301" 
 />
    <glyph glyph-name="afii10145" unicode="&#x40f;" horiz-adv-x="1472" 
 />
    <glyph glyph-name="afii10017" unicode="&#x410;" horiz-adv-x="1366" 
 />
    <glyph glyph-name="afii10018" unicode="&#x411;" horiz-adv-x="1344" 
 />
    <glyph glyph-name="afii10019" unicode="&#x412;" horiz-adv-x="1366" 
 />
    <glyph glyph-name="afii10020" unicode="&#x413;" horiz-adv-x="1109" 
 />
    <glyph glyph-name="afii10021" unicode="&#x414;" horiz-adv-x="1387" 
 />
    <glyph glyph-name="afii10022" unicode="&#x415;" horiz-adv-x="1366" 
 />
    <glyph glyph-name="afii10024" unicode="&#x416;" horiz-adv-x="1891" 
 />
    <glyph glyph-name="afii10025" unicode="&#x417;" horiz-adv-x="1237" 
 />
    <glyph glyph-name="afii10026" unicode="&#x418;" horiz-adv-x="1472" 
 />
    <glyph glyph-name="afii10027" unicode="&#x419;" horiz-adv-x="1472" 
 />
    <glyph glyph-name="afii10028" unicode="&#x41a;" horiz-adv-x="1193" 
 />
    <glyph glyph-name="afii10029" unicode="&#x41b;" horiz-adv-x="1344" 
 />
    <glyph glyph-name="afii10030" unicode="&#x41c;" horiz-adv-x="1706" 
 />
    <glyph glyph-name="afii10031" unicode="&#x41d;" horiz-adv-x="1479" 
 />
    <glyph glyph-name="afii10032" unicode="&#x41e;" horiz-adv-x="1593" 
 />
    <glyph glyph-name="afii10033" unicode="&#x41f;" horiz-adv-x="1472" 
 />
    <glyph glyph-name="afii10034" unicode="&#x420;" horiz-adv-x="1366" 
 />
    <glyph glyph-name="afii10035" unicode="&#x421;" horiz-adv-x="1479" 
 />
    <glyph glyph-name="afii10036" unicode="&#x422;" horiz-adv-x="1251" 
 />
    <glyph glyph-name="afii10037" unicode="&#x423;" horiz-adv-x="1301" 
 />
    <glyph glyph-name="afii10038" unicode="&#x424;" horiz-adv-x="1557" 
 />
    <glyph glyph-name="afii10039" unicode="&#x425;" horiz-adv-x="1366" 
 />
    <glyph glyph-name="afii10040" unicode="&#x426;" horiz-adv-x="1515" 
 />
    <glyph glyph-name="afii10041" unicode="&#x427;" horiz-adv-x="1365" 
 />
    <glyph glyph-name="afii10042" unicode="&#x428;" horiz-adv-x="1877" 
 />
    <glyph glyph-name="afii10043" unicode="&#x429;" horiz-adv-x="1920" 
 />
    <glyph glyph-name="afii10044" unicode="&#x42a;" horiz-adv-x="1621" 
 />
    <glyph glyph-name="afii10045" unicode="&#x42b;" horiz-adv-x="1813" 
 />
    <glyph glyph-name="afii10046" unicode="&#x42c;" horiz-adv-x="1344" 
 />
    <glyph glyph-name="afii10047" unicode="&#x42d;" horiz-adv-x="1472" 
 />
    <glyph glyph-name="afii10048" unicode="&#x42e;" horiz-adv-x="2069" 
 />
    <glyph glyph-name="afii10049" unicode="&#x42f;" horiz-adv-x="1479" 
 />
    <glyph glyph-name="afii10065" unicode="&#x430;" 
 />
    <glyph glyph-name="afii10066" unicode="&#x431;" horiz-adv-x="1173" 
 />
    <glyph glyph-name="afii10067" unicode="&#x432;" horiz-adv-x="1088" 
 />
    <glyph glyph-name="afii10068" unicode="&#x433;" horiz-adv-x="747" 
 />
    <glyph glyph-name="afii10069" unicode="&#x434;" horiz-adv-x="1195" 
 />
    <glyph glyph-name="afii10070" unicode="&#x435;" 
 />
    <glyph glyph-name="afii10072" unicode="&#x436;" horiz-adv-x="1370" 
 />
    <glyph glyph-name="afii10073" unicode="&#x437;" horiz-adv-x="939" 
 />
    <glyph glyph-name="afii10074" unicode="&#x438;" horiz-adv-x="1144" 
 />
    <glyph glyph-name="afii10075" unicode="&#x439;" horiz-adv-x="1144" 
 />
    <glyph glyph-name="afii10076" unicode="&#x43a;" horiz-adv-x="896" 
 />
    <glyph glyph-name="afii10077" unicode="&#x43b;" horiz-adv-x="1195" 
 />
    <glyph glyph-name="afii10078" unicode="&#x43c;" horiz-adv-x="1408" 
 />
    <glyph glyph-name="afii10079" unicode="&#x43d;" horiz-adv-x="1131" 
 />
    <glyph glyph-name="afii10080" unicode="&#x43e;" 
 />
    <glyph glyph-name="afii10081" unicode="&#x43f;" horiz-adv-x="1109" 
 />
    <glyph glyph-name="afii10082" unicode="&#x440;" 
 />
    <glyph glyph-name="afii10083" unicode="&#x441;" horiz-adv-x="1024" 
 />
    <glyph glyph-name="afii10084" unicode="&#x442;" horiz-adv-x="938" 
 />
    <glyph glyph-name="afii10085" unicode="&#x443;" horiz-adv-x="1024" 
 />
    <glyph glyph-name="afii10086" unicode="&#x444;" horiz-adv-x="1685" 
 />
    <glyph glyph-name="afii10087" unicode="&#x445;" horiz-adv-x="1024" 
 />
    <glyph glyph-name="afii10088" unicode="&#x446;" horiz-adv-x="1173" 
 />
    <glyph glyph-name="afii10089" unicode="&#x447;" horiz-adv-x="1067" 
 />
    <glyph glyph-name="afii10090" unicode="&#x448;" horiz-adv-x="1643" 
 />
    <glyph glyph-name="afii10091" unicode="&#x449;" horiz-adv-x="1685" 
 />
    <glyph glyph-name="afii10092" unicode="&#x44a;" horiz-adv-x="1280" 
 />
    <glyph glyph-name="afii10093" unicode="&#x44b;" horiz-adv-x="1472" 
 />
    <glyph glyph-name="afii10094" unicode="&#x44c;" horiz-adv-x="1067" 
 />
    <glyph glyph-name="afii10095" unicode="&#x44d;" horiz-adv-x="1045" 
 />
    <glyph glyph-name="afii10096" unicode="&#x44e;" horiz-adv-x="1536" 
 />
    <glyph glyph-name="afii10097" unicode="&#x44f;" horiz-adv-x="1109" 
 />
    <glyph glyph-name="afii10071" unicode="&#x451;" 
 />
    <glyph glyph-name="afii10099" unicode="&#x452;" 
 />
    <glyph glyph-name="afii10100" unicode="&#x453;" horiz-adv-x="747" 
 />
    <glyph glyph-name="afii10101" unicode="&#x454;" horiz-adv-x="1045" 
 />
    <glyph glyph-name="afii10102" unicode="&#x455;" horiz-adv-x="1024" 
 />
    <glyph glyph-name="afii10103" unicode="&#x456;" horiz-adv-x="455" 
 />
    <glyph glyph-name="afii10104" unicode="&#x457;" horiz-adv-x="569" 
 />
    <glyph glyph-name="afii10105" unicode="&#x458;" horiz-adv-x="455" 
 />
    <glyph glyph-name="afii10106" unicode="&#x459;" horiz-adv-x="1856" 
 />
    <glyph glyph-name="afii10107" unicode="&#x45a;" horiz-adv-x="1664" 
 />
    <glyph glyph-name="afii10108" unicode="&#x45b;" 
 />
    <glyph glyph-name="afii10109" unicode="&#x45c;" horiz-adv-x="896" 
 />
    <glyph glyph-name="afii10110" unicode="&#x45e;" horiz-adv-x="1024" 
 />
    <glyph glyph-name="afii10193" unicode="&#x45f;" horiz-adv-x="1131" 
 />
    <glyph glyph-name="afii10050" unicode="&#x490;" horiz-adv-x="1001" 
 />
    <glyph glyph-name="afii10098" unicode="&#x491;" horiz-adv-x="842" 
 />
    <glyph glyph-name="afii00208" unicode="&#x2015;" horiz-adv-x="2048" 
 />
    <glyph glyph-name="afii61352" unicode="&#x2116;" horiz-adv-x="2197" 
 />
    <glyph glyph-name="pi" unicode="&#x3c0;" horiz-adv-x="1413" 
 />
  </font>
</defs>
</svg>
